<svg width="595" height="303" viewBox="0 0 595 303" fill="none" xmlns="http://www.w3.org/2000/svg">
<g opacity="0.75">
<mask id="path-1-inside-1" fill="white">
<path d="M138.24 27.7503C138.026 26.0607 137.594 24.406 136.954 22.8277C136.872 22.5292 136.729 22.251 136.534 22.0108C136.339 21.7706 136.096 21.5737 135.821 21.4325C135.453 21.3368 135.067 21.3325 134.697 21.4199L128.926 22.3029C128.443 22.325 127.981 22.5047 127.61 22.8145C126.858 23.605 127.598 24.8778 127.575 25.9684C127.549 27.1947 126.46 28.19 125.278 28.5193C124.072 28.763 122.828 28.7476 121.628 28.4741L113.559 27.2201C115.935 26.4614 118.051 25.0497 119.663 23.1464C120.725 21.8884 121.29 19.5398 119.756 18.944C119.3 18.8189 118.824 18.7807 118.354 18.8315C114.698 18.8599 111.821 15.8074 108.398 14.5218C106.208 13.7521 103.83 13.6949 101.605 14.3582C99.3798 15.0215 97.4214 16.3714 96.0098 18.2149L100.309 18.4221C100.713 18.3998 101.114 18.5068 101.454 18.7275C102.396 19.5015 101.224 20.9882 101.357 22.2003C101.53 23.775 103.62 24.1112 105.196 24.2704C106.773 24.4296 108.772 25.7102 108.014 27.1011C100.092 29.8296 92.0312 21.7673 83.7118 22.7598C81.6062 23.011 79.618 23.8381 77.5622 24.3583C65.0043 27.5356 52.0216 19.0581 39.193 20.8535C36.341 21.3397 33.538 22.079 30.8172 23.0625C29.0712 23.6358 27.2501 24.2553 25.9814 25.5849C24.7128 26.9144 24.23 29.1882 25.4318 30.5784C22.1192 30.8512 18.7846 30.5342 15.5827 29.6422C16.4486 30.1235 17.1689 30.829 17.668 31.6847C18.1672 32.5404 18.4268 33.5146 18.4196 34.5052C13.2474 35.3486 8.21218 36.8839 3.44936 39.0698C4.33829 40.548 5.37655 41.9311 6.54784 43.1974L0 47.404C2.21217 47.9614 3.35592 50.9779 2.06946 52.8618C4.36323 51.8414 5.7848 49.2016 8.23761 48.6664C9.84452 48.3158 11.4796 48.9731 13.004 49.5907C14.5284 50.2082 16.2039 50.807 17.782 50.3435C19.36 49.8801 20.524 47.8338 19.5213 46.5301C26.2664 44.5621 33.2373 43.473 40.2613 43.2898C40.8032 43.2218 41.3527 43.3261 41.832 43.5879C42.7464 44.2223 42.5058 45.5924 42.4566 46.7042C42.4073 47.8159 43.2738 49.2771 44.2675 48.776C43.0984 49.7897 44.0978 51.698 45.2193 52.764C46.3409 53.83 47.6927 55.3009 47.0061 56.6875C46.8268 57.0494 46.5229 57.339 46.3505 57.7042C45.8415 58.7821 46.6496 60.0388 47.6028 60.7546C48.556 61.4704 49.7235 61.9707 50.3856 62.962C51.0477 63.9532 50.7471 65.6883 49.5631 65.8267L46.1978 61.5539C45.048 62.7461 44.2598 64.2398 43.9245 65.8619C47.4931 68.7791 48.0299 74.7169 45.0423 78.2268C43.5155 80.0205 41.3444 81.1104 39.4494 82.5095C37.5545 83.9085 35.8011 85.9007 35.8059 88.2562C35.8141 92.3255 35.4816 96.1061 37.0065 99.879C39.8184 106.836 43.0649 113.609 46.7267 120.158C47.6883 121.878 48.931 123.763 50.879 124.059C48.4171 118.066 46.2009 111.979 44.2304 105.799C45.5139 105.805 46.997 105.906 47.7494 106.946C48.3724 107.807 48.2386 108.978 48.4322 110.023C48.6784 111.035 49.089 112.001 49.6476 112.88L61.4039 133.822C62.3784 135.558 63.4963 137.421 65.359 138.124C66.5498 138.574 67.9276 138.489 69.0237 139.136C69.8828 139.643 70.4615 140.544 71.3374 141.021C73.8139 142.372 77.2577 139.781 79.5721 141.394C80.2339 141.856 80.6549 142.588 81.2646 143.116C83.4021 144.967 86.9086 143.729 89.3761 145.11C90.9664 146 91.7906 147.78 92.6388 149.393C94.7635 153.433 98.2014 157.391 102.755 157.713C104.185 157.814 105.646 157.543 107.044 157.861C108.443 158.179 109.819 159.399 109.594 160.815C109.21 163.243 110.409 165.902 110.087 168.339C109.5 172.778 103.204 174.729 102.663 179.174C102.544 180.147 102.73 181.152 102.498 182.104C102.214 183.272 101.337 184.223 101.026 185.383C100.435 187.582 102.011 189.771 103.742 191.251C105.473 192.73 107.537 194.006 108.484 196.077C109.484 198.267 108.993 200.819 109.318 203.204C110.028 208.41 114.525 212.27 119.153 214.758C120.563 215.517 122.077 216.251 122.989 217.566C124.18 219.283 124.062 221.546 124.459 223.598C125.434 228.621 129.663 232.761 129.783 237.877C129.868 241.513 127.847 244.812 126.64 248.243C125.507 251.531 125.098 255.023 125.439 258.483C125.779 261.943 126.862 265.289 128.614 268.293C129.517 269.818 130.597 271.256 131.236 272.909C132.376 275.86 132.006 279.214 133.058 282.198C134.448 286.142 138.267 289.4 137.902 293.566C139.635 297.167 143.464 298.936 147.315 300.008L154.215 301.929C155.536 302.296 156.917 302.667 158.262 302.401C159.608 302.134 160.892 301.017 160.857 299.646C157.473 298.883 153.981 298.072 151.191 296.01C148.402 293.948 146.491 290.276 147.549 286.972C148.04 285.44 149.084 283.672 148.092 282.406C147.523 281.681 146.484 281.492 145.843 280.831C144.843 279.799 145.187 278.067 145.905 276.823C146.624 275.58 147.663 274.468 147.953 273.061C148.099 272.274 148.002 271.461 147.673 270.731C147.344 270.001 146.8 269.39 146.113 268.978C147.393 268.495 148.556 267.748 149.529 266.786C150.427 265.761 150.842 264.179 150.135 263.013C152.233 263.279 154.711 263.41 156.088 261.805C157.188 260.523 157.112 258.607 156.678 256.975C156.243 255.343 155.508 253.758 155.486 252.069C160.326 252.298 165.177 252.134 169.99 251.577C169.294 249.233 167.712 247.252 165.58 246.054C167.76 245.685 169.746 243.075 170.435 240.974C171.124 238.873 170.948 236.585 170.522 234.415C170.359 233.857 170.336 233.266 170.457 232.697C170.703 231.914 171.471 231.437 172.182 231.029L183.003 224.814C183.649 224.491 184.234 224.059 184.733 223.537C185.867 222.205 185.699 220.195 185.119 218.545C184.538 216.895 183.608 215.344 183.385 213.61C182.716 208.422 188.269 204.7 190.143 199.817C190.879 197.9 191.029 195.817 191.171 193.77C191.324 191.57 191.335 189.016 189.646 187.599C188.028 186.24 185.498 186.543 183.805 185.279C182.252 184.121 181.716 181.871 180.019 180.935C178.479 180.085 176.547 180.625 174.833 180.226C171.816 179.522 169.918 176.045 166.837 175.723C165.098 175.541 163.13 176.391 161.706 175.379C160.45 174.486 160.4 172.693 160.161 171.172C159.742 168.807 158.608 166.628 156.913 164.927C155.218 163.226 153.042 162.085 150.678 161.659C148.886 161.371 146.935 161.481 145.41 160.496C143.866 159.498 143.158 157.631 141.945 156.249C139.99 154.023 136.911 153.232 134.027 152.554L122.296 149.796C120.214 149.307 117.529 149.047 116.412 150.871C116.081 151.566 115.847 152.302 115.716 153.061C115.297 154.432 114.454 155.635 113.309 156.497C112.163 157.36 110.774 157.836 109.34 157.859C108.357 156.182 106.764 154.95 104.894 154.419C103.705 154.088 102.431 154.051 101.297 153.563C100.679 153.262 100.129 152.837 99.681 152.316C99.2328 151.794 98.8958 151.187 98.6906 150.531C98.4853 149.874 98.4161 149.183 98.4872 148.499C98.5584 147.815 98.7683 147.153 99.1042 146.553C99.7805 145.349 100.042 143.956 99.8475 142.588C99.6532 141.221 99.0143 139.956 98.0293 138.987C96.0343 137.196 93.1485 136.764 90.4735 136.943C89.7728 135.414 90.9443 133.689 92.2066 132.578C93.469 131.467 95.0019 130.375 95.2768 128.716C95.7092 126.107 92.3795 124.125 89.8514 124.903C87.3232 125.681 85.7096 128.136 84.643 130.557C84.031 131.946 83.5107 133.408 82.5453 134.579C81.5799 135.75 80.0253 136.589 78.5549 136.213C76.4732 135.681 75.6692 133.208 75.2085 131.109C74.5903 128.293 73.9686 125.439 74.0981 122.559C74.2276 119.679 75.1985 116.722 77.3221 114.772C80.7825 111.595 86.0911 111.907 90.7614 112.414C89.658 111.171 89.9307 109.075 91.1112 107.905C91.7344 107.352 92.4833 106.958 93.2929 106.759C94.1024 106.56 94.9483 106.562 95.7571 106.764C97.1644 107.057 98.4322 107.815 99.3563 108.916C100.683 110.534 101.061 112.719 102.064 114.555C103.067 116.392 105.323 117.958 107.169 116.973C108.764 116.122 109.017 113.911 108.62 112.147C108.223 110.384 107.38 108.669 107.524 106.867C107.798 103.429 111.362 101.36 114.507 99.9437C117.652 98.5277 121.253 96.6235 121.751 93.2106C121.768 92.5424 121.895 91.8815 122.125 91.2539C122.473 90.6996 122.958 90.2438 123.533 89.9297C132.711 83.8638 142.043 77.7239 152.534 74.4094C153.079 74.237 153.143 74.4286 153.7 74.2935C154.478 73.8436 153.962 72.5989 153.216 72.0976C152.47 71.5962 151.472 71.2117 151.283 70.3327C151.143 69.6865 151.524 69.0521 151.623 68.3986C151.866 66.7927 149.945 65.31 148.453 65.952C147.61 64.836 149.278 63.5392 150.626 63.168C154.675 62.0538 158.831 61.3749 163.024 61.1428C163.507 61.0659 164.003 61.1502 164.434 61.3828C165.139 61.8706 165.049 62.9894 164.549 63.6857C164.05 64.3819 163.274 64.8191 162.652 65.4083C161.973 66.0702 161.488 66.9061 161.251 67.8246C161.014 68.7432 161.034 69.7092 161.309 70.6172C163.498 71.7306 165.877 72.8768 168.301 72.4845C170.726 72.0923 172.877 69.3684 171.738 67.1931C170.677 65.1673 167.489 64.7104 166.941 62.4901C166.3 59.8906 169.979 57.5787 169.15 55.0327C168.787 53.9175 167.676 53.2611 166.823 52.456C165.816 51.4688 165.131 50.2001 164.858 48.8164C164.585 47.4328 164.736 45.999 165.293 44.7032C163.904 44.9475 162.476 44.8552 161.13 44.434C159.784 44.0128 158.559 43.2749 157.557 42.2822C155.706 40.4148 154.23 37.4689 151.602 37.5524C149.191 37.6291 147.114 40.4423 144.86 39.584C144.305 39.3729 143.72 38.9431 143.183 39.1949C143.006 39.3093 142.859 39.4622 142.75 39.6421C142.642 39.8219 142.576 40.0241 142.557 40.2333C141.984 42.9727 142.97 46.0939 141.477 48.4611C139.852 51.0371 136.094 51.3942 134.124 53.7171C133.055 54.978 132.641 56.6771 131.658 58.0065C130.675 59.3359 128.589 60.1811 127.41 59.0226C127.99 57.831 128.148 56.478 127.859 55.1847C127.57 53.8915 126.851 52.7345 125.819 51.9028C124.724 51.1884 123.544 50.6143 122.306 50.1939C120.923 49.6083 119.607 48.8749 118.381 48.0064C117.767 47.636 117.268 47.1022 116.94 46.4646C116.681 45.6662 116.716 44.8013 117.039 44.0265C117.637 42.3119 118.692 40.7931 120.09 39.6343C121.488 38.4755 123.176 37.7205 124.972 37.451C126.542 37.2374 128.37 37.3127 129.409 36.1162C129.959 35.4831 130.248 34.5259 131.046 34.2688C131.556 34.1662 132.086 34.2315 132.557 34.4549L138.418 36.5179C139.072 36.8132 139.792 36.9322 140.506 36.8633C140.86 36.8156 141.183 36.6357 141.41 36.3598C141.637 36.0838 141.751 35.7323 141.73 35.3756C141.543 34.4022 140.045 33.9351 140.181 32.9533C140.258 32.6352 140.429 32.3476 140.672 32.1287C142.787 29.8773 145.374 28.1214 148.247 26.9868C151.121 25.8521 154.209 25.3668 157.292 25.5655C158.032 26.7805 156.862 28.2193 155.888 29.2565C154.915 30.2938 154.132 32.147 155.31 32.9454C155.792 33.1917 156.329 33.3126 156.87 33.2969C158.313 33.4922 159.716 33.9176 161.024 34.5568C163.05 35.4383 165.036 36.4027 166.984 37.4501C166.812 36.1659 166.648 34.813 167.134 33.6122C167.621 32.4115 169.005 31.4697 170.213 31.9373C171.377 32.388 171.975 33.9299 173.215 34.0712C174.87 34.2596 175.523 31.8147 174.832 30.2993C174.141 28.7838 172.772 27.5149 172.658 25.8532C172.581 24.7321 173.007 23.3417 172.112 22.6629C171.793 22.4591 171.431 22.3322 171.055 22.2924L148.696 18.1778C147.368 17.9335 145.449 18.1207 145.391 19.4695C145.358 20.2224 146.03 20.9672 145.732 21.6594C145.414 22.3982 144.37 22.3307 143.609 22.592C142.429 22.9974 141.837 24.3989 141.95 25.6417C142.158 26.8767 142.636 28.0503 143.351 29.0786C141.896 28.4704 139.694 28.3586 138.24 27.7503Z"/>
</mask>
<path d="M138.24 27.7503C138.026 26.0607 137.594 24.406 136.954 22.8277C136.872 22.5292 136.729 22.251 136.534 22.0108C136.339 21.7706 136.096 21.5737 135.821 21.4325C135.453 21.3368 135.067 21.3325 134.697 21.4199L128.926 22.3029C128.443 22.325 127.981 22.5047 127.61 22.8145C126.858 23.605 127.598 24.8778 127.575 25.9684C127.549 27.1947 126.46 28.19 125.278 28.5193C124.072 28.763 122.828 28.7476 121.628 28.4741L113.559 27.2201C115.935 26.4614 118.051 25.0497 119.663 23.1464C120.725 21.8884 121.29 19.5398 119.756 18.944C119.3 18.8189 118.824 18.7807 118.354 18.8315C114.698 18.8599 111.821 15.8074 108.398 14.5218C106.208 13.7521 103.83 13.6949 101.605 14.3582C99.3798 15.0215 97.4214 16.3714 96.0098 18.2149L100.309 18.4221C100.713 18.3998 101.114 18.5068 101.454 18.7275C102.396 19.5015 101.224 20.9882 101.357 22.2003C101.53 23.775 103.62 24.1112 105.196 24.2704C106.773 24.4296 108.772 25.7102 108.014 27.1011C100.092 29.8296 92.0312 21.7673 83.7118 22.7598C81.6062 23.011 79.618 23.8381 77.5622 24.3583C65.0043 27.5356 52.0216 19.0581 39.193 20.8535C36.341 21.3397 33.538 22.079 30.8172 23.0625C29.0712 23.6358 27.2501 24.2553 25.9814 25.5849C24.7128 26.9144 24.23 29.1882 25.4318 30.5784C22.1192 30.8512 18.7846 30.5342 15.5827 29.6422C16.4486 30.1235 17.1689 30.829 17.668 31.6847C18.1672 32.5404 18.4268 33.5146 18.4196 34.5052C13.2474 35.3486 8.21218 36.8839 3.44936 39.0698C4.33829 40.548 5.37655 41.9311 6.54784 43.1974L0 47.404C2.21217 47.9614 3.35592 50.9779 2.06946 52.8618C4.36323 51.8414 5.7848 49.2016 8.23761 48.6664C9.84452 48.3158 11.4796 48.9731 13.004 49.5907C14.5284 50.2082 16.2039 50.807 17.782 50.3435C19.36 49.8801 20.524 47.8338 19.5213 46.5301C26.2664 44.5621 33.2373 43.473 40.2613 43.2898C40.8032 43.2218 41.3527 43.3261 41.832 43.5879C42.7464 44.2223 42.5058 45.5924 42.4566 46.7042C42.4073 47.8159 43.2738 49.2771 44.2675 48.776C43.0984 49.7897 44.0978 51.698 45.2193 52.764C46.3409 53.83 47.6927 55.3009 47.0061 56.6875C46.8268 57.0494 46.5229 57.339 46.3505 57.7042C45.8415 58.7821 46.6496 60.0388 47.6028 60.7546C48.556 61.4704 49.7235 61.9707 50.3856 62.962C51.0477 63.9532 50.7471 65.6883 49.5631 65.8267L46.1978 61.5539C45.048 62.7461 44.2598 64.2398 43.9245 65.8619C47.4931 68.7791 48.0299 74.7169 45.0423 78.2268C43.5155 80.0205 41.3444 81.1104 39.4494 82.5095C37.5545 83.9085 35.8011 85.9007 35.8059 88.2562C35.8141 92.3255 35.4816 96.1061 37.0065 99.879C39.8184 106.836 43.0649 113.609 46.7267 120.158C47.6883 121.878 48.931 123.763 50.879 124.059C48.4171 118.066 46.2009 111.979 44.2304 105.799C45.5139 105.805 46.997 105.906 47.7494 106.946C48.3724 107.807 48.2386 108.978 48.4322 110.023C48.6784 111.035 49.089 112.001 49.6476 112.88L61.4039 133.822C62.3784 135.558 63.4963 137.421 65.359 138.124C66.5498 138.574 67.9276 138.489 69.0237 139.136C69.8828 139.643 70.4615 140.544 71.3374 141.021C73.8139 142.372 77.2577 139.781 79.5721 141.394C80.2339 141.856 80.6549 142.588 81.2646 143.116C83.4021 144.967 86.9086 143.729 89.3761 145.11C90.9664 146 91.7906 147.78 92.6388 149.393C94.7635 153.433 98.2014 157.391 102.755 157.713C104.185 157.814 105.646 157.543 107.044 157.861C108.443 158.179 109.819 159.399 109.594 160.815C109.21 163.243 110.409 165.902 110.087 168.339C109.5 172.778 103.204 174.729 102.663 179.174C102.544 180.147 102.73 181.152 102.498 182.104C102.214 183.272 101.337 184.223 101.026 185.383C100.435 187.582 102.011 189.771 103.742 191.251C105.473 192.73 107.537 194.006 108.484 196.077C109.484 198.267 108.993 200.819 109.318 203.204C110.028 208.41 114.525 212.27 119.153 214.758C120.563 215.517 122.077 216.251 122.989 217.566C124.18 219.283 124.062 221.546 124.459 223.598C125.434 228.621 129.663 232.761 129.783 237.877C129.868 241.513 127.847 244.812 126.64 248.243C125.507 251.531 125.098 255.023 125.439 258.483C125.779 261.943 126.862 265.289 128.614 268.293C129.517 269.818 130.597 271.256 131.236 272.909C132.376 275.86 132.006 279.214 133.058 282.198C134.448 286.142 138.267 289.4 137.902 293.566C139.635 297.167 143.464 298.936 147.315 300.008L154.215 301.929C155.536 302.296 156.917 302.667 158.262 302.401C159.608 302.134 160.892 301.017 160.857 299.646C157.473 298.883 153.981 298.072 151.191 296.01C148.402 293.948 146.491 290.276 147.549 286.972C148.04 285.44 149.084 283.672 148.092 282.406C147.523 281.681 146.484 281.492 145.843 280.831C144.843 279.799 145.187 278.067 145.905 276.823C146.624 275.58 147.663 274.468 147.953 273.061C148.099 272.274 148.002 271.461 147.673 270.731C147.344 270.001 146.8 269.39 146.113 268.978C147.393 268.495 148.556 267.748 149.529 266.786C150.427 265.761 150.842 264.179 150.135 263.013C152.233 263.279 154.711 263.41 156.088 261.805C157.188 260.523 157.112 258.607 156.678 256.975C156.243 255.343 155.508 253.758 155.486 252.069C160.326 252.298 165.177 252.134 169.99 251.577C169.294 249.233 167.712 247.252 165.58 246.054C167.76 245.685 169.746 243.075 170.435 240.974C171.124 238.873 170.948 236.585 170.522 234.415C170.359 233.857 170.336 233.266 170.457 232.697C170.703 231.914 171.471 231.437 172.182 231.029L183.003 224.814C183.649 224.491 184.234 224.059 184.733 223.537C185.867 222.205 185.699 220.195 185.119 218.545C184.538 216.895 183.608 215.344 183.385 213.61C182.716 208.422 188.269 204.7 190.143 199.817C190.879 197.9 191.029 195.817 191.171 193.77C191.324 191.57 191.335 189.016 189.646 187.599C188.028 186.24 185.498 186.543 183.805 185.279C182.252 184.121 181.716 181.871 180.019 180.935C178.479 180.085 176.547 180.625 174.833 180.226C171.816 179.522 169.918 176.045 166.837 175.723C165.098 175.541 163.13 176.391 161.706 175.379C160.45 174.486 160.4 172.693 160.161 171.172C159.742 168.807 158.608 166.628 156.913 164.927C155.218 163.226 153.042 162.085 150.678 161.659C148.886 161.371 146.935 161.481 145.41 160.496C143.866 159.498 143.158 157.631 141.945 156.249C139.99 154.023 136.911 153.232 134.027 152.554L122.296 149.796C120.214 149.307 117.529 149.047 116.412 150.871C116.081 151.566 115.847 152.302 115.716 153.061C115.297 154.432 114.454 155.635 113.309 156.497C112.163 157.36 110.774 157.836 109.34 157.859C108.357 156.182 106.764 154.95 104.894 154.419C103.705 154.088 102.431 154.051 101.297 153.563C100.679 153.262 100.129 152.837 99.681 152.316C99.2328 151.794 98.8958 151.187 98.6906 150.531C98.4853 149.874 98.4161 149.183 98.4872 148.499C98.5584 147.815 98.7683 147.153 99.1042 146.553C99.7805 145.349 100.042 143.956 99.8475 142.588C99.6532 141.221 99.0143 139.956 98.0293 138.987C96.0343 137.196 93.1485 136.764 90.4735 136.943C89.7728 135.414 90.9443 133.689 92.2066 132.578C93.469 131.467 95.0019 130.375 95.2768 128.716C95.7092 126.107 92.3795 124.125 89.8514 124.903C87.3232 125.681 85.7096 128.136 84.643 130.557C84.031 131.946 83.5107 133.408 82.5453 134.579C81.5799 135.75 80.0253 136.589 78.5549 136.213C76.4732 135.681 75.6692 133.208 75.2085 131.109C74.5903 128.293 73.9686 125.439 74.0981 122.559C74.2276 119.679 75.1985 116.722 77.3221 114.772C80.7825 111.595 86.0911 111.907 90.7614 112.414C89.658 111.171 89.9307 109.075 91.1112 107.905C91.7344 107.352 92.4833 106.958 93.2929 106.759C94.1024 106.56 94.9483 106.562 95.7571 106.764C97.1644 107.057 98.4322 107.815 99.3563 108.916C100.683 110.534 101.061 112.719 102.064 114.555C103.067 116.392 105.323 117.958 107.169 116.973C108.764 116.122 109.017 113.911 108.62 112.147C108.223 110.384 107.38 108.669 107.524 106.867C107.798 103.429 111.362 101.36 114.507 99.9437C117.652 98.5277 121.253 96.6235 121.751 93.2106C121.768 92.5424 121.895 91.8815 122.125 91.2539C122.473 90.6996 122.958 90.2438 123.533 89.9297C132.711 83.8638 142.043 77.7239 152.534 74.4094C153.079 74.237 153.143 74.4286 153.7 74.2935C154.478 73.8436 153.962 72.5989 153.216 72.0976C152.47 71.5962 151.472 71.2117 151.283 70.3327C151.143 69.6865 151.524 69.0521 151.623 68.3986C151.866 66.7927 149.945 65.31 148.453 65.952C147.61 64.836 149.278 63.5392 150.626 63.168C154.675 62.0538 158.831 61.3749 163.024 61.1428C163.507 61.0659 164.003 61.1502 164.434 61.3828C165.139 61.8706 165.049 62.9894 164.549 63.6857C164.05 64.3819 163.274 64.8191 162.652 65.4083C161.973 66.0702 161.488 66.9061 161.251 67.8246C161.014 68.7432 161.034 69.7092 161.309 70.6172C163.498 71.7306 165.877 72.8768 168.301 72.4845C170.726 72.0923 172.877 69.3684 171.738 67.1931C170.677 65.1673 167.489 64.7104 166.941 62.4901C166.3 59.8906 169.979 57.5787 169.15 55.0327C168.787 53.9175 167.676 53.2611 166.823 52.456C165.816 51.4688 165.131 50.2001 164.858 48.8164C164.585 47.4328 164.736 45.999 165.293 44.7032C163.904 44.9475 162.476 44.8552 161.13 44.434C159.784 44.0128 158.559 43.2749 157.557 42.2822C155.706 40.4148 154.23 37.4689 151.602 37.5524C149.191 37.6291 147.114 40.4423 144.86 39.584C144.305 39.3729 143.72 38.9431 143.183 39.1949C143.006 39.3093 142.859 39.4622 142.75 39.6421C142.642 39.8219 142.576 40.0241 142.557 40.2333C141.984 42.9727 142.97 46.0939 141.477 48.4611C139.852 51.0371 136.094 51.3942 134.124 53.7171C133.055 54.978 132.641 56.6771 131.658 58.0065C130.675 59.3359 128.589 60.1811 127.41 59.0226C127.99 57.831 128.148 56.478 127.859 55.1847C127.57 53.8915 126.851 52.7345 125.819 51.9028C124.724 51.1884 123.544 50.6143 122.306 50.1939C120.923 49.6083 119.607 48.8749 118.381 48.0064C117.767 47.636 117.268 47.1022 116.94 46.4646C116.681 45.6662 116.716 44.8013 117.039 44.0265C117.637 42.3119 118.692 40.7931 120.09 39.6343C121.488 38.4755 123.176 37.7205 124.972 37.451C126.542 37.2374 128.37 37.3127 129.409 36.1162C129.959 35.4831 130.248 34.5259 131.046 34.2688C131.556 34.1662 132.086 34.2315 132.557 34.4549L138.418 36.5179C139.072 36.8132 139.792 36.9322 140.506 36.8633C140.86 36.8156 141.183 36.6357 141.41 36.3598C141.637 36.0838 141.751 35.7323 141.73 35.3756C141.543 34.4022 140.045 33.9351 140.181 32.9533C140.258 32.6352 140.429 32.3476 140.672 32.1287C142.787 29.8773 145.374 28.1214 148.247 26.9868C151.121 25.8521 154.209 25.3668 157.292 25.5655C158.032 26.7805 156.862 28.2193 155.888 29.2565C154.915 30.2938 154.132 32.147 155.31 32.9454C155.792 33.1917 156.329 33.3126 156.87 33.2969C158.313 33.4922 159.716 33.9176 161.024 34.5568C163.05 35.4383 165.036 36.4027 166.984 37.4501C166.812 36.1659 166.648 34.813 167.134 33.6122C167.621 32.4115 169.005 31.4697 170.213 31.9373C171.377 32.388 171.975 33.9299 173.215 34.0712C174.87 34.2596 175.523 31.8147 174.832 30.2993C174.141 28.7838 172.772 27.5149 172.658 25.8532C172.581 24.7321 173.007 23.3417 172.112 22.6629C171.793 22.4591 171.431 22.3322 171.055 22.2924L148.696 18.1778C147.368 17.9335 145.449 18.1207 145.391 19.4695C145.358 20.2224 146.03 20.9672 145.732 21.6594C145.414 22.3982 144.37 22.3307 143.609 22.592C142.429 22.9974 141.837 24.3989 141.95 25.6417C142.158 26.8767 142.636 28.0503 143.351 29.0786C141.896 28.4704 139.694 28.3586 138.24 27.7503Z" fill="#F0F4F4" stroke="white" stroke-width="2" mask="url(#path-1-inside-1)"/>
<mask id="path-2-inside-2" fill="white">
<path d="M120.399 8.76971C118.989 8.3031 117.47 8.28136 116.047 8.70745C114.624 9.13354 113.367 9.98684 112.445 11.1517C112.077 11.6364 111.768 12.3047 112.076 12.8296C112.518 13.5821 113.644 13.2849 114.474 13.0157C115.694 12.5798 117.022 12.5481 118.262 12.9253C119.041 13.1929 119.739 13.6659 120.522 13.9234C120.903 14.0828 121.32 14.1355 121.729 14.0758C122.137 14.016 122.522 13.8462 122.842 13.5844C123.379 13.0364 123.413 12.1845 123.414 11.417C123.451 11.1602 123.431 10.8983 123.354 10.6505C123.277 10.4026 123.146 10.175 122.97 9.98436C122.656 9.80285 122.304 9.69869 121.942 9.68053C121.132 9.53059 120.4 9.10269 119.872 8.47063"/>
</mask>
<path d="M120.399 8.76971C118.989 8.3031 117.47 8.28136 116.047 8.70745C114.624 9.13354 113.367 9.98684 112.445 11.1517C112.077 11.6364 111.768 12.3047 112.076 12.8296C112.518 13.5821 113.644 13.2849 114.474 13.0157C115.694 12.5798 117.022 12.5481 118.262 12.9253C119.041 13.1929 119.739 13.6659 120.522 13.9234C120.903 14.0828 121.32 14.1355 121.729 14.0758C122.137 14.016 122.522 13.8462 122.842 13.5844C123.379 13.0364 123.413 12.1845 123.414 11.417C123.451 11.1602 123.431 10.8983 123.354 10.6505C123.277 10.4026 123.146 10.175 122.97 9.98436C122.656 9.80285 122.304 9.69869 121.942 9.68053C121.132 9.53059 120.4 9.10269 119.872 8.47063" fill="#F0F4F4"/>
<path d="M112.445 11.1517L111.661 10.5313L111.655 10.539L111.649 10.5468L112.445 11.1517ZM112.076 12.8296L111.214 13.3359L111.214 13.3359L112.076 12.8296ZM114.474 13.0157L114.783 13.9669L114.797 13.9623L114.811 13.9574L114.474 13.0157ZM118.262 12.9253L118.587 11.9795L118.57 11.9738L118.553 11.9686L118.262 12.9253ZM120.522 13.9234L120.907 13.0009L120.871 12.9858L120.834 12.9735L120.522 13.9234ZM122.842 13.5844L123.476 14.3579L123.518 14.3234L123.556 14.2845L122.842 13.5844ZM123.414 11.417L122.424 11.2734L122.414 11.3442L122.414 11.4158L123.414 11.417ZM122.97 9.98436L123.704 9.30609L123.602 9.19488L123.471 9.11903L122.97 9.98436ZM121.942 9.68053L121.76 10.6638L121.826 10.6759L121.892 10.6793L121.942 9.68053ZM120.713 7.82035C119.108 7.28929 117.379 7.26455 115.76 7.74949L116.334 9.66541C117.56 9.29817 118.869 9.3169 120.085 9.71907L120.713 7.82035ZM115.76 7.74949C114.141 8.23442 112.71 9.20557 111.661 10.5313L113.23 11.772C114.024 10.7681 115.107 10.0327 116.334 9.66541L115.76 7.74949ZM111.649 10.5468C111.421 10.8465 111.177 11.2456 111.046 11.6978C110.914 12.1573 110.877 12.7614 111.214 13.3359L112.939 12.3232C112.968 12.3728 112.931 12.3804 112.968 12.2533C113.007 12.119 113.101 11.9416 113.242 11.7565L111.649 10.5468ZM111.214 13.3359C111.702 14.168 112.553 14.3244 113.161 14.3053C113.758 14.2864 114.369 14.1012 114.783 13.9669L114.166 12.0644C113.75 12.1994 113.382 12.2973 113.098 12.3063C112.965 12.3105 112.908 12.2919 112.899 12.2881C112.897 12.2875 112.906 12.2913 112.919 12.3021C112.925 12.3071 112.93 12.3122 112.934 12.3168C112.937 12.3213 112.939 12.3238 112.939 12.3232L111.214 13.3359ZM114.811 13.9574C115.829 13.5937 116.937 13.5673 117.971 13.882L118.553 11.9686C117.108 11.5289 115.56 11.5658 114.138 12.074L114.811 13.9574ZM117.937 13.8711C118.253 13.9797 118.562 14.1332 118.945 14.3235C119.307 14.5033 119.739 14.7187 120.209 14.8734L120.834 12.9735C120.521 12.8707 120.214 12.7208 119.836 12.5328C119.479 12.3554 119.05 12.1385 118.587 11.9795L117.937 13.8711ZM120.136 14.846C120.684 15.0754 121.285 15.1512 121.873 15.0653L121.584 13.0863C121.355 13.1198 121.121 13.0902 120.907 13.0009L120.136 14.846ZM121.873 15.0653C122.462 14.9793 123.016 14.7348 123.476 14.3579L122.208 12.8108C122.029 12.9576 121.813 13.0528 121.584 13.0863L121.873 15.0653ZM123.556 14.2845C124.005 13.8261 124.211 13.2723 124.309 12.7797C124.406 12.2959 124.413 11.8029 124.414 11.4182L122.414 11.4158C122.413 11.7986 122.403 12.1152 122.348 12.3863C122.296 12.6485 122.216 12.7947 122.128 12.8843L123.556 14.2845ZM124.403 11.5606C124.462 11.1564 124.43 10.7443 124.309 10.3543L122.399 10.9466C122.431 11.0523 122.44 11.1639 122.424 11.2734L124.403 11.5606ZM124.309 10.3543C124.188 9.96428 123.981 9.60616 123.704 9.30609L122.235 10.6626C122.31 10.7439 122.366 10.8409 122.399 10.9466L124.309 10.3543ZM123.471 9.11903C123.02 8.85783 122.513 8.70793 121.993 8.68179L121.892 10.6793C122.095 10.6895 122.293 10.7479 122.468 10.8497L123.471 9.11903ZM122.124 8.69723C121.543 8.58967 121.018 8.28271 120.639 7.82929L119.104 9.11196C119.782 9.92267 120.721 10.4715 121.76 10.6638L122.124 8.69723Z" fill="white" mask="url(#path-2-inside-2)"/>
<mask id="path-4-inside-3" fill="white">
<path d="M128.461 6.52494C128.146 6.50776 127.831 6.57204 127.547 6.71161C127.264 6.85119 127.021 7.06135 126.842 7.3219C126.663 7.58245 126.555 7.88462 126.526 8.19936C126.498 8.51409 126.551 8.83081 126.681 9.11905C127.65 9.38332 128.662 9.44933 129.657 9.31313C130.154 9.23607 130.616 9.0138 130.987 8.67435C131.357 8.33489 131.618 7.89344 131.738 7.40562C130.566 7.61884 129.357 7.38792 128.347 6.75792"/>
</mask>
<path d="M128.461 6.52494C128.146 6.50776 127.831 6.57204 127.547 6.71161C127.264 6.85119 127.021 7.06135 126.842 7.3219C126.663 7.58245 126.555 7.88462 126.526 8.19936C126.498 8.51409 126.551 8.83081 126.681 9.11905C127.65 9.38332 128.662 9.44933 129.657 9.31313C130.154 9.23607 130.616 9.0138 130.987 8.67435C131.357 8.33489 131.618 7.89344 131.738 7.40562C130.566 7.61884 129.357 7.38792 128.347 6.75792" fill="#F0F4F4"/>
<path d="M126.681 9.11905L125.769 9.52891L125.962 9.95959L126.418 10.0838L126.681 9.11905ZM129.657 9.31313L129.793 10.3039L129.802 10.3027L129.811 10.3013L129.657 9.31313ZM131.738 7.40562L132.709 7.64403L133.077 6.14552L131.559 6.42178L131.738 7.40562ZM128.515 5.52642C128.029 5.49991 127.543 5.59909 127.106 5.81444L127.989 7.60879C128.119 7.54499 128.262 7.51561 128.407 7.52346L128.515 5.52642ZM127.106 5.81444C126.668 6.02979 126.294 6.35405 126.018 6.75607L127.667 7.88774C127.749 7.76865 127.86 7.67259 127.989 7.60879L127.106 5.81444ZM126.018 6.75607C125.742 7.15808 125.574 7.62431 125.53 8.10991L127.522 8.28881C127.535 8.14494 127.585 8.00683 127.667 7.88774L126.018 6.75607ZM125.53 8.10991C125.487 8.5955 125.569 9.08416 125.769 9.52891L127.593 8.70918C127.534 8.57745 127.509 8.43269 127.522 8.28881L125.53 8.10991ZM126.418 10.0838C127.517 10.3835 128.665 10.4583 129.793 10.3039L129.522 8.32237C128.66 8.44033 127.783 8.38316 126.944 8.15428L126.418 10.0838ZM129.811 10.3013C130.502 10.1939 131.147 9.88432 131.662 9.41144L130.311 7.93726C130.086 8.14329 129.805 8.2782 129.504 8.32497L129.811 10.3013ZM131.662 9.41144C132.178 8.93856 132.542 8.32359 132.709 7.64403L130.767 7.16721C130.694 7.46329 130.535 7.73123 130.311 7.93726L131.662 9.41144ZM131.559 6.42178C130.632 6.59048 129.675 6.40777 128.876 5.90931L127.818 7.60654C129.039 8.36807 130.501 8.64719 131.917 8.38946L131.559 6.42178Z" fill="white" mask="url(#path-4-inside-3)"/>
<path d="M149.044 5.38449C151.156 4.45548 153.358 3.74507 155.616 3.26497C156.206 3.1395 156.834 3.02135 157.443 3.00579C158.051 2.99023 158.6 3.07881 159.051 3.33297C159.44 3.55225 159.649 3.93033 159.875 4.44334C159.895 4.48785 159.915 4.53416 159.935 4.58168C160.025 4.78807 160.124 5.0174 160.238 5.22199C160.382 5.48082 160.574 5.74924 160.861 5.94725C162.143 6.83121 163.621 6.52917 164.928 5.97782C165.591 5.69796 166.25 5.33756 166.868 4.98655C167.006 4.90804 167.142 4.8303 167.275 4.75395C167.747 4.48363 168.189 4.23057 168.606 4.02157C174.479 1.10184 181.133 0.156412 187.58 1.31833C187.441 1.74825 187.08 2.0919 186.526 2.36955C185.802 2.73142 184.849 2.92164 183.988 2.99655L184.032 3.49467L183.988 2.99655C180.223 3.32432 176.477 3.85737 172.769 4.59333C172.165 4.66788 171.588 4.88993 171.089 5.24007L171.072 5.25197L171.056 5.26523C170.512 5.71868 170.281 6.35927 170.11 6.8905C170.086 6.96538 170.063 7.03819 170.041 7.10898C169.891 7.58316 169.769 7.96721 169.54 8.28178C169.188 8.76371 168.675 8.99673 167.995 9.08557C167.298 9.17666 166.495 9.10775 165.622 9.03284L165.622 9.03277L165.619 9.03258C164.777 8.96023 163.863 8.88176 163.048 9.00229C162.213 9.12601 161.422 9.46804 160.891 10.2765L160.874 10.3015L160.861 10.3283C160.599 10.855 160.369 11.397 160.171 11.9512C159.877 12.4427 159.469 12.8558 158.98 13.1546C158.478 13.4608 157.909 13.6374 157.323 13.6685C156.04 13.7215 154.757 13.5576 153.529 13.1838L153.516 13.1797L153.502 13.1764C153.15 13.0904 152.818 12.9943 152.548 12.8536C152.295 12.7216 152.134 12.5705 152.05 12.3891C151.954 12.0117 151.947 11.6167 152.03 11.2358L152.038 11.2005L152.04 11.1644C152.135 9.83169 151.799 8.50374 151.083 7.37628C150.563 6.55971 149.864 5.8796 149.044 5.38449Z" fill="#F0F4F4" stroke="white"/>
<path d="M180.662 6.98661L178.958 6.65919C180.045 6.22476 181.21 6.00882 182.428 5.86427C182.973 5.79956 183.538 5.74891 184.111 5.69753C185.291 5.59162 186.506 5.4826 187.659 5.24088C188.647 5.03363 189.44 4.63568 190.164 4.23403C190.303 4.15717 190.438 4.08089 190.571 4.00582C191.145 3.68142 191.678 3.3798 192.29 3.15244C193.162 2.82807 194.167 2.69897 195.237 2.6411C195.771 2.61226 196.311 2.60141 196.854 2.59071L196.872 2.59036C197.405 2.57984 197.942 2.56926 198.461 2.54083L229.114 0.860628C234.346 0.573801 239.559 0.290187 244.735 0.720121C246.243 0.84537 247.68 1.06226 248.718 1.90092C249.209 2.29739 249.57 2.90808 249.695 3.53451C249.82 4.1583 249.703 4.73964 249.33 5.14891C249.098 5.40315 248.787 5.5862 248.394 5.78731C248.338 5.81606 248.28 5.84543 248.22 5.87565C247.886 6.04402 247.499 6.23871 247.163 6.49819C246.02 7.38007 245.677 8.69684 245.707 10.0149C245.731 11.1249 246.019 12.2915 246.366 13.3309L235.041 15.4461L234.852 15.4815L234.735 15.6347C234.279 16.234 234.271 16.9448 234.446 17.5641C234.62 18.1796 234.985 18.7636 235.379 19.2131C235.517 19.3701 235.651 19.5154 235.781 19.6559C236.022 19.9174 236.248 20.1624 236.454 20.4358C236.756 20.8369 236.944 21.2164 236.974 21.6238C237.008 22.088 236.816 22.5408 236.451 22.9345C236.085 23.3302 235.568 23.6366 235.037 23.7878C234.484 23.945 233.901 23.9933 233.277 24.0076C233.052 24.0128 232.811 24.0132 232.563 24.0137C232.159 24.0145 231.738 24.0153 231.342 24.0367C228.972 24.1643 226.801 24.9997 224.73 26.0188C223.824 26.4645 222.929 26.9501 222.043 27.4302C221.917 27.4989 221.79 27.5676 221.664 27.636C220.65 28.1843 219.647 28.7186 218.631 29.186C215.967 30.4113 213.139 31.2 210.271 32C209.607 32.1853 208.94 32.3712 208.273 32.5633C207.306 32.8417 206.249 33.1875 205.322 33.7084C204.392 34.2313 203.56 34.9487 203.085 35.9847C202.634 36.9703 202.597 38.0958 202.564 39.0888C202.56 39.2169 202.556 39.3429 202.551 39.466C202.506 40.6022 202.397 41.5321 201.818 42.2411C201.381 42.7766 200.751 43.0831 199.99 43.2497C199.225 43.4174 198.371 43.4337 197.532 43.4215C196.375 43.4046 195.195 43.3592 194.116 43.1196C193.048 42.8824 192.115 42.4626 191.414 41.725C190.672 40.8037 190.137 39.7328 189.847 38.5855L189.842 38.5682L189.837 38.5512C189.302 36.9349 188.796 35.2344 188.637 33.5908C188.479 31.9519 188.671 30.4123 189.493 29.0877C189.826 28.5507 190.253 28.0717 190.721 27.5717C190.787 27.5018 190.853 27.4313 190.92 27.3601C191.323 26.9328 191.749 26.4811 192.12 25.9873C192.982 24.8392 193.647 23.0897 192.853 21.6205C192.703 21.3432 192.502 21.088 192.335 20.8744C192.299 20.8294 192.265 20.7862 192.234 20.745C192.036 20.4879 191.897 20.2794 191.828 20.0567C191.731 19.7439 191.767 19.4 191.879 18.9674C191.919 18.8104 191.966 18.6568 192.015 18.4924C192.035 18.428 192.055 18.3619 192.075 18.2933C192.145 18.0586 192.215 17.8045 192.26 17.5434C192.567 15.7711 191.659 14.2847 190.345 13.2619C189.034 12.2416 187.255 11.6215 185.606 11.552C184.456 11.5035 183.276 11.6014 182.138 11.6959C181.706 11.7318 181.281 11.7671 180.864 11.7938C179.442 11.8851 178.092 11.8815 176.812 11.5206C176.815 11.1246 176.884 10.731 177.016 10.3562C177.186 9.87691 177.456 9.43933 177.808 9.07262C178.16 8.70592 178.586 8.41853 179.058 8.22963C179.53 8.04072 180.037 7.95465 180.545 7.97714L180.662 6.98661Z" fill="#F0F4F4" stroke="white"/>
<path d="M233.687 32.2266L233.708 32.23L233.73 32.2315C235.858 32.3793 237.986 31.9451 239.886 30.9757C240.134 30.8635 240.363 30.7524 240.581 30.6467C241.119 30.3861 241.589 30.1586 242.102 30.0304C242.767 29.8643 243.474 29.8831 244.377 30.3707L244.613 29.9334L244.377 30.3707C245.091 30.7564 245.551 31.0972 245.827 31.3886C246.102 31.6786 246.16 31.8813 246.16 32.0062C246.159 32.1301 246.102 32.287 245.909 32.4856C245.715 32.6862 245.417 32.8913 245.028 33.0961C244.251 33.5052 243.221 33.8553 242.231 34.1658C242.024 34.2307 241.817 34.2943 241.614 34.3568C240.879 34.5827 240.197 34.7922 239.775 34.983L239.775 34.9831C239.232 35.229 238.72 35.5807 238.256 35.8997C238.122 35.9917 237.993 36.0811 237.867 36.1644C237.28 36.5533 236.75 36.8426 236.167 36.9195C235.678 36.9595 235.187 36.8688 234.745 36.6568C234.301 36.4438 233.921 36.1162 233.646 35.7077C233.078 34.8272 232.863 33.7648 233.044 32.7326L233.049 32.705L233.051 32.677C233.059 32.5473 233.105 32.4233 233.183 32.3205C233.335 32.2326 233.513 32.199 233.687 32.2266Z" fill="#F0F4F4" stroke="white"/>
<path d="M285.586 5.53825L285.603 5.53116L285.62 5.52279C286.909 4.87946 290.283 3.9977 293.588 3.67773C295.234 3.5184 296.825 3.50259 298.103 3.71216C299.411 3.92668 300.247 4.3531 300.591 4.94263C300.814 5.32532 300.88 5.65134 300.862 5.92936C300.844 6.21057 300.738 6.48182 300.558 6.74675C300.186 7.29145 299.538 7.74951 298.917 8.09815C298.516 8.32312 298.24 8.42452 298.04 8.47948C297.939 8.50741 297.851 8.52506 297.765 8.54114C297.752 8.54347 297.739 8.54589 297.725 8.5484C297.653 8.56167 297.566 8.57758 297.485 8.59843C297.251 8.6591 297.042 8.76641 296.826 8.99488C296.633 9.19772 296.435 9.49532 296.188 9.92221C295.975 10.2903 295.911 10.6597 295.887 10.9769C295.877 11.1067 295.873 11.2367 295.869 11.3511C295.869 11.3731 295.868 11.3946 295.867 11.4153C295.863 11.5507 295.858 11.6633 295.844 11.7666C295.818 11.964 295.768 12.0925 295.667 12.2008C295.56 12.3162 295.347 12.459 294.901 12.5809C294.044 12.7403 293.162 12.7104 292.317 12.4934L292.277 12.483L292.235 12.4795C291.994 12.459 291.763 12.3717 291.569 12.2277C291.439 12.0917 291.394 11.8813 291.415 11.4466C291.419 11.3781 291.425 11.2926 291.431 11.2005C291.442 11.0497 291.454 10.8812 291.458 10.7403C291.465 10.4879 291.454 10.2027 291.376 9.92001C291.157 9.13536 290.541 8.69454 289.899 8.4528C289.263 8.21284 288.529 8.13833 287.915 8.11999L285.116 8.03637L285.101 8.0359L285.085 8.03643C284.891 8.04285 284.699 8.01514 284.515 7.95469C284.328 7.83103 284.19 7.64376 284.129 7.42658C284.064 7.19799 284.089 6.95352 284.197 6.74246C284.515 6.19953 285.003 5.7763 285.586 5.53825Z" fill="#F0F4F4" stroke="white"/>
<path d="M329.793 5.82271C332.812 5.02934 335.935 4.61045 339.079 4.1909L339.012 3.6957L339.079 4.1909L340.704 3.97402C340.843 3.95548 341.005 3.93101 341.185 3.90398C341.983 3.78405 343.117 3.61367 343.993 3.68639C344.253 3.708 344.463 3.74991 344.62 3.80894C344.778 3.86828 344.847 3.93164 344.876 3.97458C344.908 4.02066 345.014 4.2466 344.597 4.91942C344.59 4.92459 344.58 4.93188 344.566 4.94122C344.514 4.97521 344.436 5.01788 344.33 5.06848C344.119 5.16944 343.844 5.28015 343.543 5.39692C343.458 5.42978 343.371 5.46321 343.283 5.49683C343.068 5.57961 342.849 5.66356 342.655 5.74307C342.391 5.85085 342.119 5.97047 341.937 6.09119C341.534 6.35993 341.234 6.73487 340.991 7.03938C340.953 7.08685 340.917 7.13261 340.881 7.17599C340.599 7.52217 340.356 7.77307 340.014 7.91268C339.436 8.14825 338.815 8.05365 338.074 7.78549C337.764 7.6733 337.454 7.53884 337.127 7.39698C337.063 7.3695 336.999 7.34175 336.934 7.31382C336.544 7.14544 336.129 6.973 335.709 6.84783L335.696 6.84384L335.682 6.8406C334.78 6.62627 333.861 6.49516 332.936 6.44893C331.87 6.33606 330.818 6.12626 329.793 5.82271Z" fill="#F0F4F4" stroke="white"/>
<path d="M340.801 17.88L340.801 17.8801C340.835 18.387 341.119 18.82 341.6 19.2131C342.085 19.6095 342.721 19.9245 343.352 20.1917L348.101 22.2023C348.145 21.9942 348.128 21.7561 348.053 21.4865C347.929 21.0418 347.66 20.5734 347.354 20.1633C347.339 20.1434 347.324 20.1235 347.309 20.1033C347.001 19.69 346.635 19.2012 346.384 18.6822C346.116 18.1305 345.947 17.4852 346.135 16.7987C346.35 16.0117 346.934 15.5176 347.566 15.2039C348.194 14.8925 348.924 14.7292 349.55 14.6239C349.879 14.5684 350.307 14.5212 350.769 14.4703C351.025 14.4421 351.292 14.4127 351.558 14.3801C352.327 14.2858 353.136 14.1608 353.854 13.9533C354.582 13.7432 355.158 13.4646 355.514 13.1011C355.84 12.7671 356.01 12.3343 355.88 11.6876L356.37 11.589L355.88 11.6876C355.719 10.8902 355.311 10.432 354.768 10.168C354.198 9.89053 353.438 9.81 352.58 9.88277C350.864 10.0283 348.974 10.7666 348.018 11.3012L340.801 17.88ZM340.801 17.88C340.776 17.4966 340.903 17.1172 341.149 16.7301C341.397 16.3399 341.746 15.9714 342.119 15.6212L340.801 17.88ZM342.119 15.6211C343.902 13.9459 345.883 12.4951 348.018 11.3012L342.119 15.6211Z" fill="#F0F4F4" stroke="white"/>
<path d="M355.433 228.366L355.426 228.374L355.419 228.383C354.4 229.622 353.02 230.511 351.47 230.926C349.954 231.246 348.271 230.75 347.456 229.56L347.043 229.842L347.456 229.56C346.724 228.491 346.735 226.988 347.202 225.637C347.729 224.111 348.569 222.704 349.452 221.248C349.481 221.2 349.51 221.152 349.539 221.104C350.386 219.708 351.263 218.262 351.854 216.682C352.096 216.038 352.291 215.427 352.474 214.85C352.483 214.822 352.492 214.794 352.501 214.766C352.675 214.217 352.838 213.702 353.025 213.2C353.413 212.156 353.895 211.186 354.743 210.202C355.016 209.884 355.357 209.385 355.717 208.835C355.922 208.52 356.143 208.174 356.368 207.822C356.536 207.558 356.707 207.29 356.874 207.031C357.27 206.418 357.657 205.837 358.001 205.379C358.174 205.15 358.329 204.959 358.465 204.814C358.608 204.662 358.702 204.589 358.749 204.564L358.512 204.128L358.749 204.564C359.525 204.142 359.973 204.214 360.251 204.39C360.575 204.596 360.848 205.051 361.034 205.739C361.402 207.097 361.322 208.941 361.152 209.836C361.152 209.836 361.152 209.836 361.152 209.836L359.539 218.305L359.537 218.315L359.536 218.325C359.203 220.539 358.611 222.707 357.772 224.783C357.18 226.09 356.391 227.298 355.433 228.366Z" fill="#F0F4F4" stroke="white"/>
<mask id="path-13-inside-4" fill="white">
<path d="M530.476 268.814C529.338 268.37 528.233 267.844 527.17 267.24C526.105 270.17 525.538 273.257 525.495 276.374L533.284 271.966C534.456 271.303 535.784 270.382 535.759 269.035C535.77 268.869 535.735 268.703 535.659 268.555C535.584 268.406 535.469 268.281 535.328 268.192C535.155 268.123 534.967 268.101 534.782 268.128C533.627 268.225 532.574 268.793 531.484 269.188C530.395 269.583 529.121 269.792 528.121 269.206"/>
</mask>
<path d="M530.476 268.814C529.338 268.37 528.233 267.844 527.17 267.24C526.105 270.17 525.538 273.257 525.495 276.374L533.284 271.966C534.456 271.303 535.784 270.382 535.759 269.035C535.77 268.869 535.735 268.703 535.659 268.555C535.584 268.406 535.469 268.281 535.328 268.192C535.155 268.123 534.967 268.101 534.782 268.128C533.627 268.225 532.574 268.793 531.484 269.188C530.395 269.583 529.121 269.792 528.121 269.206" fill="#F0F4F4"/>
<path d="M527.17 267.24L527.664 266.371L526.635 265.786L526.231 266.899L527.17 267.24ZM525.495 276.374L524.495 276.36L524.47 278.102L525.987 277.244L525.495 276.374ZM533.284 271.966L532.792 271.096L532.792 271.096L533.284 271.966ZM535.759 269.035L534.761 268.972L534.758 269.013L534.759 269.054L535.759 269.035ZM535.328 268.192L535.862 267.347L535.785 267.298L535.701 267.264L535.328 268.192ZM534.782 268.128L534.865 269.125L534.898 269.122L534.93 269.117L534.782 268.128ZM530.84 267.883C529.746 267.456 528.685 266.951 527.664 266.371L526.677 268.11C527.781 268.737 528.929 269.284 530.113 269.746L530.84 267.883ZM526.231 266.899C525.127 269.933 524.54 273.131 524.495 276.36L526.495 276.388C526.537 273.383 527.083 270.406 528.11 267.582L526.231 266.899ZM525.987 277.244L533.777 272.836L532.792 271.096L525.002 275.503L525.987 277.244ZM533.777 272.836C534.38 272.495 535.105 272.044 535.682 271.459C536.266 270.868 536.778 270.056 536.759 269.017L534.759 269.054C534.765 269.361 534.625 269.683 534.259 270.054C533.885 270.433 533.361 270.774 532.792 271.096L533.777 272.836ZM536.757 269.099C536.779 268.753 536.707 268.408 536.55 268.1L534.769 269.01C534.763 268.998 534.76 268.985 534.761 268.972L536.757 269.099ZM536.55 268.1C536.392 267.791 536.155 267.531 535.862 267.347L534.795 269.038C534.784 269.031 534.775 269.021 534.769 269.01L536.55 268.1ZM535.701 267.264C535.363 267.129 534.995 267.086 534.635 267.139L534.93 269.117C534.939 269.116 534.948 269.117 534.956 269.12L535.701 267.264ZM534.699 267.132C533.988 267.191 533.337 267.393 532.758 267.61C532.469 267.718 532.184 267.835 531.919 267.944C531.648 268.054 531.395 268.157 531.143 268.248L531.825 270.128C532.119 270.022 532.406 269.905 532.675 269.795C532.95 269.683 533.204 269.578 533.459 269.483C533.968 269.292 534.421 269.162 534.865 269.125L534.699 267.132ZM531.143 268.248C530.111 268.622 529.219 268.691 528.627 268.343L527.615 270.068C529.022 270.894 530.678 270.544 531.825 270.128L531.143 268.248Z" fill="white" mask="url(#path-13-inside-4)"/>
<path d="M571.7 271.914L571.711 271.91L571.722 271.907C572.175 271.76 572.714 271.48 573.263 271.175C573.498 271.044 573.733 270.91 573.971 270.775C574.312 270.58 574.658 270.382 575.016 270.188C575.614 269.864 576.192 269.581 576.713 269.402C577.246 269.219 577.652 269.17 577.935 269.235L578.048 268.748L577.935 269.235C578.373 269.337 578.659 269.519 578.84 269.725C579.02 269.93 579.121 270.187 579.142 270.484C579.184 271.089 578.884 271.854 578.245 272.488C577.618 273.032 576.899 273.461 576.122 273.754L576.108 273.76L576.095 273.766C573.801 274.792 571.414 275.883 569.418 277.548L569.404 277.56L569.391 277.572C568.618 278.317 567.775 278.986 566.875 279.572C565.359 280.4 563.513 280.396 561.606 280.354L561.582 280.353L561.558 280.355C560.95 280.401 560.342 280.267 559.81 279.971C559.641 279.841 559.508 279.623 559.465 279.398C559.429 279.213 559.46 279.076 559.525 278.984C561.297 278.388 563.178 277.739 564.757 276.564C565.427 276.064 566.036 275.473 566.616 274.91C566.76 274.771 566.902 274.633 567.042 274.499C567.763 273.811 568.466 273.198 569.287 272.778C570.067 272.427 570.874 272.138 571.7 271.914Z" fill="#F0F4F4" stroke="white"/>
<mask id="path-16-inside-5" fill="white">
<path d="M589.724 259.571C589.818 258.591 589.688 257.603 589.343 256.68C588.999 255.758 588.449 254.926 587.736 254.247C587.715 256.208 587.655 258.297 586.552 259.918C585.767 261.074 584.535 261.854 583.674 262.955C582.813 264.055 582.43 265.8 583.44 266.766C584.086 267.257 584.872 267.528 585.683 267.538C587.693 267.775 590.02 267.907 591.43 266.454C592.2 265.662 592.574 264.488 593.512 263.905C593.862 263.758 594.174 263.534 594.426 263.251C594.814 262.635 594.198 261.823 593.505 261.601C592.812 261.379 592.048 261.483 591.351 261.273C590.655 261.062 590.015 260.278 590.373 259.644"/>
</mask>
<path d="M589.724 259.571C589.818 258.591 589.688 257.603 589.343 256.68C588.999 255.758 588.449 254.926 587.736 254.247C587.715 256.208 587.655 258.297 586.552 259.918C585.767 261.074 584.535 261.854 583.674 262.955C582.813 264.055 582.43 265.8 583.44 266.766C584.086 267.257 584.872 267.528 585.683 267.538C587.693 267.775 590.02 267.907 591.43 266.454C592.2 265.662 592.574 264.488 593.512 263.905C593.862 263.758 594.174 263.534 594.426 263.251C594.814 262.635 594.198 261.823 593.505 261.601C592.812 261.379 592.048 261.483 591.351 261.273C590.655 261.062 590.015 260.278 590.373 259.644" fill="#F0F4F4"/>
<path d="M587.736 254.247L588.426 253.523L586.761 251.938L586.736 254.236L587.736 254.247ZM586.552 259.918L587.379 260.481L587.379 260.481L586.552 259.918ZM583.44 266.766L582.749 267.488L582.79 267.527L582.835 267.561L583.44 266.766ZM585.683 267.538L585.8 266.545L585.748 266.539L585.696 266.538L585.683 267.538ZM591.43 266.454L592.147 267.151L592.147 267.151L591.43 266.454ZM593.512 263.905L593.125 262.983L593.052 263.013L592.985 263.055L593.512 263.905ZM594.426 263.251L595.174 263.915L595.229 263.853L595.272 263.783L594.426 263.251ZM590.72 259.666C590.828 258.535 590.677 257.395 590.28 256.33L588.406 257.03C588.698 257.81 588.808 258.647 588.729 259.476L590.72 259.666ZM590.28 256.33C589.883 255.266 589.248 254.306 588.426 253.523L587.047 254.971C587.65 255.546 588.115 256.25 588.406 257.03L590.28 256.33ZM586.736 254.236C586.714 256.25 586.632 258.024 585.726 259.356L587.379 260.481C588.679 258.57 588.715 256.166 588.736 254.258L586.736 254.236ZM585.726 259.356C585.404 259.829 584.977 260.245 584.461 260.724C583.969 261.181 583.377 261.711 582.886 262.339L584.461 263.571C584.831 263.098 585.285 262.688 585.822 262.19C586.333 261.715 586.915 261.163 587.379 260.481L585.726 259.356ZM582.886 262.339C582.353 263.02 581.961 263.904 581.861 264.801C581.761 265.704 581.955 266.729 582.749 267.488L584.131 266.043C583.916 265.837 583.796 265.506 583.849 265.021C583.904 264.529 584.134 263.99 584.461 263.571L582.886 262.339ZM582.835 267.561C583.651 268.182 584.645 268.525 585.67 268.538L585.696 266.538C585.099 266.53 584.521 266.331 584.046 265.97L582.835 267.561ZM585.566 268.531C586.58 268.65 587.764 268.756 588.899 268.623C590.043 268.488 591.227 268.098 592.147 267.151L590.712 265.758C590.223 266.262 589.539 266.533 588.665 266.636C587.781 266.741 586.797 266.662 585.8 266.545L585.566 268.531ZM592.147 267.151C592.618 266.666 592.98 266.049 593.242 265.652C593.541 265.2 593.769 264.923 594.04 264.754L592.985 263.055C592.317 263.47 591.889 264.071 591.573 264.55C591.221 265.083 591.011 265.45 590.712 265.758L592.147 267.151ZM593.9 264.827C594.387 264.622 594.823 264.31 595.174 263.915L593.678 262.587C593.526 262.759 593.337 262.894 593.125 262.983L593.9 264.827ZM595.272 263.783C595.737 263.044 595.537 262.259 595.219 261.749C594.904 261.245 594.387 260.833 593.81 260.649L593.2 262.553C593.249 262.569 593.313 262.601 593.378 262.653C593.444 262.704 593.493 262.761 593.522 262.808C593.553 262.856 593.549 262.872 593.547 262.849C593.544 262.814 593.553 262.761 593.58 262.718L595.272 263.783ZM593.81 260.649C593.334 260.496 592.854 260.462 592.506 260.436C592.118 260.406 591.866 260.384 591.641 260.315L591.061 262.23C591.533 262.372 592.011 262.403 592.353 262.43C592.734 262.459 592.982 262.484 593.2 262.553L593.81 260.649ZM591.641 260.315C591.587 260.299 591.519 260.266 591.45 260.215C591.381 260.164 591.329 260.108 591.297 260.06C591.264 260.011 591.267 259.994 591.269 260.014C591.273 260.045 591.267 260.094 591.244 260.136L589.502 259.153C589.077 259.907 589.302 260.676 589.636 261.174C589.966 261.666 590.49 262.057 591.061 262.23L591.641 260.315Z" fill="white" mask="url(#path-16-inside-5)"/>
<path d="M558.37 197.429C559.345 198.785 560.631 199.876 562.112 200.617C561.683 200.627 561.239 200.56 560.79 200.43C559.839 200.155 558.898 199.604 558.105 198.958C557.702 198.629 557.311 198.275 556.913 197.91C556.847 197.848 556.78 197.787 556.712 197.725C556.382 197.42 556.045 197.11 555.702 196.812C554.874 196.095 553.971 195.418 552.9 194.989C551.498 194.427 550.03 194.372 548.595 194.468C547.882 194.515 547.165 194.601 546.465 194.685L546.451 194.687C545.741 194.772 545.048 194.855 544.364 194.9C542.253 195.039 540.063 194.645 538.943 193.138L538.943 193.138C538.667 192.768 538.464 192.341 538.275 191.866C538.205 191.691 538.132 191.495 538.057 191.293C537.943 190.987 537.823 190.666 537.699 190.378L537.699 190.376C536.743 188.169 535.024 186.381 532.857 185.339L532.856 185.339C532.201 185.027 531.519 184.791 530.867 184.565C530.849 184.559 530.831 184.553 530.814 184.547C530.136 184.312 529.492 184.087 528.883 183.79C527.921 183.32 527.079 182.63 526.663 181.786C528.39 182.013 530.12 181.929 531.821 181.787C532.275 181.749 532.726 181.708 533.174 181.666C534.692 181.525 536.179 181.387 537.668 181.415C541.878 181.505 545.95 182.928 549.3 185.479C549.535 185.659 549.778 185.853 550.027 186.052C550.505 186.434 551.003 186.832 551.505 187.177C552.286 187.713 553.149 188.175 554.141 188.357L554.156 188.36L554.171 188.362C555.303 188.499 556.451 188.432 557.559 188.165C557.869 188.107 558.282 187.998 558.725 187.881C558.891 187.837 559.061 187.792 559.231 187.748C559.889 187.58 560.594 187.416 561.248 187.342C561.916 187.267 562.46 187.294 562.831 187.448C563.007 187.521 563.134 187.618 563.224 187.74C563.313 187.862 563.387 188.037 563.411 188.3C563.468 188.929 563.253 189.379 562.868 189.73C562.461 190.102 561.847 190.376 561.111 190.563C559.643 190.936 557.891 190.913 556.985 190.83L556.445 190.78L556.439 191.322C556.415 193.512 557.092 195.651 558.37 197.429Z" fill="#F0F4F4" stroke="white"/>
<path d="M527.631 203.437L527.652 203.438L527.672 203.437C528.289 203.42 528.9 203.327 529.475 203.239C529.531 203.23 529.587 203.222 529.642 203.213C530.278 203.117 530.873 203.036 531.465 203.05C532.037 203.063 532.63 203.205 533.113 203.469C533.594 203.731 533.939 204.097 534.086 204.555C534.303 205.231 534.082 205.911 533.66 206.754C533.582 206.911 533.489 207.087 533.393 207.27C533.257 207.528 533.114 207.8 532.995 208.048C532.779 208.499 532.582 208.988 532.487 209.507C532.064 211.829 533.24 213.654 534.893 214.403C536.55 215.155 538.658 214.81 540.014 212.909C540.467 212.274 540.845 211.2 541.201 210.025C541.378 209.441 541.554 208.812 541.735 208.17L541.749 208.119C541.935 207.457 542.125 206.782 542.325 206.119C542.728 204.787 543.164 203.535 543.672 202.574C544.194 201.587 544.724 201.039 545.25 200.902C545.54 200.825 545.851 200.925 546.151 201.215C546.455 201.508 546.688 201.946 546.776 202.373C546.854 202.75 546.877 203.134 546.903 203.556C546.909 203.666 546.916 203.778 546.924 203.894C546.961 204.432 547.023 205.024 547.253 205.593C547.619 206.5 548.314 207.138 548.981 207.683C549.128 207.803 549.272 207.918 549.413 208.03C549.943 208.451 550.427 208.836 550.811 209.311C551.739 210.456 551.94 211.901 551.944 213.559C551.945 214.058 551.93 214.549 551.914 215.052C551.903 215.397 551.892 215.748 551.886 216.11C551.872 216.976 551.89 217.861 552.028 218.721C552.39 220.963 553.548 222.863 554.805 224.647C555.107 225.077 555.415 225.499 555.72 225.918C556.7 227.263 557.654 228.574 558.356 230.011C561.417 236.282 558.406 244.822 552.089 247.786C551.902 247.874 551.704 247.964 551.501 248.056C550.71 248.416 549.828 248.817 549.093 249.314C548.156 249.948 547.347 250.809 547.228 252.071C547.18 252.579 547.262 253.071 547.38 253.526C547.465 253.851 547.576 254.183 547.68 254.493C547.719 254.608 547.757 254.721 547.792 254.829C548.067 255.678 548.186 256.308 547.899 256.866C547.579 257.485 546.948 257.72 545.978 257.831C545.673 257.866 545.369 257.886 545.05 257.907C544.858 257.919 544.66 257.932 544.453 257.949C543.925 257.992 543.371 258.059 542.854 258.218C541.937 258.5 541.21 259.058 540.593 259.711C540.018 260.318 539.516 261.032 539.04 261.708C539.01 261.751 538.979 261.795 538.948 261.838C537.904 263.32 536.98 264.538 535.552 264.83C534.221 265.102 532.962 264.458 531.503 263.637C531.433 263.597 531.363 263.557 531.292 263.517C529.958 262.763 528.448 261.909 526.784 262.043C526.525 262.063 526.27 262.107 526.034 262.15C525.984 262.159 525.936 262.169 525.888 262.177C525.702 262.212 525.528 262.245 525.355 262.269C524.921 262.329 524.582 262.321 524.289 262.189C523.936 262.029 523.692 261.713 523.507 261.242C523.332 260.799 523.234 260.287 523.132 259.756C523.125 259.716 523.117 259.676 523.109 259.635C522.814 257.731 521.93 255.968 520.58 254.593L520.58 254.593L520.574 254.587C519.863 253.885 518.975 253.39 518.004 253.154C517.223 252.964 516.412 252.947 515.629 253.103C515.208 250.978 513.451 249.284 511.499 248.511C509.371 247.668 507.026 247.736 504.861 248.033L504.861 248.033C500.552 248.628 496.416 250.121 492.72 252.415L492.707 252.424L492.694 252.433C491.787 253.078 490.801 253.604 489.76 253.998C488.388 254.415 486.893 254.243 485.328 254.043L477.789 253.081C480.267 246.365 482.134 239.438 483.368 232.386L483.368 232.386C483.598 231.07 483.833 229.736 484.258 228.524C484.681 227.317 485.281 226.268 486.214 225.506C486.919 224.929 487.764 224.564 488.695 224.286C489.35 224.09 490.017 223.946 490.701 223.798C491.004 223.732 491.311 223.666 491.62 223.594L491.621 223.594C497.299 222.266 502.446 219.264 506.397 214.977L506.398 214.976C506.879 214.452 507.335 213.922 507.788 213.396C508.51 212.558 509.221 211.732 510.001 210.965C511.246 209.741 512.575 208.77 514.174 208.349C514.781 208.19 515.406 208.117 516.072 208.039C516.19 208.025 516.311 208.011 516.432 207.997C517.216 207.902 518.045 207.78 518.838 207.467C519.974 207.017 520.935 206.21 521.815 205.47C521.935 205.37 522.053 205.271 522.17 205.174C523.175 204.34 524.104 203.659 525.219 203.47C526.021 203.405 526.827 203.394 527.631 203.437Z" fill="#F0F4F4" stroke="white"/>
<path d="M501.093 194.18L501.093 194.18L501.103 194.182C504.151 194.702 507.173 195.356 510.163 196.14C507.784 196.092 505.404 195.764 503.007 195.333C501.751 195.108 500.483 194.852 499.207 194.595C496.995 194.149 494.762 193.699 492.541 193.395C486.508 192.569 480.395 192.791 474.366 193.026C474.261 192.846 474.242 192.599 474.339 192.307C474.466 191.927 474.761 191.59 475.097 191.45C475.885 191.12 476.823 191.335 477.869 191.628C479.872 192.19 481.64 192.198 483.372 192.114C483.743 192.096 484.11 192.074 484.477 192.052C485.835 191.97 487.188 191.889 488.695 192.013C490.549 192.199 492.392 192.484 494.216 192.866L494.216 192.866L494.225 192.868L501.093 194.18Z" fill="#F0F4F4" stroke="white"/>
<path d="M479.873 175.756L479.855 175.734L479.836 175.714C479.384 175.259 479.038 174.709 478.824 174.104C478.748 173.867 478.75 173.612 478.83 173.377C478.908 173.148 479.056 172.949 479.252 172.809C479.421 172.724 479.629 172.697 479.907 172.716C480.101 172.73 480.273 172.759 480.467 172.79C480.593 172.811 480.727 172.833 480.882 172.854C481.269 172.905 481.725 172.886 482.13 172.745C482.539 172.602 482.956 172.308 483.108 171.782L482.631 171.644L483.108 171.782C483.197 171.474 483.162 171.145 483.139 170.936C483.136 170.908 483.133 170.882 483.131 170.859C483.107 170.604 483.123 170.518 483.155 170.465C483.179 170.424 483.234 170.371 483.412 170.343C483.597 170.314 483.824 170.327 484.084 170.348C486.546 170.554 488.137 169.823 489.427 168.649C490.056 168.076 490.608 167.403 491.149 166.713C491.265 166.565 491.38 166.416 491.496 166.267C491.926 165.713 492.36 165.154 492.846 164.601L492.471 164.271L492.846 164.601C493.427 163.941 494.06 163.388 494.705 163.132C495.312 162.891 495.942 162.903 496.625 163.408C497.409 163.987 497.582 164.77 497.514 165.74C497.479 166.232 497.383 166.745 497.282 167.282L497.278 167.301C497.181 167.819 497.078 168.365 497.047 168.881C497.02 169.326 497.038 169.775 497.064 170.205C497.071 170.327 497.079 170.446 497.086 170.563C497.106 170.87 497.126 171.164 497.133 171.459C497.152 172.27 497.074 172.957 496.715 173.536C496.536 173.826 496.284 174.09 495.98 174.356C495.782 174.528 495.586 174.684 495.379 174.846C495.255 174.945 495.126 175.046 494.992 175.155C494.335 175.693 493.609 176.372 493.497 177.41C493.434 177.993 493.593 178.525 493.805 178.989C493.958 179.326 494.159 179.665 494.339 179.969C494.399 180.07 494.457 180.168 494.51 180.26C494.723 180.63 494.892 181.036 494.952 181.412C495.011 181.777 494.962 182.072 494.802 182.299C494.557 182.572 494.247 182.78 493.902 182.905L493.882 182.912L493.864 182.92L491.465 184.016C491.129 184.17 490.8 184.301 490.494 184.355C490.208 184.405 489.99 184.379 489.818 184.28C489.528 184.03 489.298 183.716 489.147 183.363L489.134 183.334L489.118 183.306C488.389 182.066 487.253 181.262 486.094 180.589C485.703 180.362 485.317 180.153 484.937 179.947C484.156 179.525 483.406 179.119 482.719 178.612C481.666 177.77 480.711 176.812 479.873 175.756Z" fill="#F0F4F4" stroke="white"/>
<path d="M505.349 143.211C505.288 143.899 505.284 144.625 505.403 145.3C505.58 146.304 506.046 147.274 507.077 147.778C507.294 147.884 507.525 147.963 507.731 148.031C507.771 148.044 507.81 148.057 507.847 148.069C508.016 148.124 508.165 148.173 508.307 148.23C508.639 148.363 508.791 148.489 508.857 148.649C508.91 148.94 508.878 149.242 508.763 149.516L508.752 149.544L508.744 149.573C508.303 151.136 508.248 152.783 508.583 154.372C508.683 154.967 508.916 155.532 509.265 156.024L509.272 156.034L509.28 156.044C509.638 156.501 510.114 156.799 510.531 157.044C510.593 157.081 510.654 157.116 510.713 157.151C511.073 157.36 511.381 157.539 511.641 157.774C512.078 158.2 512.333 158.779 512.351 159.39C512.369 159.995 512.153 160.583 511.748 161.033C511.531 161.225 511.277 161.372 511.002 161.464C510.72 161.558 510.421 161.593 510.124 161.565C509.828 161.538 509.54 161.45 509.28 161.306C509.024 161.164 508.8 160.971 508.621 160.74C508.15 160.023 508.188 159.142 508.332 158.036C508.346 157.922 508.362 157.805 508.379 157.687C508.512 156.716 508.666 155.594 508.334 154.565C507.986 153.486 507.194 152.722 506.44 152.062C506.315 151.952 506.191 151.845 506.069 151.74C505.425 151.187 504.839 150.683 504.427 150.053L504.009 150.327L504.427 150.053C503.957 149.335 503.738 148.484 503.511 147.532C503.5 147.489 503.49 147.446 503.48 147.402C503.269 146.514 503.037 145.54 502.533 144.678C502.068 143.883 501.406 143.243 500.802 142.659C500.772 142.629 500.742 142.6 500.712 142.571C500.065 141.944 499.493 141.371 499.126 140.669C498.694 139.841 498.631 138.801 498.907 137.853C499.1 137.189 499.451 136.597 499.926 136.166C499.927 136.293 499.926 136.425 499.924 136.563C499.922 136.695 499.919 136.831 499.916 136.972C499.909 137.331 499.902 137.711 499.907 138.085C499.919 139.103 500.015 140.245 500.556 141.066C500.664 141.23 500.844 141.382 501.013 141.507C501.195 141.642 501.42 141.786 501.668 141.928C502.164 142.213 502.778 142.509 503.385 142.745C503.983 142.976 504.612 143.164 505.127 143.203C505.199 143.209 505.273 143.212 505.349 143.211Z" fill="#F0F4F4" stroke="white"/>
<path d="M452.097 164.173L452.097 164.173C452.437 164.002 452.828 164.041 453.284 164.278C453.744 164.518 454.199 164.927 454.581 165.354C455.086 165.92 455.611 166.59 456.168 167.31C456.219 167.376 456.271 167.443 456.322 167.51C456.83 168.167 457.363 168.857 457.92 169.519C459.139 170.97 460.525 172.36 462.122 173.045C462.55 173.229 462.914 173.32 463.245 173.347C463.578 173.375 463.854 173.337 464.094 173.29C464.167 173.276 464.236 173.262 464.302 173.248C464.664 173.173 464.941 173.115 465.39 173.211C466.015 173.345 466.511 173.771 467.038 174.291C467.09 174.342 467.143 174.395 467.197 174.449C467.348 174.599 467.504 174.755 467.661 174.899C467.558 174.972 467.462 175.054 467.377 175.142C466.979 175.548 466.714 176.135 466.719 176.731L466.719 176.756L466.722 176.781C466.832 177.792 467.281 178.735 467.995 179.458C468.702 180.307 469.461 181.103 470.22 181.879C470.393 182.056 470.566 182.232 470.739 182.407C471.331 183.01 471.917 183.606 472.484 184.222C472.787 184.552 473.068 184.889 473.261 185.237C473.453 185.582 473.541 185.907 473.505 186.225C473.462 186.595 473.229 186.929 472.857 187.171C472.489 187.411 472.021 187.532 471.589 187.497C470.6 187.321 469.694 186.829 469.009 186.093L468.997 186.08L468.984 186.068C467.139 184.35 465.756 182.224 464.381 180.004C464.256 179.803 464.131 179.6 464.006 179.397C462.763 177.384 461.489 175.32 459.867 173.538L459.497 173.874L459.867 173.538C458.417 171.944 456.706 170.598 455.033 169.283C454.416 168.799 453.805 168.318 453.214 167.83L453.199 167.818L453.184 167.807C452.507 167.331 451.964 166.687 451.61 165.939C451.492 165.611 451.475 165.227 451.565 164.892C451.656 164.552 451.843 164.301 452.097 164.173Z" fill="#F0F4F4" stroke="white"/>
<path d="M524.454 78.1716L524.479 78.1791L524.505 78.1839C524.96 78.2681 525.381 78.2225 525.741 78.1515C525.918 78.1167 526.086 78.0744 526.236 78.0368L526.243 78.035C526.399 77.9958 526.531 77.9629 526.654 77.94C526.907 77.8927 527.035 77.9063 527.118 77.9444C527.188 77.9766 527.315 78.0695 527.453 78.4098C527.578 78.7213 527.509 79.189 527.232 79.7099C526.96 80.2186 526.557 80.6489 526.23 80.8462C524.905 81.6464 523.197 81.4945 521.431 81.2689L520.45 81.1436L520.931 82.0079C523.188 86.0671 524.648 90.5208 525.231 95.1287C525.35 96.0766 525.359 96.9076 524.928 97.4602C524.552 97.8547 524.07 98.1319 523.539 98.2581L523.521 98.2623L523.504 98.2678C521.947 98.7605 520.316 98.9776 518.684 98.9094C518.189 98.8885 517.561 98.8844 517.005 99.026C516.443 99.1689 515.853 99.491 515.628 100.191C515.509 100.56 515.54 100.967 515.562 101.249C515.565 101.293 515.568 101.333 515.57 101.37C515.592 101.711 515.566 101.857 515.491 101.956L515.491 101.956C515.445 102.016 515.365 102.075 515.203 102.144C515.132 102.174 515.058 102.201 514.971 102.233C514.958 102.238 514.945 102.242 514.931 102.247C514.832 102.284 514.716 102.327 514.602 102.38C513.358 102.96 513.036 104.211 512.856 105.329C512.814 105.592 512.78 105.837 512.748 106.077C512.705 106.397 512.663 106.707 512.602 107.038C512.501 107.587 512.365 108.074 512.14 108.482C512.021 108.698 511.831 108.896 511.635 109.006C511.461 109.104 511.332 109.11 511.237 109.073C511.122 108.985 511.03 108.871 510.967 108.74C510.899 108.597 510.868 108.438 510.877 108.28L510.879 108.251L510.877 108.222C510.855 107.827 510.879 107.413 510.915 106.974C510.926 106.85 510.937 106.723 510.949 106.595C510.978 106.277 511.008 105.948 511.023 105.629C511.067 104.728 511.006 103.754 510.426 102.902C510.3 102.716 510.153 102.542 510.021 102.388C510.006 102.371 509.992 102.354 509.978 102.338C509.858 102.198 509.752 102.074 509.658 101.948C509.455 101.674 509.382 101.481 509.4 101.299C509.457 101.066 509.573 100.851 509.738 100.676L509.751 100.661L509.764 100.645C511.845 98.0374 514.41 95.8565 517.318 94.2227C518.112 93.8546 518.827 93.3382 519.427 92.7012L519.45 92.6761L519.47 92.6481C519.907 92.0335 520.216 91.3378 520.381 90.602C520.99 88.405 521.349 85.76 520.086 83.627C519.792 83.1324 519.402 82.6584 519.044 82.2247C518.901 82.0515 518.764 81.8849 518.64 81.7258C518.179 81.1336 517.849 80.5885 517.769 79.9698C517.655 79.0837 518.154 78.2764 519.013 77.7369C519.868 77.2006 520.986 76.9969 521.924 77.2696C522.751 77.6152 523.595 77.9163 524.454 78.1716Z" fill="#F0F4F4" stroke="white"/>
<path d="M302.752 103.984C308.009 104.788 313.696 105.547 319.028 105.256C319.268 105.243 319.506 105.228 319.742 105.214C321.455 105.108 323.07 105.008 324.545 105.564C326.008 106.114 327.109 107.221 327.965 108.623C328.708 109.839 329.252 111.256 329.679 112.672L327.65 112.604L327.074 112.585L327.136 113.158C327.202 113.764 327.461 114.333 327.874 114.781C333.315 121.977 338.06 129.674 342.045 137.768C342.414 138.517 342.891 139.304 343.367 140.087L343.423 140.18C343.922 141.002 344.417 141.823 344.815 142.638C345.622 144.29 345.948 145.751 345.262 146.994C344.874 147.697 344.96 148.481 345.27 149.124C345.579 149.763 346.132 150.319 346.789 150.616C348.031 151.178 349.435 151.008 350.6 150.861L360.177 149.653L360.204 149.65L360.231 149.643C360.815 149.503 361.428 149.564 361.972 149.815C362.323 150.051 362.502 150.45 362.533 151.002C362.566 151.57 362.433 152.226 362.236 152.814C360.303 158.601 356.551 163.599 352.762 168.647C352.36 169.184 351.956 169.721 351.555 170.259C347.401 175.833 343.441 181.566 342.331 188.463L342.329 188.471L342.328 188.48C342.028 190.869 341.85 193.272 341.796 195.68C341.578 199.586 341.007 203.465 340.09 207.269L340.087 207.277L340.086 207.286C339.771 208.838 339.22 210.332 338.453 211.716C337.633 213.065 336.463 214.179 335.245 215.34C335.027 215.548 334.806 215.758 334.587 215.97C333.166 217.345 331.767 218.84 331.134 220.825C330.782 221.928 330.693 223.103 330.694 224.262C330.695 224.955 330.73 225.677 330.764 226.379C330.786 226.83 330.807 227.272 330.819 227.692C330.882 229.931 330.684 231.791 329.248 233.059C328.459 233.754 327.416 234.119 326.275 234.517C326.1 234.578 325.923 234.64 325.744 234.704C324.458 235.165 323.08 235.741 322.298 237.06C321.635 238.18 321.647 239.433 321.743 240.592C321.764 240.854 321.79 241.109 321.815 241.36C321.905 242.268 321.989 243.111 321.86 243.926C321.463 246.432 319.079 248.198 316.568 249.444C311.277 252.062 305.441 253.391 299.539 253.321L299.521 253.32L299.503 253.321C298.604 253.374 297.706 253.196 296.894 252.804C296.051 252.304 295.59 251.45 295.285 250.362C295.132 249.816 295.024 249.229 294.923 248.623C294.9 248.483 294.877 248.342 294.854 248.2C294.778 247.733 294.701 247.259 294.607 246.807C294.066 244.192 292.712 241.879 291.4 239.65L291.369 239.596C290.053 237.36 288.785 235.205 288.245 232.803C287.783 230.748 287.887 228.589 287.994 226.376C288.021 225.825 288.047 225.271 288.065 224.715C288.152 222.064 288.039 219.381 286.602 217.034C288.404 213.576 290.278 209.811 290.212 205.761C290.156 202.405 288.775 199.275 287.448 196.266C287.382 196.116 287.316 195.966 287.25 195.817C285.848 192.629 284.579 189.565 284.796 186.311C284.853 185.455 285.014 184.606 285.189 183.726C285.2 183.67 285.211 183.614 285.222 183.558C285.385 182.739 285.553 181.891 285.636 181.03L285.636 181.028C285.907 178.079 285.168 175.125 283.539 172.652L283.538 172.65C282.474 171.046 280.688 169.429 278.54 169.599C278.205 169.625 277.868 169.698 277.572 169.762C277.505 169.776 277.441 169.79 277.378 169.803C277.02 169.878 276.715 169.925 276.421 169.901C275.749 169.846 275.202 169.453 274.652 168.834C274.377 168.526 274.117 168.179 273.846 167.814L273.793 167.743C273.543 167.405 273.281 167.051 273.005 166.729C271.727 165.238 270.018 164.379 268.194 163.855C266.374 163.331 264.404 163.131 262.576 162.981L241.802 161.281L241.778 161.279L241.754 161.279C241.288 161.286 240.831 161.158 240.437 160.909C240.193 160.702 240.059 160.391 239.999 159.959C239.945 159.565 239.96 159.137 239.976 158.683C239.979 158.614 239.981 158.543 239.983 158.472L239.984 158.47C240.058 155.826 239.217 153.238 237.603 151.142L237.602 151.141C236.991 150.353 236.269 149.639 235.577 148.955C235.384 148.765 235.195 148.577 235.01 148.391C234.144 147.516 233.371 146.65 232.856 145.621C232.029 143.967 231.941 142.033 231.873 140.039L231.351 124.681C231.307 123.402 231.29 122.213 231.773 121.208C232.32 120.271 233.081 119.475 233.994 118.887L234.008 118.878L234.022 118.867C234.454 118.545 234.895 118.224 235.339 117.9C237.482 116.341 239.704 114.724 241.368 112.578C242.33 111.338 243.069 109.972 243.736 108.592C244.008 108.032 244.263 107.478 244.517 106.928C244.898 106.104 245.273 105.29 245.69 104.48C247.061 101.813 248.932 99.3168 251.595 98.3462C252.818 97.9702 254.081 97.7408 255.358 97.663L255.37 97.6623L255.382 97.661C262.376 96.8938 269.234 95.1786 275.766 92.5626L275.779 92.5574L275.792 92.5515C276.71 92.1229 277.686 91.8306 278.688 91.6838C279.731 91.6234 280.765 91.9088 281.629 92.496C282.497 93.0857 283.145 93.9465 283.472 94.9437C283.706 95.7309 283.732 96.5683 283.759 97.4801C283.763 97.5843 283.766 97.6896 283.769 97.7958C283.803 98.8015 283.869 99.8904 284.335 100.898C285.484 103.382 288.154 103.997 290.655 104.472C290.858 104.511 291.06 104.548 291.261 104.586C292.344 104.787 293.403 104.984 294.386 105.294C295.545 105.66 296.545 106.167 297.294 106.976C297.432 107.124 297.565 107.286 297.709 107.462L297.71 107.463C297.851 107.635 298.003 107.821 298.166 107.996C298.492 108.346 298.897 108.696 299.441 108.861C300.162 109.079 300.876 108.881 301.435 108.502C301.992 108.124 302.439 107.544 302.657 106.903C302.987 105.935 302.902 104.911 302.752 103.984Z" fill="#F0F4F4" stroke="white"/>
<mask id="path-26-inside-6" fill="white">
<path d="M319.005 29.1961C320.446 30.7267 322.061 32.3494 324.147 32.6161C327.83 33.0873 330.478 29.2786 332.164 25.9703C332.226 26.8137 332.615 27.5995 333.248 28.1606C333.881 28.7216 334.708 29.0136 335.553 28.9745C336.462 28.8215 337.329 28.4823 338.101 27.9781C345.399 23.9901 353.572 21.8771 361.888 21.8289C361.809 21.199 361.965 20.5618 362.327 20.0402C362.689 19.5187 363.232 19.1499 363.85 19.0048C365.541 18.6696 367.064 20.1314 367.88 21.6499C368.695 23.1684 369.204 24.9285 370.5 26.0651C371.795 27.2017 374.304 27.1522 374.816 25.5063C375.308 23.9261 373.661 22.5785 372.294 21.6469C370.926 20.7153 369.484 18.991 370.405 17.6162C377.393 16.0695 384.423 14.517 391.573 14.2096C392.79 14.2519 394.003 14.043 395.136 13.5958C396.226 13.0607 397.093 11.8461 396.8 10.6675C395.24 11.0343 393.605 10.9281 392.106 10.3624C390.606 9.79675 389.309 8.79729 388.38 7.49146C398.3 6.67279 408.852 5.97499 417.644 10.6431C418.699 12.908 413.322 14.7924 414.761 16.8353C415.219 17.4868 416.139 17.5632 416.936 17.578C423.045 17.6915 429.19 17.8027 435.231 16.8803C437.439 16.5432 439.668 16.0673 441.885 16.3407C445.576 16.796 448.734 19.2591 452.366 20.0622C453.844 20.389 455.501 20.4001 456.747 19.5403C457.993 18.6806 458.529 16.7229 457.508 15.6052C460.927 12.2538 466.603 13.0844 471.114 14.6889C475.625 16.2934 479.899 18.8809 484.673 19.2386C488.097 19.495 491.568 18.5741 494.952 19.1594C497.078 19.5273 499.056 20.4731 501.134 21.0542C505.064 22.1532 509.221 21.9212 513.302 21.9741C523.712 22.1143 534.01 24.1604 543.683 28.0111C544.942 28.4208 546.095 29.102 547.061 30.0066C547.961 30.9705 548.42 32.4683 547.815 33.6402L537.819 32.1797C538.761 34.0337 541.197 34.3497 543.176 34.9893C545.155 35.6289 547.206 37.814 546.017 39.52C543.873 38.8374 541.93 40.9809 540.847 42.9532C539.764 44.9254 538.445 47.2874 536.198 47.4075C534.186 47.5151 531.753 45.8019 530.441 47.3316C532.253 49.6172 533.804 52.0976 535.067 54.7268C536.362 57.426 537.285 60.8272 535.534 63.2557C535.259 63.6892 534.841 64.0133 534.352 64.1722C532.922 64.5342 531.993 62.7846 530.967 61.7242C529.675 60.3879 527.72 60.0094 525.97 59.3827C524.22 58.7559 522.376 57.5231 522.239 55.6691C522.154 54.5155 522.763 53.4432 523.211 52.3771C523.965 50.5801 524.295 48.6335 524.175 46.6884C524.077 45.1236 523.638 43.4958 522.514 42.4025C521.39 41.3091 519.45 40.9623 518.244 41.9637C517.681 42.4309 517.23 43.1783 516.499 43.2063C515.207 43.2557 514.215 41.0037 513.176 41.7724C513.298 42.5915 513.128 43.4274 512.696 44.134C509.595 46.8311 504.831 45.6901 500.833 46.6428C498.932 47.1869 497.112 47.9818 495.421 49.0065C494.788 49.277 494.25 49.7289 493.873 50.305C493.374 51.2748 493.925 52.5169 494.804 53.1617C495.737 53.7338 496.785 54.0916 497.873 54.2093C502.747 55.1323 507.692 56.5613 511.54 59.6919C515.388 62.8225 517.912 67.9975 516.694 72.8064L507.082 63.6222C507.447 67.4784 507.655 71.3453 507.704 75.2228C507.766 75.9799 507.662 76.7414 507.399 77.4541C506.714 78.9676 504.857 79.4769 503.229 79.811C502.777 79.897 502.348 80.0778 501.97 80.3415C501.592 80.6052 501.274 80.9458 501.037 81.3411C500.801 81.7363 500.65 82.1772 500.596 82.6347C500.541 83.0922 500.584 83.556 500.722 83.9957C501.3 85.8804 502.742 87.3498 504.062 88.8139C505.382 90.278 506.681 91.9421 506.854 93.9058C507.027 95.8696 505.545 98.0831 503.579 97.9465C502.088 97.843 500.982 96.5084 500.346 95.156C499.71 93.8036 499.332 92.2971 498.376 91.148C495.484 87.6699 488.989 89.16 486.398 85.4521C485.738 86.2012 485.28 87.1067 485.068 88.0825C484.855 89.0583 484.896 90.0722 485.186 91.0278C486.392 90.2733 488.042 90.9743 488.947 92.0706C489.853 93.1669 490.28 94.5724 490.991 95.8038C491.951 97.4653 493.478 98.9383 493.612 100.852C493.576 101.576 493.588 102.301 493.648 103.024C493.886 104.183 494.866 105.016 495.546 105.986C497.127 108.241 497.049 111.34 496.03 113.899C495.011 116.458 493.179 118.597 491.366 120.67C488.197 124.292 484.965 127.892 481.209 130.899C480.137 131.757 478.993 132.601 478.326 133.801C477.658 135 477.624 136.684 478.65 137.597C477.916 137.634 476.6 137.995 475.866 138.032C475.608 135.087 475.552 132.129 475.698 129.177C472.801 127.786 469.683 131.511 470.057 134.702C470.431 137.893 472.739 140.454 474.382 143.215C475.583 145.234 476.477 147.588 476.075 149.903C475.674 152.218 473.608 154.353 471.267 154.149C467.544 153.824 465.987 148.48 462.3 147.868C461.975 147.792 461.634 147.825 461.33 147.964C460.783 148.265 460.687 148.997 460.657 149.62C460.506 152.681 460.375 155.862 461.57 158.684C463.317 162.812 467.832 166.278 466.885 170.659C461.783 168.288 459.131 162.566 457.926 157.071C456.722 151.575 456.521 145.806 454.362 140.61C452.723 142.711 449.277 140.974 447.779 138.77C446.359 136.68 445.485 134.263 444.107 132.145C442.73 130.027 440.619 128.131 438.095 128.014C435.449 127.892 433.154 129.708 431.136 131.424C429.476 132.835 427.772 134.301 426.802 136.251C425.39 139.09 425.76 142.435 425.692 145.604C425.618 149.03 424.892 152.645 422.557 155.153C420.222 157.662 415.912 158.535 413.336 156.275C411.992 155.095 411.341 153.331 410.761 151.639C407.965 143.481 405.637 135.17 403.788 126.746C403.355 128.669 401.667 131.147 400.054 130.014C399.692 129.71 399.399 129.332 399.194 128.906C396.186 123.808 390.615 120.749 384.986 118.916C379.357 117.082 373.435 116.227 367.869 114.211C364.749 113.082 361.77 111.597 358.989 109.788C358.28 110.83 357.866 112.044 357.791 113.301C357.716 114.559 357.983 115.813 358.562 116.932C359.797 119.118 362.591 120.383 364.983 119.619C366.219 119.224 367.263 118.366 368.489 117.942C369.716 117.518 371.362 117.727 371.898 118.908C372.411 120.039 371.635 121.407 372.02 122.588C372.606 124.387 375.319 124.525 376.268 126.162C376.973 127.379 376.393 128.996 375.385 129.979C374.377 130.962 373.033 131.5 371.803 132.184C367.812 134.404 364.974 138.192 361.486 141.14C357.998 144.087 353.077 146.239 348.92 144.349C349.911 139.331 343.934 135.648 342.834 130.653C342.473 129.009 342.66 127.263 342.144 125.661C341.395 123.341 339.338 121.746 337.649 119.989C335.602 117.833 334.007 115.29 332.958 112.508C331.909 109.727 331.428 106.763 331.543 103.792C331.635 101.728 332.014 99.6304 331.544 97.6183C331.073 95.6063 329.408 93.6589 327.343 93.7501C322.629 93.9583 316.689 94.309 314.216 90.2899C313.333 88.8555 312.949 86.7547 314.225 85.6557C315.125 84.8804 316.454 84.9535 317.637 85.0698L328.26 86.1148C330.744 86.3592 333.43 86.5609 335.562 85.262C337.694 83.9631 338.618 80.5153 336.644 78.9872C335.201 77.8706 332.617 77.9312 332.198 76.1559C331.848 74.6774 333.485 72.9998 332.601 71.7642C331.967 70.8782 330.543 71.124 329.679 71.7881C328.816 72.4523 328.189 73.4236 327.223 73.9265C325.528 74.8087 323.503 73.9691 321.679 73.3985C319.855 72.8279 317.41 72.7794 316.526 74.4732C315.536 76.3676 317.403 78.8498 316.421 80.748C315.123 83.2576 310.728 81.8289 308.905 83.9876C306.813 86.4647 310.328 90.1584 309.623 93.3229C308.722 93.7689 307.721 93.9738 306.718 93.9174C305.714 93.861 304.742 93.5453 303.897 93.0012C303.066 92.4359 302.404 91.6559 301.981 90.7442C301.558 89.8325 301.389 88.8231 301.494 87.8234C301.669 86.3999 302.411 84.9468 301.914 83.6015C301.512 82.5139 300.42 81.8663 299.405 81.3055L289.082 75.6011C288.123 77.379 289.335 79.5831 290.85 80.9185C292.366 82.2539 294.264 83.2597 295.259 85.0171C295.889 86.2348 296.03 87.6468 295.654 88.965C295.278 90.2832 294.412 91.4081 293.235 92.1099C293.087 92.2117 292.919 92.2804 292.743 92.3112C292.566 92.342 292.385 92.3342 292.212 92.2883C292.047 92.1916 291.903 92.0627 291.789 91.9094C291.675 91.7561 291.593 91.5815 291.548 91.3959C289.726 86.7349 286.992 82.1392 282.62 79.7044C278.248 77.2695 271.966 77.7701 269.099 81.8718C268.418 82.846 267.961 83.9565 267.367 84.9865C264.216 90.4588 257.459 93.0501 251.146 92.8808C250.529 92.915 249.914 92.7706 249.377 92.465C248.357 91.7604 248.402 90.2652 248.559 89.0352L249.221 83.8152C249.354 82.767 249.547 81.6084 250.377 80.9541C251.546 80.0317 253.233 80.6138 254.723 80.5923C255.851 80.5395 256.936 80.141 257.83 79.4509C258.724 78.7608 259.385 77.8124 259.722 76.7343C260.022 75.6456 260.021 74.4955 259.716 73.4078C259.412 72.3201 258.816 71.3361 257.994 70.5618C257.311 69.9207 256.395 69.1154 256.755 68.2511C256.899 68.012 257.094 67.8074 257.325 67.6515C257.557 67.4957 257.819 67.3924 258.095 67.349C260.77 66.5721 263.597 66.3685 266.227 65.4519C268.858 64.5352 271.409 62.6598 272.032 59.9447C272.223 59.1127 272.31 58.1047 273.057 57.6922C273.432 57.5338 273.835 57.4516 274.242 57.4501C275.668 57.2472 276.967 56.5178 277.882 55.4054C278.797 54.293 279.263 52.8783 279.187 51.4398C280.448 50.5589 282.214 51.2069 283.434 52.1438C284.654 53.0808 285.73 54.3186 287.214 54.7225C289.98 55.4752 292.653 53.0266 295.519 53.0152C296.724 53.0105 297.972 53.4366 299.106 53.028C300.255 52.6137 300.942 51.4694 301.824 50.6241C302.706 49.7787 304.254 49.263 305.069 50.1737L304.375 45.0352C305.772 45.3881 307.229 45.4381 308.647 45.1817C310.065 44.9253 311.412 44.3686 312.597 43.5488L303.631 40.5194C303.319 40.4414 303.03 40.2874 302.792 40.0711C302.14 39.3692 302.788 38.2754 303.318 37.4775C304.586 35.5687 304.799 32.4246 302.714 31.4743C301.29 30.8257 299.657 31.6042 298.29 32.366L291.746 36.0148C291.539 37.2587 293.06 37.9636 294.002 38.8015C294.573 39.3084 294.976 39.976 295.16 40.7165C295.344 41.4571 295.3 42.2359 295.033 42.9508C294.766 43.6656 294.289 44.2831 293.665 44.722C293.041 45.161 292.299 45.4009 291.536 45.4102C291.967 45.9705 292.266 46.6205 292.412 47.3121C292.558 48.0037 292.546 48.7193 292.377 49.4057L287.975 49.7224C287.48 49.8218 286.967 49.7216 286.546 49.4437C286.076 49.0254 286.139 48.2926 286.03 47.6723C285.767 46.1751 284.301 45.1258 282.805 44.8568C281.309 44.5877 279.778 44.9326 278.297 45.2731C277.667 45.4995 276.977 45.4835 276.359 45.2284C276.004 44.9982 275.735 44.6583 275.592 44.2607C274.943 42.6859 275.55 40.8348 276.593 39.488C277.636 38.1413 279.064 37.1567 280.347 36.0356C283.414 33.3445 285.667 29.8494 286.852 25.9452C289.276 24.9296 291.785 23.5498 294.209 22.5342C297.946 20.6422 302.137 19.8303 306.31 20.1897L314.518 20.3465C316.948 20.3929 319.444 20.4524 321.692 21.3789C323.939 22.3054 325.913 24.3093 326.069 26.7351C326.115 27.0097 326.092 27.2917 326 27.5546C325.907 27.8175 325.75 28.0528 325.542 28.2382C325.225 28.4114 324.865 28.4924 324.504 28.4721C322.238 28.5518 321.272 29.1165 319.005 29.1961Z"/>
</mask>
<path d="M319.005 29.1961C320.446 30.7267 322.061 32.3494 324.147 32.6161C327.83 33.0873 330.478 29.2786 332.164 25.9703C332.226 26.8137 332.615 27.5995 333.248 28.1606C333.881 28.7216 334.708 29.0136 335.553 28.9745C336.462 28.8215 337.329 28.4823 338.101 27.9781C345.399 23.9901 353.572 21.8771 361.888 21.8289C361.809 21.199 361.965 20.5618 362.327 20.0402C362.689 19.5187 363.232 19.1499 363.85 19.0048C365.541 18.6696 367.064 20.1314 367.88 21.6499C368.695 23.1684 369.204 24.9285 370.5 26.0651C371.795 27.2017 374.304 27.1522 374.816 25.5063C375.308 23.9261 373.661 22.5785 372.294 21.6469C370.926 20.7153 369.484 18.991 370.405 17.6162C377.393 16.0695 384.423 14.517 391.573 14.2096C392.79 14.2519 394.003 14.043 395.136 13.5958C396.226 13.0607 397.093 11.8461 396.8 10.6675C395.24 11.0343 393.605 10.9281 392.106 10.3624C390.606 9.79675 389.309 8.79729 388.38 7.49146C398.3 6.67279 408.852 5.97499 417.644 10.6431C418.699 12.908 413.322 14.7924 414.761 16.8353C415.219 17.4868 416.139 17.5632 416.936 17.578C423.045 17.6915 429.19 17.8027 435.231 16.8803C437.439 16.5432 439.668 16.0673 441.885 16.3407C445.576 16.796 448.734 19.2591 452.366 20.0622C453.844 20.389 455.501 20.4001 456.747 19.5403C457.993 18.6806 458.529 16.7229 457.508 15.6052C460.927 12.2538 466.603 13.0844 471.114 14.6889C475.625 16.2934 479.899 18.8809 484.673 19.2386C488.097 19.495 491.568 18.5741 494.952 19.1594C497.078 19.5273 499.056 20.4731 501.134 21.0542C505.064 22.1532 509.221 21.9212 513.302 21.9741C523.712 22.1143 534.01 24.1604 543.683 28.0111C544.942 28.4208 546.095 29.102 547.061 30.0066C547.961 30.9705 548.42 32.4683 547.815 33.6402L537.819 32.1797C538.761 34.0337 541.197 34.3497 543.176 34.9893C545.155 35.6289 547.206 37.814 546.017 39.52C543.873 38.8374 541.93 40.9809 540.847 42.9532C539.764 44.9254 538.445 47.2874 536.198 47.4075C534.186 47.5151 531.753 45.8019 530.441 47.3316C532.253 49.6172 533.804 52.0976 535.067 54.7268C536.362 57.426 537.285 60.8272 535.534 63.2557C535.259 63.6892 534.841 64.0133 534.352 64.1722C532.922 64.5342 531.993 62.7846 530.967 61.7242C529.675 60.3879 527.72 60.0094 525.97 59.3827C524.22 58.7559 522.376 57.5231 522.239 55.6691C522.154 54.5155 522.763 53.4432 523.211 52.3771C523.965 50.5801 524.295 48.6335 524.175 46.6884C524.077 45.1236 523.638 43.4958 522.514 42.4025C521.39 41.3091 519.45 40.9623 518.244 41.9637C517.681 42.4309 517.23 43.1783 516.499 43.2063C515.207 43.2557 514.215 41.0037 513.176 41.7724C513.298 42.5915 513.128 43.4274 512.696 44.134C509.595 46.8311 504.831 45.6901 500.833 46.6428C498.932 47.1869 497.112 47.9818 495.421 49.0065C494.788 49.277 494.25 49.7289 493.873 50.305C493.374 51.2748 493.925 52.5169 494.804 53.1617C495.737 53.7338 496.785 54.0916 497.873 54.2093C502.747 55.1323 507.692 56.5613 511.54 59.6919C515.388 62.8225 517.912 67.9975 516.694 72.8064L507.082 63.6222C507.447 67.4784 507.655 71.3453 507.704 75.2228C507.766 75.9799 507.662 76.7414 507.399 77.4541C506.714 78.9676 504.857 79.4769 503.229 79.811C502.777 79.897 502.348 80.0778 501.97 80.3415C501.592 80.6052 501.274 80.9458 501.037 81.3411C500.801 81.7363 500.65 82.1772 500.596 82.6347C500.541 83.0922 500.584 83.556 500.722 83.9957C501.3 85.8804 502.742 87.3498 504.062 88.8139C505.382 90.278 506.681 91.9421 506.854 93.9058C507.027 95.8696 505.545 98.0831 503.579 97.9465C502.088 97.843 500.982 96.5084 500.346 95.156C499.71 93.8036 499.332 92.2971 498.376 91.148C495.484 87.6699 488.989 89.16 486.398 85.4521C485.738 86.2012 485.28 87.1067 485.068 88.0825C484.855 89.0583 484.896 90.0722 485.186 91.0278C486.392 90.2733 488.042 90.9743 488.947 92.0706C489.853 93.1669 490.28 94.5724 490.991 95.8038C491.951 97.4653 493.478 98.9383 493.612 100.852C493.576 101.576 493.588 102.301 493.648 103.024C493.886 104.183 494.866 105.016 495.546 105.986C497.127 108.241 497.049 111.34 496.03 113.899C495.011 116.458 493.179 118.597 491.366 120.67C488.197 124.292 484.965 127.892 481.209 130.899C480.137 131.757 478.993 132.601 478.326 133.801C477.658 135 477.624 136.684 478.65 137.597C477.916 137.634 476.6 137.995 475.866 138.032C475.608 135.087 475.552 132.129 475.698 129.177C472.801 127.786 469.683 131.511 470.057 134.702C470.431 137.893 472.739 140.454 474.382 143.215C475.583 145.234 476.477 147.588 476.075 149.903C475.674 152.218 473.608 154.353 471.267 154.149C467.544 153.824 465.987 148.48 462.3 147.868C461.975 147.792 461.634 147.825 461.33 147.964C460.783 148.265 460.687 148.997 460.657 149.62C460.506 152.681 460.375 155.862 461.57 158.684C463.317 162.812 467.832 166.278 466.885 170.659C461.783 168.288 459.131 162.566 457.926 157.071C456.722 151.575 456.521 145.806 454.362 140.61C452.723 142.711 449.277 140.974 447.779 138.77C446.359 136.68 445.485 134.263 444.107 132.145C442.73 130.027 440.619 128.131 438.095 128.014C435.449 127.892 433.154 129.708 431.136 131.424C429.476 132.835 427.772 134.301 426.802 136.251C425.39 139.09 425.76 142.435 425.692 145.604C425.618 149.03 424.892 152.645 422.557 155.153C420.222 157.662 415.912 158.535 413.336 156.275C411.992 155.095 411.341 153.331 410.761 151.639C407.965 143.481 405.637 135.17 403.788 126.746C403.355 128.669 401.667 131.147 400.054 130.014C399.692 129.71 399.399 129.332 399.194 128.906C396.186 123.808 390.615 120.749 384.986 118.916C379.357 117.082 373.435 116.227 367.869 114.211C364.749 113.082 361.77 111.597 358.989 109.788C358.28 110.83 357.866 112.044 357.791 113.301C357.716 114.559 357.983 115.813 358.562 116.932C359.797 119.118 362.591 120.383 364.983 119.619C366.219 119.224 367.263 118.366 368.489 117.942C369.716 117.518 371.362 117.727 371.898 118.908C372.411 120.039 371.635 121.407 372.02 122.588C372.606 124.387 375.319 124.525 376.268 126.162C376.973 127.379 376.393 128.996 375.385 129.979C374.377 130.962 373.033 131.5 371.803 132.184C367.812 134.404 364.974 138.192 361.486 141.14C357.998 144.087 353.077 146.239 348.92 144.349C349.911 139.331 343.934 135.648 342.834 130.653C342.473 129.009 342.66 127.263 342.144 125.661C341.395 123.341 339.338 121.746 337.649 119.989C335.602 117.833 334.007 115.29 332.958 112.508C331.909 109.727 331.428 106.763 331.543 103.792C331.635 101.728 332.014 99.6304 331.544 97.6183C331.073 95.6063 329.408 93.6589 327.343 93.7501C322.629 93.9583 316.689 94.309 314.216 90.2899C313.333 88.8555 312.949 86.7547 314.225 85.6557C315.125 84.8804 316.454 84.9535 317.637 85.0698L328.26 86.1148C330.744 86.3592 333.43 86.5609 335.562 85.262C337.694 83.9631 338.618 80.5153 336.644 78.9872C335.201 77.8706 332.617 77.9312 332.198 76.1559C331.848 74.6774 333.485 72.9998 332.601 71.7642C331.967 70.8782 330.543 71.124 329.679 71.7881C328.816 72.4523 328.189 73.4236 327.223 73.9265C325.528 74.8087 323.503 73.9691 321.679 73.3985C319.855 72.8279 317.41 72.7794 316.526 74.4732C315.536 76.3676 317.403 78.8498 316.421 80.748C315.123 83.2576 310.728 81.8289 308.905 83.9876C306.813 86.4647 310.328 90.1584 309.623 93.3229C308.722 93.7689 307.721 93.9738 306.718 93.9174C305.714 93.861 304.742 93.5453 303.897 93.0012C303.066 92.4359 302.404 91.6559 301.981 90.7442C301.558 89.8325 301.389 88.8231 301.494 87.8234C301.669 86.3999 302.411 84.9468 301.914 83.6015C301.512 82.5139 300.42 81.8663 299.405 81.3055L289.082 75.6011C288.123 77.379 289.335 79.5831 290.85 80.9185C292.366 82.2539 294.264 83.2597 295.259 85.0171C295.889 86.2348 296.03 87.6468 295.654 88.965C295.278 90.2832 294.412 91.4081 293.235 92.1099C293.087 92.2117 292.919 92.2804 292.743 92.3112C292.566 92.342 292.385 92.3342 292.212 92.2883C292.047 92.1916 291.903 92.0627 291.789 91.9094C291.675 91.7561 291.593 91.5815 291.548 91.3959C289.726 86.7349 286.992 82.1392 282.62 79.7044C278.248 77.2695 271.966 77.7701 269.099 81.8718C268.418 82.846 267.961 83.9565 267.367 84.9865C264.216 90.4588 257.459 93.0501 251.146 92.8808C250.529 92.915 249.914 92.7706 249.377 92.465C248.357 91.7604 248.402 90.2652 248.559 89.0352L249.221 83.8152C249.354 82.767 249.547 81.6084 250.377 80.9541C251.546 80.0317 253.233 80.6138 254.723 80.5923C255.851 80.5395 256.936 80.141 257.83 79.4509C258.724 78.7608 259.385 77.8124 259.722 76.7343C260.022 75.6456 260.021 74.4955 259.716 73.4078C259.412 72.3201 258.816 71.3361 257.994 70.5618C257.311 69.9207 256.395 69.1154 256.755 68.2511C256.899 68.012 257.094 67.8074 257.325 67.6515C257.557 67.4957 257.819 67.3924 258.095 67.349C260.77 66.5721 263.597 66.3685 266.227 65.4519C268.858 64.5352 271.409 62.6598 272.032 59.9447C272.223 59.1127 272.31 58.1047 273.057 57.6922C273.432 57.5338 273.835 57.4516 274.242 57.4501C275.668 57.2472 276.967 56.5178 277.882 55.4054C278.797 54.293 279.263 52.8783 279.187 51.4398C280.448 50.5589 282.214 51.2069 283.434 52.1438C284.654 53.0808 285.73 54.3186 287.214 54.7225C289.98 55.4752 292.653 53.0266 295.519 53.0152C296.724 53.0105 297.972 53.4366 299.106 53.028C300.255 52.6137 300.942 51.4694 301.824 50.6241C302.706 49.7787 304.254 49.263 305.069 50.1737L304.375 45.0352C305.772 45.3881 307.229 45.4381 308.647 45.1817C310.065 44.9253 311.412 44.3686 312.597 43.5488L303.631 40.5194C303.319 40.4414 303.03 40.2874 302.792 40.0711C302.14 39.3692 302.788 38.2754 303.318 37.4775C304.586 35.5687 304.799 32.4246 302.714 31.4743C301.29 30.8257 299.657 31.6042 298.29 32.366L291.746 36.0148C291.539 37.2587 293.06 37.9636 294.002 38.8015C294.573 39.3084 294.976 39.976 295.16 40.7165C295.344 41.4571 295.3 42.2359 295.033 42.9508C294.766 43.6656 294.289 44.2831 293.665 44.722C293.041 45.161 292.299 45.4009 291.536 45.4102C291.967 45.9705 292.266 46.6205 292.412 47.3121C292.558 48.0037 292.546 48.7193 292.377 49.4057L287.975 49.7224C287.48 49.8218 286.967 49.7216 286.546 49.4437C286.076 49.0254 286.139 48.2926 286.03 47.6723C285.767 46.1751 284.301 45.1258 282.805 44.8568C281.309 44.5877 279.778 44.9326 278.297 45.2731C277.667 45.4995 276.977 45.4835 276.359 45.2284C276.004 44.9982 275.735 44.6583 275.592 44.2607C274.943 42.6859 275.55 40.8348 276.593 39.488C277.636 38.1413 279.064 37.1567 280.347 36.0356C283.414 33.3445 285.667 29.8494 286.852 25.9452C289.276 24.9296 291.785 23.5498 294.209 22.5342C297.946 20.6422 302.137 19.8303 306.31 20.1897L314.518 20.3465C316.948 20.3929 319.444 20.4524 321.692 21.3789C323.939 22.3054 325.913 24.3093 326.069 26.7351C326.115 27.0097 326.092 27.2917 326 27.5546C325.907 27.8175 325.75 28.0528 325.542 28.2382C325.225 28.4114 324.865 28.4924 324.504 28.4721C322.238 28.5518 321.272 29.1165 319.005 29.1961Z" fill="#F0F4F4" stroke="white" stroke-width="2" mask="url(#path-26-inside-6)"/>
<mask id="path-27-inside-7" fill="white">
<path d="M253.578 54.9218C253.899 54.6182 254.129 54.2322 254.245 53.806C254.361 53.3798 254.356 52.93 254.233 52.506C253.453 52.2049 252.604 52.1276 251.782 52.2828C250.96 52.438 250.198 52.8196 249.581 53.3845C249.094 53.8764 248.675 54.4304 248.334 55.0322C247.256 56.792 246.302 58.894 246.927 60.8611C246.978 61.0756 247.071 61.2778 247.201 61.4558C247.331 61.6338 247.496 61.784 247.685 61.8976C247.965 62.0101 248.267 62.0574 248.568 62.036C249.756 62.0344 250.943 61.9614 252.123 61.8172C252.847 61.7286 253.688 61.5241 253.968 60.8502C254.336 59.9643 253.446 58.9618 253.705 58.0384C253.876 57.6255 254.135 57.2548 254.464 56.9522C254.627 56.7998 254.752 56.6115 254.83 56.4023C254.908 56.193 254.935 55.9685 254.911 55.7466C254.806 55.3133 254.143 55.0675 253.904 55.444"/>
</mask>
<path d="M253.578 54.9218C253.899 54.6182 254.129 54.2322 254.245 53.806C254.361 53.3798 254.356 52.93 254.233 52.506C253.453 52.2049 252.604 52.1276 251.782 52.2828C250.96 52.438 250.198 52.8196 249.581 53.3845C249.094 53.8764 248.675 54.4304 248.334 55.0322C247.256 56.792 246.302 58.894 246.927 60.8611C246.978 61.0756 247.071 61.2778 247.201 61.4558C247.331 61.6338 247.496 61.784 247.685 61.8976C247.965 62.0101 248.267 62.0574 248.568 62.036C249.756 62.0344 250.943 61.9614 252.123 61.8172C252.847 61.7286 253.688 61.5241 253.968 60.8502C254.336 59.9643 253.446 58.9618 253.705 58.0384C253.876 57.6255 254.135 57.2548 254.464 56.9522C254.627 56.7998 254.752 56.6115 254.83 56.4023C254.908 56.193 254.935 55.9685 254.911 55.7466C254.806 55.3133 254.143 55.0675 253.904 55.444" fill="#F0F4F4"/>
<path d="M254.233 52.506L255.193 52.2265L255.055 51.7513L254.593 51.5731L254.233 52.506ZM249.581 53.3845L248.905 52.6471L248.887 52.6638L248.87 52.6815L249.581 53.3845ZM248.334 55.0322L249.187 55.5548L249.196 55.5402L249.204 55.5252L248.334 55.0322ZM246.927 60.8611L247.9 60.63L247.891 60.5938L247.88 60.5583L246.927 60.8611ZM247.685 61.8976L247.169 62.7546L247.238 62.7959L247.312 62.8256L247.685 61.8976ZM248.568 62.036L248.567 61.036L248.532 61.036L248.497 61.0385L248.568 62.036ZM252.123 61.8172L252.244 62.8098L252.244 62.8098L252.123 61.8172ZM253.968 60.8502L253.045 60.4666L253.968 60.8502ZM253.705 58.0384L252.781 57.6562L252.759 57.7108L252.743 57.7677L253.705 58.0384ZM254.464 56.9522L255.141 57.6881L255.146 57.683L254.464 56.9522ZM254.911 55.7466L255.905 55.6379L255.898 55.574L255.883 55.5116L254.911 55.7466ZM254.265 55.648C254.72 55.2181 255.047 54.6713 255.21 54.0677L253.28 53.5443C253.212 53.793 253.078 54.0184 252.891 54.1956L254.265 55.648ZM255.21 54.0677C255.374 53.464 255.368 52.827 255.193 52.2265L253.273 52.7856C253.345 53.033 253.347 53.2955 253.28 53.5443L255.21 54.0677ZM254.593 51.5731C253.639 51.2049 252.601 51.1104 251.596 51.3002L251.967 53.2654C252.606 53.1448 253.266 53.2049 253.873 53.439L254.593 51.5731ZM251.596 51.3002C250.591 51.4899 249.659 51.9564 248.905 52.6471L250.256 54.122C250.736 53.6827 251.328 53.3861 251.967 53.2654L251.596 51.3002ZM248.87 52.6815C248.321 53.2361 247.849 53.8608 247.464 54.5392L249.204 55.5252C249.502 55.0001 249.868 54.5167 250.292 54.0876L248.87 52.6815ZM247.482 54.5096C246.403 56.2689 245.2 58.7293 245.974 61.164L247.88 60.5583C247.403 59.0587 248.108 57.3151 249.187 55.5548L247.482 54.5096ZM245.954 61.0922C246.036 61.4363 246.185 61.7606 246.394 62.046L248.008 60.8656C247.957 60.7951 247.92 60.715 247.9 60.63L245.954 61.0922ZM246.394 62.046C246.603 62.3315 246.866 62.5724 247.169 62.7546L248.2 61.0406C248.125 60.9956 248.06 60.9361 248.008 60.8656L246.394 62.046ZM247.312 62.8256C247.733 62.9945 248.187 63.0656 248.639 63.0335L248.497 61.0385C248.347 61.0491 248.197 61.0256 248.057 60.9696L247.312 62.8256ZM248.569 63.036C249.798 63.0344 251.025 62.9588 252.244 62.8098L252.001 60.8246C250.862 60.9639 249.715 61.0345 248.567 61.036L248.569 63.036ZM252.244 62.8098C252.637 62.7617 253.143 62.6744 253.612 62.4698C254.089 62.2616 254.619 61.8907 254.892 61.2338L253.045 60.4666C253.038 60.4836 253.007 60.5519 252.812 60.6365C252.61 60.7248 252.333 60.7841 252.001 60.8246L252.244 62.8098ZM254.892 61.2338C255.234 60.4097 254.961 59.5866 254.835 59.1689C254.663 58.6005 254.633 58.4317 254.668 58.3091L252.743 57.7677C252.517 58.5685 252.804 59.3627 252.92 59.7479C253.082 60.2837 253.07 60.4048 253.045 60.4666L254.892 61.2338ZM254.629 58.4207C254.745 58.1421 254.919 57.8921 255.141 57.688L253.787 56.2163C253.351 56.6174 253.008 57.1088 252.781 57.6562L254.629 58.4207ZM255.146 57.683C255.423 57.4246 255.636 57.1052 255.767 56.7501L253.892 56.0544C253.869 56.1179 253.831 56.1751 253.781 56.2214L255.146 57.683ZM255.767 56.7501C255.899 56.3951 255.946 56.0143 255.905 55.6379L253.917 55.8553C253.924 55.9227 253.916 55.9908 253.892 56.0544L255.767 56.7501ZM255.883 55.5116C255.73 54.8793 255.222 54.49 254.77 54.3415C254.317 54.1928 253.517 54.1867 253.06 54.9083L254.748 55.9797C254.657 56.1233 254.514 56.2124 254.378 56.2445C254.261 56.2723 254.179 56.2527 254.146 56.2417C254.11 56.2298 254.078 56.2114 254.048 56.1821C254.017 56.1521 253.965 56.0878 253.939 55.9817L255.883 55.5116Z" fill="white" mask="url(#path-27-inside-7)"/>
<path d="M256.536 47.2319L256.503 47.2309C256.363 47.2268 256.225 47.2551 256.098 47.3133C255.998 47.3967 255.926 47.5087 255.89 47.6347L255.888 47.6416L255.886 47.6484C255.696 48.2589 255.743 48.9186 256.017 49.4962C256.286 50.0629 256.755 50.5097 257.333 50.7513C257.756 50.8529 258.162 51.018 258.535 51.2412L258.562 51.2568L258.586 51.2754C259.242 51.7846 259.318 52.5444 259.307 53.1622C259.304 53.3667 259.29 53.5892 259.276 53.7974C259.269 53.9005 259.263 54.0002 259.258 54.0924C259.242 54.3913 259.241 54.6542 259.276 54.8876C259.344 55.3377 259.566 55.7553 259.832 56.2567C259.882 56.3508 259.934 56.4479 259.986 56.5488C260.292 57.1368 260.626 57.8606 260.48 58.6799C260.385 59.2103 260.087 59.694 259.854 60.0726C259.816 60.1349 259.779 60.1944 259.745 60.2507C259.475 60.7035 259.349 61.0087 259.401 61.3125L256.536 47.2319ZM256.536 47.2319L256.568 47.2287M256.536 47.2319L256.568 47.2287M256.568 47.2287C257.588 47.1261 258.617 47.1901 259.615 47.418C260.489 47.6663 260.97 48.035 261.264 48.4446C261.568 48.8692 261.711 49.3927 261.808 50.029C261.844 50.2648 261.872 50.5031 261.901 50.7536C261.912 50.8426 261.922 50.9331 261.934 51.0256C261.976 51.3716 262.025 51.7351 262.103 52.0991C262.26 52.8314 262.534 53.5852 263.117 54.2632L263.132 54.2801L263.148 54.2956C263.506 54.6444 263.837 55.0211 264.136 55.4222C264.381 55.8903 264.511 56.4103 264.515 56.939L264.515 56.9516L264.515 56.9643C264.591 58.2674 264.416 59.573 264.001 60.8104L263.994 60.8309L263.989 60.852C263.857 61.3965 263.534 61.8749 263.079 62.2002C262.603 62.392 262.083 62.447 261.577 62.3584L261.554 62.3544M256.568 47.2287L261.554 62.3544M261.554 62.3544L261.53 62.3525M261.554 62.3544L261.53 62.3525M261.53 62.3525C261.02 62.3121 260.487 62.2181 260.074 62.0316M261.53 62.3525L260.074 62.0316M260.074 62.0316C259.666 61.8472 259.453 61.6122 259.401 61.3125L260.074 62.0316Z" fill="#F0F4F4" stroke="white"/>
<path opacity="0.8" d="M528.088 232.885C528.088 232.885 371.79 143.167 304.502 160.167C304.502 160.167 161.899 175.513 145.372 209.275C145.372 209.275 100.041 67.6158 83.5137 62.8938" stroke="white" stroke-width="2" stroke-miterlimit="10"/>
<path opacity="0.8" d="M145.372 209.275C171.579 139.39 407.678 61.9494 407.678 61.9494C374.152 70.449 304.502 160.167 304.502 160.167C304.502 160.167 157.177 52.9776 83.5137 62.8938C83.5137 62.8938 407.914 73.5182 528.088 232.885" stroke="white" stroke-width="2" stroke-miterlimit="10"/>
<path d="M89.8607 62.8938C89.8607 66.3991 87.0192 69.2407 83.5139 69.2407C80.0086 69.2407 77.167 66.3991 77.167 62.8938C77.167 59.3885 80.0086 56.5469 83.5139 56.5469C87.0192 56.5469 89.8607 59.3885 89.8607 62.8938Z" fill="white" stroke="white"/>
<path d="M151.719 209.275C151.719 212.78 148.877 215.622 145.372 215.622C141.866 215.622 139.025 212.78 139.025 209.275C139.025 205.77 141.866 202.928 145.372 202.928C148.877 202.928 151.719 205.77 151.719 209.275Z" fill="white" stroke="white"/>
<path d="M414.025 61.9494C414.025 65.4547 411.183 68.2963 407.678 68.2963C404.173 68.2963 401.331 65.4547 401.331 61.9494C401.331 58.4441 404.173 55.6025 407.678 55.6025C411.183 55.6025 414.025 58.4441 414.025 61.9494Z" fill="white" stroke="white"/>
<path d="M534.435 232.885C534.435 236.39 531.593 239.232 528.088 239.232C524.583 239.232 521.741 236.39 521.741 232.885C521.741 229.38 524.583 226.538 528.088 226.538C531.593 226.538 534.435 229.38 534.435 232.885Z" fill="white" stroke="white"/>
<path d="M310.849 160.167C310.849 163.672 308.007 166.513 304.502 166.513C300.997 166.513 298.155 163.672 298.155 160.167C298.155 156.661 300.997 153.82 304.502 153.82C308.007 153.82 310.849 156.661 310.849 160.167Z" fill="white" stroke="white"/>
</g>
</svg>
