<svg width="228" height="40" viewBox="0 0 228 40" fill="none" xmlns="http://www.w3.org/2000/svg">
<path d="M60.3646 23.3333C60.3646 23.5243 60.2431 24.1927 60 25.3385C59.7569 26.467 59.5833 27.0573 59.4792 27.1094C58.2118 27.8733 56.1372 28.2552 53.2552 28.2552C50.9635 28.2552 49.0104 27.4132 47.3958 25.7292C45.7986 24.0451 45 22.0399 45 19.7135C45 17.2483 45.8247 15.1389 47.474 13.3854C49.1233 11.6146 51.1458 10.7292 53.5417 10.7292C55.5903 10.7292 57.6997 10.9462 59.8698 11.3802C59.8351 13.7066 59.8177 14.9566 59.8177 15.1302C59.8177 15.3906 59.6354 15.5208 59.2708 15.5208C59.0972 15.5208 58.9844 15.4774 58.9323 15.3906C58.8802 15.1649 58.8108 14.9392 58.724 14.7135C58.6545 14.4705 58.4896 14.1667 58.2292 13.8021C57.9861 13.4201 57.6823 13.099 57.3177 12.8385C56.9705 12.5608 56.467 12.3264 55.8073 12.1354C55.1649 11.9271 54.4358 11.8229 53.6198 11.8229C51.9184 11.8229 50.4687 12.5781 49.2708 14.0885C48.0729 15.5816 47.474 17.2743 47.474 19.1667C47.474 20.5729 47.717 21.8663 48.2031 23.0469C48.6892 24.2274 49.4531 25.2083 50.4948 25.9896C51.5538 26.7535 52.8038 27.1354 54.2448 27.1354C55.9635 27.1354 57.2917 26.6319 58.2292 25.625C58.4722 25.3646 58.6806 25.026 58.8542 24.6094C59.0451 24.1753 59.184 23.8194 59.2708 23.5417C59.375 23.2465 59.4531 23.099 59.5052 23.099C59.6094 23.099 59.7309 23.1163 59.8698 23.151C60.026 23.1858 60.1476 23.2205 60.2344 23.2552L60.3646 23.3333Z" fill="white"/>
<path d="M68.5677 16.7188C69.592 16.7188 70.2691 16.9705 70.599 17.474C70.599 18.0816 70.5035 18.5243 70.3125 18.8021C70.1215 19.0799 69.8872 19.2188 69.6094 19.2188C69.2969 19.2188 69.0104 19.0712 68.75 18.776C68.4896 18.4809 68.1337 18.3333 67.6823 18.3333C67.1441 18.3333 66.6753 18.5851 66.276 19.0885C65.8767 19.592 65.6771 20.1215 65.6771 20.6771V24.5833C65.6771 25.5903 65.7465 26.3628 65.8854 26.901C65.9201 27.0226 66.1458 27.1441 66.5625 27.2656C66.9965 27.3698 67.3003 27.4219 67.474 27.4219C67.526 27.4219 67.5608 27.526 67.5781 27.7344C67.5955 27.9427 67.5868 28.0903 67.5521 28.1771C65.816 28.0903 64.8785 28.0469 64.7396 28.0469C64.6354 28.0469 63.6892 28.0903 61.901 28.1771C61.8316 28.1076 61.7969 27.9688 61.7969 27.7604C61.7969 27.5347 61.8316 27.4219 61.901 27.4219C62.1094 27.4219 62.4132 27.3698 62.8125 27.2656C63.2292 27.1441 63.4549 27.0226 63.4896 26.901C63.6111 26.3976 63.6719 25.7899 63.6719 25.0781V20.1563C63.6719 19.4792 63.5503 19.0104 63.3073 18.75C63.1337 18.5417 62.9167 18.4028 62.6562 18.3333C62.4132 18.2465 62.2049 18.2031 62.0312 18.2031C61.875 18.2031 61.7969 18.1858 61.7969 18.151C61.7969 17.7344 61.849 17.5174 61.9531 17.5C63.7934 17.2222 64.9913 16.9965 65.5469 16.8229C65.5642 16.8229 65.5903 16.8229 65.625 16.8229C65.6597 16.8056 65.6771 16.7969 65.6771 16.7969C65.7465 16.7969 65.7899 16.875 65.8073 17.0313C65.8247 17.1701 65.8247 17.2743 65.8073 17.3438L65.651 18.6458C65.9635 18.1771 66.3889 17.7431 66.9271 17.3438C67.4826 16.9271 68.0295 16.7188 68.5677 16.7188Z" fill="white"/>
<path d="M76.6927 17.7083C75.7899 17.7083 75.0955 18.099 74.6094 18.8802C74.1406 19.6441 73.9062 20.2778 73.9062 20.7813C73.9062 20.9028 73.9583 20.9635 74.0625 20.9635H79.1406C79.2274 20.9635 79.2708 20.8767 79.2708 20.7031C79.2708 20.1476 79.0365 19.5139 78.5677 18.8021C78.099 18.0729 77.474 17.7083 76.6927 17.7083ZM76.9531 16.7448C77.7517 16.7448 78.4549 16.901 79.0625 17.2135C79.6701 17.5087 80.1302 17.8993 80.4427 18.3854C80.7726 18.8542 81.0069 19.3403 81.1458 19.8438C81.3021 20.3299 81.3802 20.816 81.3802 21.3021C81.3802 21.6493 81.3281 21.8663 81.224 21.9531C81.1198 22.0226 80.9201 22.0573 80.625 22.0573H74.0625C73.9236 22.0573 73.8542 22.1007 73.8542 22.1875C73.8542 23.2813 74.184 24.2882 74.8437 25.2083C75.5035 26.1285 76.4583 26.5885 77.7083 26.5885C78.0729 26.5885 78.4201 26.5538 78.75 26.4844C79.0799 26.4149 79.3576 26.3368 79.5833 26.25C79.8264 26.1458 80.026 26.0503 80.1823 25.9635C80.3559 25.8594 80.5035 25.7639 80.625 25.6771L80.8073 25.5469C80.9115 25.5469 80.9635 25.6597 80.9635 25.8854C80.9635 26.0243 80.9115 26.1806 80.8073 26.3542C80.4601 26.8403 79.9479 27.283 79.2708 27.6823C78.5937 28.0642 77.8559 28.2552 77.0573 28.2552C75.6163 28.2552 74.375 27.717 73.3333 26.6406C72.309 25.5469 71.7969 24.2188 71.7969 22.6563C71.7969 20.8333 72.283 19.3924 73.2552 18.3333C74.2448 17.2743 75.4774 16.7448 76.9531 16.7448Z" fill="white"/>
<path d="M85.6771 26.4323C85.9722 26.6753 86.3542 26.7969 86.8229 26.7969C87.2917 26.7969 87.7431 26.658 88.1771 26.3802C88.6111 26.0851 88.8281 25.7899 88.8281 25.4948V22.8125C88.6892 22.8819 88.3507 23.0035 87.8125 23.1771C87.2743 23.3507 86.849 23.5069 86.5365 23.6458C86.2413 23.7674 85.9462 23.9844 85.651 24.2969C85.3733 24.592 85.2344 24.9392 85.2344 25.3385C85.2344 25.8073 85.3819 26.1719 85.6771 26.4323ZM88.125 16.7448C89.0799 16.7448 89.7656 16.9792 90.1823 17.4479C90.599 17.8993 90.8073 18.6372 90.8073 19.6615V25.6771C90.8073 26.0417 90.9028 26.3455 91.0937 26.5885C91.2847 26.8316 91.5451 26.9531 91.875 26.9531C92.1181 26.9531 92.4219 26.8316 92.7865 26.5885C92.8559 26.5885 92.8906 26.658 92.8906 26.7969C92.8906 27.0226 92.8472 27.2049 92.7604 27.3438C92.0486 27.9514 91.441 28.2552 90.9375 28.2552C90.5382 28.2552 90.1562 28.0903 89.7917 27.7604C89.4271 27.4306 89.1753 27.0833 89.0365 26.7188C89.0191 26.7188 88.9497 26.7795 88.8281 26.901C88.724 27.0052 88.5764 27.1354 88.3854 27.2917C88.1944 27.4306 87.9687 27.5781 87.7083 27.7344C87.4653 27.8906 87.1701 28.0208 86.8229 28.125C86.4931 28.2292 86.1545 28.2813 85.8073 28.2813C85.0087 28.2813 84.349 28.0729 83.8281 27.6563C83.3073 27.2222 83.0469 26.5799 83.0469 25.7292C83.0469 25.3472 83.1424 24.9913 83.3333 24.6615C83.5243 24.3142 83.75 24.0365 84.0104 23.8281C84.2708 23.6024 84.6267 23.3767 85.0781 23.151C85.5295 22.9253 85.9115 22.7604 86.224 22.6563C86.5538 22.5347 86.9792 22.3872 87.5 22.2135C88.0208 22.0399 88.3854 21.9097 88.5937 21.8229C88.75 21.7708 88.8281 21.6406 88.8281 21.4323V19.4792C88.8281 18.9236 88.6545 18.4983 88.3073 18.2031C87.9601 17.8906 87.5434 17.7344 87.0573 17.7344C86.5365 17.7344 86.1024 17.9167 85.7552 18.2813C85.408 18.6285 85.2344 19.0885 85.2344 19.6615C85.2344 20.2691 84.8785 20.5729 84.1667 20.5729C83.6806 20.5729 83.342 20.408 83.151 20.0781C83.151 19.3316 83.6979 18.5938 84.7917 17.8646C85.8854 17.1181 86.9965 16.7448 88.125 16.7448Z" fill="white"/>
<path d="M95.1302 18.3594H93.6198C93.533 18.3594 93.4896 18.1771 93.4896 17.8125C93.4896 17.7083 93.4983 17.6476 93.5156 17.6302C94.0191 17.4045 94.566 16.9444 95.1562 16.25C95.3472 16.0243 95.5295 15.7726 95.7031 15.4948C95.8941 15.1997 96.0503 14.9479 96.1719 14.7396C96.2934 14.5313 96.3542 14.4184 96.3542 14.401C96.875 14.401 97.1354 14.4444 97.1354 14.5313V17.1094C97.5868 17.1094 98.2726 17.1181 99.1927 17.1354C100.113 17.1354 100.599 17.1354 100.651 17.1354C100.79 17.1354 100.859 17.2135 100.859 17.3698C100.859 17.6823 100.773 18.0122 100.599 18.3594H97.1354V24.7396C97.1354 25.434 97.309 25.9896 97.6562 26.4063C98.0208 26.8229 98.4896 27.0313 99.0625 27.0313C99.5833 27.0313 100.122 26.8663 100.677 26.5365C100.729 26.5017 100.807 26.5799 100.911 26.7708C101.016 26.9444 101.059 27.0399 101.042 27.0573C100.781 27.3351 100.382 27.6128 99.8437 27.8906C99.3056 28.151 98.75 28.2813 98.1771 28.2813C97.309 28.2813 96.5799 27.9948 95.9896 27.4219C95.4167 26.849 95.1302 26.033 95.1302 24.974V18.3594Z" fill="white"/>
<path d="M107.083 17.7083C106.181 17.7083 105.486 18.099 105 18.8802C104.531 19.6441 104.297 20.2778 104.297 20.7813C104.297 20.9028 104.349 20.9635 104.453 20.9635H109.531C109.618 20.9635 109.661 20.8767 109.661 20.7031C109.661 20.1476 109.427 19.5139 108.958 18.8021C108.49 18.0729 107.865 17.7083 107.083 17.7083ZM107.344 16.7448C108.142 16.7448 108.845 16.901 109.453 17.2135C110.061 17.5087 110.521 17.8993 110.833 18.3854C111.163 18.8542 111.398 19.3403 111.536 19.8438C111.693 20.3299 111.771 20.816 111.771 21.3021C111.771 21.6493 111.719 21.8663 111.615 21.9531C111.51 22.0226 111.311 22.0573 111.016 22.0573H104.453C104.314 22.0573 104.245 22.1007 104.245 22.1875C104.245 23.2813 104.575 24.2882 105.234 25.2083C105.894 26.1285 106.849 26.5885 108.099 26.5885C108.464 26.5885 108.811 26.5538 109.141 26.4844C109.47 26.4149 109.748 26.3368 109.974 26.25C110.217 26.1458 110.417 26.0503 110.573 25.9635C110.747 25.8594 110.894 25.7639 111.016 25.6771L111.198 25.5469C111.302 25.5469 111.354 25.6597 111.354 25.8854C111.354 26.0243 111.302 26.1806 111.198 26.3542C110.851 26.8403 110.339 27.283 109.661 27.6823C108.984 28.0642 108.247 28.2552 107.448 28.2552C106.007 28.2552 104.766 27.717 103.724 26.6406C102.7 25.5469 102.187 24.2188 102.187 22.6563C102.187 20.8333 102.674 19.3924 103.646 18.3333C104.635 17.2743 105.868 16.7448 107.344 16.7448Z" fill="white"/>
<path d="M118.88 17.7344C117.873 17.7344 117.083 18.1858 116.51 19.0885C115.937 19.9913 115.651 21.0417 115.651 22.2396C115.651 23.5069 115.99 24.6094 116.667 25.5469C117.344 26.467 118.281 26.9271 119.479 26.9271C120.069 26.9271 120.53 26.7969 120.859 26.5365C121.189 26.2587 121.354 25.8941 121.354 25.4427V19.2448C121.354 18.8802 121.155 18.5417 120.755 18.2292C120.373 17.8993 119.748 17.7344 118.88 17.7344ZM119.219 16.6406C119.965 16.6406 120.616 16.7882 121.172 17.0833C121.293 17.0833 121.354 16.9271 121.354 16.6146V13.8021C121.354 13.2118 121.302 12.6563 121.198 12.1354C121.111 11.8576 120.668 11.7188 119.87 11.7188H119.635C119.531 11.7188 119.479 11.6233 119.479 11.4323C119.479 11.1545 119.531 11.0156 119.635 11.0156C120.156 10.9635 120.634 10.8941 121.068 10.8073C121.519 10.7205 121.866 10.6337 122.109 10.5469C122.37 10.4601 122.587 10.3819 122.76 10.3125C122.934 10.2257 123.064 10.1563 123.151 10.1042L123.255 10.026H123.307C123.377 10.026 123.446 10.0781 123.516 10.1823C123.585 10.2691 123.628 10.3559 123.646 10.4427C123.455 10.9983 123.359 11.7535 123.359 12.7083V24.4271C123.359 25.2604 123.411 25.9201 123.516 26.4063C123.55 26.5278 123.646 26.6233 123.802 26.6927C123.958 26.7622 124.115 26.8056 124.271 26.8229C124.444 26.8403 124.609 26.849 124.766 26.849L125 26.875C125.052 26.8924 125.078 26.9965 125.078 27.1875C125.078 27.4479 125.026 27.5781 124.922 27.5781C124.661 27.5955 124.366 27.6302 124.036 27.6823C123.724 27.7344 123.42 27.7951 123.125 27.8646C122.847 27.9167 122.587 27.9774 122.344 28.0469C122.101 28.099 121.901 28.151 121.745 28.2031L121.51 28.2552C121.406 28.2552 121.354 28.1076 121.354 27.8125V27.5C121.354 27.3958 121.319 27.3611 121.25 27.3958C120.278 27.934 119.358 28.2031 118.49 28.2031C117.049 28.2031 115.842 27.691 114.87 26.6667C113.898 25.6424 113.411 24.4184 113.411 22.9948C113.411 21.3108 114.002 19.8351 115.182 18.5677C116.38 17.283 117.726 16.6406 119.219 16.6406Z" fill="white"/>
<path d="M139.062 10C140.312 10 141.137 10.3385 141.536 11.0156C141.536 12.1094 141.224 12.6563 140.599 12.6563C140.373 12.6563 140.156 12.526 139.948 12.2656C139.74 11.9878 139.497 11.7101 139.219 11.4323C138.958 11.1545 138.637 11.0156 138.255 11.0156C137.491 11.0156 136.901 11.4844 136.484 12.4219C136.068 13.3594 135.859 14.4618 135.859 15.7292V17.0573C135.859 17.1441 135.903 17.1875 135.99 17.1875H138.88C138.967 17.1875 139.01 17.2483 139.01 17.3698C139.01 17.6476 138.906 17.9948 138.698 18.4115H136.016C135.911 18.4115 135.859 18.4635 135.859 18.5677V24.5833C135.859 25.5208 135.937 26.2934 136.094 26.901C136.128 27.0226 136.337 27.1441 136.719 27.2656C137.118 27.3698 137.396 27.4219 137.552 27.4219C137.604 27.4219 137.639 27.526 137.656 27.7344C137.674 27.9427 137.665 28.0903 137.63 28.1771C135.894 28.0903 134.965 28.0469 134.844 28.0469C134.792 28.0469 133.88 28.0903 132.109 28.1771C132.075 28.1424 132.049 28.0642 132.031 27.9427C132.014 27.8038 132.014 27.6823 132.031 27.5781C132.049 27.474 132.075 27.4219 132.109 27.4219C132.318 27.4219 132.613 27.3698 132.995 27.2656C133.377 27.1441 133.585 27.0226 133.62 26.901C133.793 26.224 133.88 25.4514 133.88 24.5833V18.5938C133.88 18.4722 133.837 18.4115 133.75 18.4115H132.37C132.318 18.4115 132.292 18.3594 132.292 18.2552C132.292 18.099 132.431 17.8819 132.708 17.6042C132.986 17.3264 133.281 17.1875 133.594 17.1875H133.75C133.837 17.1875 133.88 17.1354 133.88 17.0313V16.6927C133.88 14.8698 134.418 13.2986 135.495 11.9792C136.589 10.6597 137.778 10 139.062 10Z" fill="white"/>
<path d="M145.495 17.7344C144.575 17.7344 143.819 18.1597 143.229 19.0104C142.656 19.8438 142.37 20.8681 142.37 22.0833C142.37 23.5069 142.734 24.7309 143.464 25.7552C144.21 26.7622 145.078 27.2656 146.068 27.2656C146.988 27.2656 147.743 26.8316 148.333 25.9635C148.924 25.0955 149.219 24.0538 149.219 22.8385C149.219 21.4323 148.845 20.2344 148.099 19.2448C147.352 18.2378 146.484 17.7344 145.495 17.7344ZM145.781 16.7188C147.344 16.7188 148.681 17.283 149.792 18.4115C150.903 19.5399 151.458 20.8941 151.458 22.474C151.458 24.0712 150.911 25.4427 149.818 26.5885C148.741 27.717 147.413 28.2813 145.833 28.2813C144.253 28.2813 142.908 27.717 141.797 26.5885C140.686 25.4427 140.13 24.0712 140.13 22.474C140.13 20.8594 140.668 19.4965 141.745 18.3854C142.821 17.2743 144.167 16.7188 145.781 16.7188Z" fill="white"/>
<path d="M160.078 16.7188C161.102 16.7188 161.78 16.9705 162.109 17.474C162.109 18.0816 162.014 18.5243 161.823 18.8021C161.632 19.0799 161.398 19.2188 161.12 19.2188C160.807 19.2188 160.521 19.0712 160.26 18.776C160 18.4809 159.644 18.3333 159.193 18.3333C158.655 18.3333 158.186 18.5851 157.786 19.0885C157.387 19.592 157.187 20.1215 157.187 20.6771V24.5833C157.187 25.5903 157.257 26.3628 157.396 26.901C157.431 27.0226 157.656 27.1441 158.073 27.2656C158.507 27.3698 158.811 27.4219 158.984 27.4219C159.036 27.4219 159.071 27.526 159.089 27.7344C159.106 27.9427 159.097 28.0903 159.062 28.1771C157.326 28.0903 156.389 28.0469 156.25 28.0469C156.146 28.0469 155.2 28.0903 153.411 28.1771C153.342 28.1076 153.307 27.9688 153.307 27.7604C153.307 27.5347 153.342 27.4219 153.411 27.4219C153.62 27.4219 153.924 27.3698 154.323 27.2656C154.74 27.1441 154.965 27.0226 155 26.901C155.122 26.3976 155.182 25.7899 155.182 25.0781V20.1563C155.182 19.4792 155.061 19.0104 154.818 18.75C154.644 18.5417 154.427 18.4028 154.167 18.3333C153.924 18.2465 153.715 18.2031 153.542 18.2031C153.385 18.2031 153.307 18.1858 153.307 18.151C153.307 17.7344 153.359 17.5174 153.464 17.5C155.304 17.2222 156.502 16.9965 157.057 16.8229C157.075 16.8229 157.101 16.8229 157.135 16.8229C157.17 16.8056 157.187 16.7969 157.187 16.7969C157.257 16.7969 157.3 16.875 157.318 17.0313C157.335 17.1701 157.335 17.2743 157.318 17.3438L157.161 18.6458C157.474 18.1771 157.899 17.7431 158.437 17.3438C158.993 16.9271 159.54 16.7188 160.078 16.7188Z" fill="white"/>
<path d="M184.818 23.3333C184.818 23.5243 184.696 24.1927 184.453 25.3385C184.21 26.467 184.036 27.0573 183.932 27.1094C182.665 27.8733 180.59 28.2552 177.708 28.2552C175.417 28.2552 173.464 27.4132 171.849 25.7292C170.252 24.0451 169.453 22.0399 169.453 19.7135C169.453 17.2483 170.278 15.1389 171.927 13.3854C173.576 11.6146 175.599 10.7292 177.995 10.7292C180.043 10.7292 182.153 10.9462 184.323 11.3802C184.288 13.7066 184.271 14.9566 184.271 15.1302C184.271 15.3906 184.089 15.5208 183.724 15.5208C183.55 15.5208 183.437 15.4774 183.385 15.3906C183.333 15.1649 183.264 14.9392 183.177 14.7135C183.108 14.4705 182.943 14.1667 182.682 13.8021C182.439 13.4201 182.135 13.099 181.771 12.8385C181.424 12.5608 180.92 12.3264 180.26 12.1354C179.618 11.9271 178.889 11.8229 178.073 11.8229C176.372 11.8229 174.922 12.5781 173.724 14.0885C172.526 15.5816 171.927 17.2743 171.927 19.1667C171.927 20.5729 172.17 21.8663 172.656 23.0469C173.142 24.2274 173.906 25.2083 174.948 25.9896C176.007 26.7535 177.257 27.1354 178.698 27.1354C180.417 27.1354 181.745 26.6319 182.682 25.625C182.925 25.3646 183.134 25.026 183.307 24.6094C183.498 24.1753 183.637 23.8194 183.724 23.5417C183.828 23.2465 183.906 23.099 183.958 23.099C184.062 23.099 184.184 23.1163 184.323 23.151C184.479 23.1858 184.601 23.2205 184.687 23.2552L184.818 23.3333Z" fill="white"/>
<path d="M193.021 16.7188C194.045 16.7188 194.722 16.9705 195.052 17.474C195.052 18.0816 194.957 18.5243 194.766 18.8021C194.575 19.0799 194.34 19.2188 194.062 19.2188C193.75 19.2188 193.464 19.0712 193.203 18.776C192.943 18.4809 192.587 18.3333 192.135 18.3333C191.597 18.3333 191.128 18.5851 190.729 19.0885C190.33 19.592 190.13 20.1215 190.13 20.6771V24.5833C190.13 25.5903 190.2 26.3628 190.339 26.901C190.373 27.0226 190.599 27.1441 191.016 27.2656C191.45 27.3698 191.753 27.4219 191.927 27.4219C191.979 27.4219 192.014 27.526 192.031 27.7344C192.049 27.9427 192.04 28.0903 192.005 28.1771C190.269 28.0903 189.332 28.0469 189.193 28.0469C189.089 28.0469 188.142 28.0903 186.354 28.1771C186.285 28.1076 186.25 27.9688 186.25 27.7604C186.25 27.5347 186.285 27.4219 186.354 27.4219C186.562 27.4219 186.866 27.3698 187.266 27.2656C187.682 27.1441 187.908 27.0226 187.943 26.901C188.064 26.3976 188.125 25.7899 188.125 25.0781V20.1563C188.125 19.4792 188.003 19.0104 187.76 18.75C187.587 18.5417 187.37 18.4028 187.109 18.3333C186.866 18.2465 186.658 18.2031 186.484 18.2031C186.328 18.2031 186.25 18.1858 186.25 18.151C186.25 17.7344 186.302 17.5174 186.406 17.5C188.247 17.2222 189.444 16.9965 190 16.8229C190.017 16.8229 190.043 16.8229 190.078 16.8229C190.113 16.8056 190.13 16.7969 190.13 16.7969C190.2 16.7969 190.243 16.875 190.26 17.0313C190.278 17.1701 190.278 17.2743 190.26 17.3438L190.104 18.6458C190.417 18.1771 190.842 17.7431 191.38 17.3438C191.936 16.9271 192.483 16.7188 193.021 16.7188Z" fill="white"/>
<path d="M197.865 13.5938C197.622 13.3333 197.5 13.0208 197.5 12.6563C197.5 12.2917 197.622 11.9878 197.865 11.7448C198.125 11.4844 198.437 11.3542 198.802 11.3542C199.167 11.3542 199.47 11.4844 199.714 11.7448C199.974 11.9878 200.104 12.2917 200.104 12.6563C200.104 13.0208 199.974 13.3333 199.714 13.5938C199.47 13.8368 199.167 13.9583 198.802 13.9583C198.437 13.9583 198.125 13.8368 197.865 13.5938ZM200 24.5833C200 25.5903 200.069 26.3628 200.208 26.901C200.243 27.0226 200.469 27.1441 200.885 27.2656C201.302 27.3698 201.597 27.4219 201.771 27.4219C201.823 27.4219 201.858 27.526 201.875 27.7344C201.892 27.9427 201.884 28.0903 201.849 28.1771C200.113 28.0903 199.184 28.0469 199.062 28.0469C198.941 28.0469 197.995 28.0903 196.224 28.1771C196.155 28.1076 196.12 27.9688 196.12 27.7604C196.12 27.5347 196.155 27.4219 196.224 27.4219C196.432 27.4219 196.736 27.3698 197.135 27.2656C197.552 27.1441 197.778 27.0226 197.812 26.901C197.934 26.3976 197.995 25.7899 197.995 25.0781V20.1563C197.995 19.4792 197.873 19.0104 197.63 18.75C197.457 18.5417 197.24 18.4028 196.979 18.3333C196.736 18.2465 196.528 18.2031 196.354 18.2031C196.198 18.2031 196.12 18.1858 196.12 18.151C196.12 17.7344 196.172 17.5174 196.276 17.5C198.116 17.2222 199.314 16.9965 199.87 16.8229L199.922 16.7969C199.957 16.7969 199.983 16.7969 200 16.7969C200.069 16.7969 200.113 16.875 200.13 17.0313C200.148 17.1701 200.148 17.2743 200.13 17.3438C200.043 18.0382 200 18.6632 200 19.2188V24.5833Z" fill="white"/>
<path d="M207.266 16.7188C207.648 16.7188 208.125 16.7708 208.698 16.875C209.288 16.9618 209.696 17.0226 209.922 17.0573C210.095 17.8559 210.2 18.7413 210.234 19.7135C210.234 19.8003 210.122 19.8438 209.896 19.8438C209.653 19.8438 209.523 19.783 209.505 19.6615C209.418 19.1753 209.167 18.7153 208.75 18.2813C208.351 17.8472 207.891 17.6302 207.37 17.6302C206.12 17.6302 205.495 18.1424 205.495 19.1667C205.495 19.4271 205.53 19.6615 205.599 19.8698C205.668 20.0608 205.799 20.2517 205.99 20.4427C206.198 20.6163 206.354 20.7465 206.458 20.8333C206.562 20.9028 206.788 21.0417 207.135 21.25C207.5 21.441 207.726 21.5625 207.812 21.6146C207.882 21.6493 208.082 21.7708 208.411 21.9792C208.759 22.1701 209.002 22.309 209.141 22.3958C209.28 22.4826 209.479 22.6302 209.74 22.8385C210.017 23.0469 210.217 23.2378 210.339 23.4115C210.46 23.5677 210.573 23.776 210.677 24.0365C210.799 24.2795 210.859 24.5313 210.859 24.7917C210.859 25.816 210.46 26.6753 209.661 27.3698C208.863 28.0469 207.925 28.3854 206.849 28.3854C206.484 28.3854 206.146 28.3594 205.833 28.3073C205.538 28.2726 205.182 28.2031 204.766 28.099C204.349 27.9948 204.028 27.9253 203.802 27.8906C203.698 27.6128 203.594 27.1788 203.49 26.5885C203.403 25.9983 203.359 25.5295 203.359 25.1823C203.498 25.0781 203.602 25.026 203.672 25.026C203.932 25.026 204.071 25.0781 204.089 25.1823C204.193 25.7031 204.514 26.2153 205.052 26.7188C205.608 27.2049 206.207 27.4479 206.849 27.4479C207.405 27.4479 207.856 27.3003 208.203 27.0052C208.568 26.6927 208.75 26.25 208.75 25.6771C208.75 25.3819 208.689 25.1128 208.568 24.8698C208.464 24.6094 208.281 24.3837 208.021 24.1927C207.778 23.9844 207.543 23.8194 207.318 23.6979C207.109 23.559 206.806 23.3854 206.406 23.1771C206.007 22.9688 205.712 22.8038 205.521 22.6823C204.167 21.901 203.49 20.9722 203.49 19.8958C203.49 18.9583 203.863 18.1944 204.609 17.6042C205.373 17.0139 206.259 16.7188 207.266 16.7188Z" fill="white"/>
<path d="M214.219 13.5938C213.976 13.3333 213.854 13.0208 213.854 12.6563C213.854 12.2917 213.976 11.9878 214.219 11.7448C214.479 11.4844 214.792 11.3542 215.156 11.3542C215.521 11.3542 215.825 11.4844 216.068 11.7448C216.328 11.9878 216.458 12.2917 216.458 12.6563C216.458 13.0208 216.328 13.3333 216.068 13.5938C215.825 13.8368 215.521 13.9583 215.156 13.9583C214.792 13.9583 214.479 13.8368 214.219 13.5938ZM216.354 24.5833C216.354 25.5903 216.424 26.3628 216.562 26.901C216.597 27.0226 216.823 27.1441 217.24 27.2656C217.656 27.3698 217.951 27.4219 218.125 27.4219C218.177 27.4219 218.212 27.526 218.229 27.7344C218.247 27.9427 218.238 28.0903 218.203 28.1771C216.467 28.0903 215.538 28.0469 215.417 28.0469C215.295 28.0469 214.349 28.0903 212.578 28.1771C212.509 28.1076 212.474 27.9688 212.474 27.7604C212.474 27.5347 212.509 27.4219 212.578 27.4219C212.786 27.4219 213.09 27.3698 213.49 27.2656C213.906 27.1441 214.132 27.0226 214.167 26.901C214.288 26.3976 214.349 25.7899 214.349 25.0781V20.1563C214.349 19.4792 214.227 19.0104 213.984 18.75C213.811 18.5417 213.594 18.4028 213.333 18.3333C213.09 18.2465 212.882 18.2031 212.708 18.2031C212.552 18.2031 212.474 18.1858 212.474 18.151C212.474 17.7344 212.526 17.5174 212.63 17.5C214.47 17.2222 215.668 16.9965 216.224 16.8229L216.276 16.7969C216.311 16.7969 216.337 16.7969 216.354 16.7969C216.424 16.7969 216.467 16.875 216.484 17.0313C216.502 17.1701 216.502 17.2743 216.484 17.3438C216.398 18.0382 216.354 18.6632 216.354 19.2188V24.5833Z" fill="white"/>
<path d="M223.62 16.7188C224.002 16.7188 224.479 16.7708 225.052 16.875C225.642 16.9618 226.05 17.0226 226.276 17.0573C226.45 17.8559 226.554 18.7413 226.589 19.7135C226.589 19.8003 226.476 19.8438 226.25 19.8438C226.007 19.8438 225.877 19.783 225.859 19.6615C225.773 19.1753 225.521 18.7153 225.104 18.2813C224.705 17.8472 224.245 17.6302 223.724 17.6302C222.474 17.6302 221.849 18.1424 221.849 19.1667C221.849 19.4271 221.884 19.6615 221.953 19.8698C222.023 20.0608 222.153 20.2517 222.344 20.4427C222.552 20.6163 222.708 20.7465 222.812 20.8333C222.917 20.9028 223.142 21.0417 223.49 21.25C223.854 21.441 224.08 21.5625 224.167 21.6146C224.236 21.6493 224.436 21.7708 224.766 21.9792C225.113 22.1701 225.356 22.309 225.495 22.3958C225.634 22.4826 225.833 22.6302 226.094 22.8385C226.372 23.0469 226.571 23.2378 226.693 23.4115C226.814 23.5677 226.927 23.776 227.031 24.0365C227.153 24.2795 227.214 24.5313 227.214 24.7917C227.214 25.816 226.814 26.6753 226.016 27.3698C225.217 28.0469 224.28 28.3854 223.203 28.3854C222.839 28.3854 222.5 28.3594 222.187 28.3073C221.892 28.2726 221.536 28.2031 221.12 28.099C220.703 27.9948 220.382 27.9253 220.156 27.8906C220.052 27.6128 219.948 27.1788 219.844 26.5885C219.757 25.9983 219.714 25.5295 219.714 25.1823C219.852 25.0781 219.957 25.026 220.026 25.026C220.286 25.026 220.425 25.0781 220.443 25.1823C220.547 25.7031 220.868 26.2153 221.406 26.7188C221.962 27.2049 222.561 27.4479 223.203 27.4479C223.759 27.4479 224.21 27.3003 224.557 27.0052C224.922 26.6927 225.104 26.25 225.104 25.6771C225.104 25.3819 225.043 25.1128 224.922 24.8698C224.818 24.6094 224.635 24.3837 224.375 24.1927C224.132 23.9844 223.898 23.8194 223.672 23.6979C223.464 23.559 223.16 23.3854 222.76 23.1771C222.361 22.9688 222.066 22.8038 221.875 22.6823C220.521 21.901 219.844 20.9722 219.844 19.8958C219.844 18.9583 220.217 18.1944 220.964 17.6042C221.727 17.0139 222.613 16.7188 223.62 16.7188Z" fill="white"/>
<path d="M19.9997 31.7851L24.7137 26.4818C24.7137 25.8567 24.4654 25.2571 24.0234 24.8151C23.5814 24.3731 22.9818 24.1248 22.3567 24.1248H17.6427C17.0175 24.1248 16.418 24.3731 15.976 24.8151C15.534 25.2571 15.2856 25.8567 15.2856 26.4818L19.9997 31.7851Z" fill="white"/>
<path fill-rule="evenodd" clip-rule="evenodd" d="M15.5592 24.3985C16.1118 23.8459 16.8612 23.5355 17.6426 23.5355H22.3566C23.138 23.5355 23.8874 23.8459 24.4399 24.3985C24.9925 24.951 25.3029 25.7004 25.3029 26.4818V27.6603C25.3029 27.9857 25.0391 28.2496 24.7136 28.2496C24.3882 28.2496 24.1244 27.9857 24.1244 27.6603V26.4818C24.1244 26.013 23.9381 25.5633 23.6066 25.2318C23.2751 24.9003 22.8255 24.714 22.3566 24.714H17.6426C17.1737 24.714 16.7241 24.9003 16.3926 25.2318C16.061 25.5633 15.8748 26.013 15.8748 26.4818V27.6603C15.8748 27.9857 15.611 28.2496 15.2855 28.2496C14.9601 28.2496 14.6963 27.9857 14.6963 27.6603V26.4818C14.6963 25.7004 15.0067 24.951 15.5592 24.3985Z" fill="white"/>
<path d="M19.9996 21.7678C21.3013 21.7678 22.3566 20.7125 22.3566 19.4107C22.3566 18.109 21.3013 17.0537 19.9996 17.0537C18.6979 17.0537 17.6426 18.109 17.6426 19.4107C17.6426 20.7125 18.6979 21.7678 19.9996 21.7678Z" fill="white" stroke="white" stroke-linecap="round" stroke-linejoin="round"/>
<path d="M4.16683 17.5C3.70659 17.0398 3.70659 16.2936 4.16683 15.8334V15.8334C4.62707 15.3731 5.37326 15.3731 5.8335 15.8334L24.1668 34.1667C24.6271 34.6269 24.6271 35.3731 24.1668 35.8334V35.8334C23.7066 36.2936 22.9604 36.2936 22.5002 35.8334L4.16683 17.5Z" fill="#844685"/>
<path d="M17.4998 35.8334C17.0396 36.2936 16.2934 36.2936 15.8332 35.8334V35.8334C15.3729 35.3731 15.3729 34.6269 15.8332 34.1667L34.1665 15.8334C34.6267 15.3731 35.3729 15.3731 35.8332 15.8334V15.8334C36.2934 16.2936 36.2934 17.0398 35.8332 17.5L17.4998 35.8334Z" fill="#F3C623"/>
<path d="M15.8333 5.83333C15.3731 5.3731 15.3731 4.6269 15.8333 4.16667V4.16667C16.2936 3.70643 17.0398 3.70643 17.5 4.16667L35.8333 22.5C36.2936 22.9602 36.2936 23.7064 35.8333 24.1667V24.1667C35.3731 24.6269 34.6269 24.6269 34.1667 24.1667L15.8333 5.83333Z" fill="#00C756"/>
<path d="M5.83333 24.1667C5.3731 24.6269 4.6269 24.6269 4.16667 24.1667V24.1667C3.70643 23.7064 3.70643 22.9602 4.16667 22.5L22.5 4.16667C22.9602 3.70643 23.7064 3.70643 24.1667 4.16667V4.16667C24.6269 4.6269 24.6269 5.3731 24.1667 5.83333L5.83333 24.1667Z" fill="#D7385E"/>
<path d="M4.36273 17.6959C3.7943 17.1275 3.70659 16.2936 4.16683 15.8334C4.62707 15.3731 5.46097 15.4608 6.0294 16.0293L11.1756 21.1754C11.1756 21.1754 10.8025 21.5485 10.3422 22.0088C9.88199 22.469 9.5089 22.8421 9.5089 22.8421L4.36273 17.6959Z" fill="#844685"/>
</svg>
