<svg width="225" height="24" viewBox="0 0 225 24" fill="none" xmlns="http://www.w3.org/2000/svg">
<path fill-rule="evenodd" clip-rule="evenodd" d="M34.834 17.3124L30.9552 13.4336C30.3131 12.7913 30.3131 11.7486 30.9552 11.1064C31.5975 10.4642 32.6402 10.4642 33.2825 11.1064L37.1612 14.9852L41.0402 11.1064C41.6823 10.4642 42.7251 10.4642 43.3673 11.1064C44.0095 11.7486 44.0095 12.7913 43.3673 13.4336L39.4885 17.3124L43.3673 21.1913C44.0095 21.8334 44.0095 22.8762 43.3673 23.5184C42.7251 24.1606 41.6823 24.1606 41.0402 23.5184L37.1612 19.6396L33.2825 23.5184C32.6402 24.1606 31.5975 24.1606 30.9552 23.5184C30.3131 22.8762 30.3131 21.8334 30.9552 21.1913L34.834 17.3124V17.3124Z" fill="#00C756"/>
<path fill-rule="evenodd" clip-rule="evenodd" d="M21.8971 4.36052L25.776 0.48161C26.4181 -0.160537 27.4609 -0.160537 28.1031 0.48161C28.7454 1.12388 28.7454 2.16656 28.1031 2.80883L24.2243 6.68762L28.1031 10.5665C28.7454 11.2087 28.7454 12.2515 28.1031 12.8936C27.4609 13.5359 26.4181 13.5359 25.776 12.8936L21.8971 9.01484L18.0183 12.8936C17.376 13.5359 16.3334 13.5359 15.6911 12.8936C15.0489 12.2515 15.0489 11.2087 15.6911 10.5665L19.57 6.68762L15.6911 2.80883C15.0489 2.16656 15.0489 1.12388 15.6911 0.48161C16.3334 -0.160537 17.376 -0.160537 18.0183 0.48161L21.8971 4.36052V4.36052Z" fill="#30B6FF"/>
<path fill-rule="evenodd" clip-rule="evenodd" d="M6.68762 14.9852L10.5665 11.1064C11.2087 10.4642 12.2515 10.4642 12.8936 11.1064C13.5359 11.7486 13.5359 12.7913 12.8936 13.4336L9.01484 17.3124L12.8936 21.1913C13.5359 21.8334 13.5359 22.8762 12.8936 23.5184C12.2515 24.1606 11.2087 24.1606 10.5665 23.5184L6.68762 19.6396L2.80883 23.5184C2.16656 24.1606 1.12388 24.1606 0.48161 23.5184C-0.160537 22.8762 -0.160537 21.8334 0.48161 21.1913L4.36052 17.3124L0.48161 13.4336C-0.160537 12.7913 -0.160537 11.7486 0.48161 11.1064C1.12388 10.4642 2.16656 10.4642 2.80883 11.1064L6.68762 14.9852V14.9852Z" fill="#D7385E"/>
<path d="M62.4771 14.9277C62.4771 15.3959 62.3618 15.9026 62.1309 16.4479C61.9002 16.9931 61.5372 17.5282 61.0422 18.0533C60.5472 18.5784 59.9151 19.0049 59.1457 19.3327C58.3764 19.6604 57.48 19.8243 56.4565 19.8243C55.6805 19.8243 54.9748 19.7508 54.3393 19.6037C53.7037 19.4565 53.1268 19.2273 52.6084 18.9163C52.0899 18.6052 51.6133 18.1954 51.1785 17.687C50.7905 17.2255 50.4593 16.7088 50.1851 16.1368C49.9108 15.5649 49.7051 14.9544 49.568 14.3055C49.4308 13.6566 49.3623 12.9676 49.3623 12.2384C49.3623 11.0544 49.5346 9.99411 49.879 9.05758C50.2235 8.12105 50.7169 7.31997 51.3591 6.65434C52.0013 5.98871 52.7539 5.48202 53.6168 5.13413C54.4798 4.78625 55.3996 4.6123 56.3763 4.6123C57.567 4.6123 58.6273 4.8498 59.5571 5.32478C60.487 5.79976 61.1995 6.38671 61.6944 7.08587C62.1895 7.78491 62.437 8.44546 62.437 9.06763C62.437 9.40874 62.3166 9.70978 62.0757 9.97063C61.835 10.2316 61.544 10.362 61.2027 10.362C60.8214 10.362 60.5355 10.2717 60.3448 10.0911C60.1541 9.91047 59.9418 9.59938 59.7077 9.15793C59.3196 8.42875 58.8631 7.88356 58.338 7.52236C57.8129 7.16104 57.1656 6.98044 56.3963 6.98044C55.1721 6.98044 54.1971 7.44538 53.4713 8.37525C52.7455 9.30512 52.3826 10.6262 52.3826 12.3388C52.3826 13.4826 52.5431 14.4343 52.8643 15.1935C53.1853 15.9528 53.6402 16.5198 54.2289 16.8943C54.8176 17.269 55.5066 17.4563 56.296 17.4563C57.1522 17.4563 57.8764 17.2439 58.4684 16.8191C59.0605 16.3943 59.507 15.7705 59.8079 14.9477C59.9352 14.5597 60.0923 14.2437 60.2796 13.9995C60.4669 13.7552 60.7679 13.6332 61.1827 13.6332C61.5372 13.6332 61.8416 13.7569 62.0958 14.0045C62.35 14.252 62.4771 14.5597 62.4771 14.9277V14.9277Z" fill="white"/>
<path d="M67.6954 15.86V18.1478C67.6954 18.703 67.565 19.1195 67.3041 19.3971C67.0431 19.6748 66.7121 19.8135 66.3107 19.8135C65.916 19.8135 65.5915 19.6731 65.3374 19.3921C65.0832 19.1112 64.9561 18.6964 64.9561 18.1478V10.5218C64.9561 9.29087 65.4009 8.67548 66.2906 8.67548C66.7455 8.67548 67.0733 8.81928 67.274 9.10688C67.4746 9.39461 67.585 9.81936 67.6051 10.3813C67.9329 9.81936 68.2691 9.39461 68.6136 9.10688C68.9581 8.81928 69.4179 8.67548 69.9932 8.67548C70.5686 8.67548 71.1271 8.81928 71.669 9.10688C72.2108 9.39461 72.4818 9.7759 72.4818 10.2508C72.4818 10.5853 72.3663 10.8612 72.1356 11.0786C71.9048 11.2961 71.6556 11.4048 71.3881 11.4048C71.2877 11.4048 71.0453 11.3428 70.6606 11.2191C70.2759 11.0954 69.9364 11.0334 69.6421 11.0334C69.2407 11.0334 68.9129 11.1389 68.6587 11.3496C68.4045 11.5604 68.2071 11.873 68.0667 12.2878C67.9262 12.7025 67.8292 13.1959 67.7757 13.7679C67.7222 14.3398 67.6954 15.0371 67.6954 15.86V15.86Z" fill="white"/>
<path d="M81.0758 14.9369H75.7175C75.7242 15.559 75.8497 16.1076 76.0938 16.5825C76.338 17.0575 76.6624 17.4153 77.0672 17.6562C77.4718 17.897 77.9184 18.0174 78.4067 18.0174C78.7345 18.0174 79.0339 17.9789 79.3048 17.9021C79.5757 17.8251 79.8383 17.7046 80.0925 17.5407C80.3467 17.3768 80.5808 17.2013 80.7949 17.0139C81.0089 16.8267 81.2866 16.5725 81.6277 16.2514C81.7682 16.1309 81.9689 16.0708 82.2298 16.0708C82.5107 16.0708 82.7382 16.1477 82.9121 16.3016C83.086 16.4554 83.1731 16.6728 83.1731 16.9538C83.1731 17.2013 83.076 17.4906 82.8821 17.8218C82.688 18.1529 82.3954 18.4706 82.004 18.775C81.6127 19.0793 81.121 19.332 80.5289 19.5325C79.9369 19.7332 79.2563 19.8336 78.487 19.8336C76.7276 19.8336 75.3596 19.332 74.383 18.3285C73.4063 17.325 72.918 15.9638 72.918 14.2445C72.918 13.4351 73.0384 12.6841 73.2792 11.9918C73.5201 11.2994 73.8712 10.7058 74.3327 10.2107C74.7944 9.71562 75.363 9.33602 76.0386 9.07178C76.7142 8.80754 77.4635 8.67548 78.2863 8.67548C79.3566 8.67548 80.2748 8.90123 81.0407 9.35273C81.8067 9.80435 82.3803 10.388 82.7616 11.1038C83.1429 11.8195 83.3336 12.5487 83.3336 13.2912C83.3336 13.9803 83.1363 14.4268 82.7415 14.6308C82.3468 14.8349 81.7916 14.9369 81.0758 14.9369V14.9369ZM75.7175 13.3816H80.6845C80.6176 12.445 80.3651 11.7443 79.9269 11.2794C79.4888 10.8145 78.9118 10.5819 78.196 10.5819C77.5137 10.5819 76.9534 10.8177 76.5152 11.2895C76.0771 11.761 75.8112 12.4584 75.7175 13.3816V13.3816Z" fill="white"/>
<path d="M92.5685 18.2883C91.9062 18.8035 91.2656 19.1897 90.6469 19.4473C90.0281 19.7049 89.3341 19.8336 88.5647 19.8336C87.8623 19.8336 87.2452 19.6949 86.7135 19.4172C86.1816 19.1396 85.7719 18.7633 85.4843 18.2883C85.1967 17.8133 85.0527 17.2983 85.0527 16.743C85.0527 15.9938 85.2902 15.355 85.7652 14.8265C86.2402 14.298 86.8924 13.9435 87.7219 13.7629C87.8959 13.7227 88.3273 13.6324 89.0164 13.4919C89.7054 13.3515 90.2957 13.2227 90.7874 13.1056C91.2791 12.9886 91.8125 12.8463 92.3879 12.6792C92.3544 11.9567 92.209 11.4265 91.9514 11.0888C91.6938 10.7509 91.1603 10.5819 90.3509 10.5819C89.6551 10.5819 89.1317 10.679 88.7806 10.8729C88.4293 11.067 88.1283 11.358 87.8775 11.7459C87.6265 12.134 87.4493 12.3899 87.3456 12.5136C87.242 12.6373 87.0195 12.6993 86.6784 12.6993C86.3706 12.6993 86.1047 12.6005 85.8806 12.4032C85.6565 12.2059 85.5444 11.9534 85.5444 11.6456C85.5444 11.1639 85.7151 10.6957 86.0562 10.2408C86.3974 9.78595 86.9292 9.41131 87.6517 9.11693C88.3741 8.82267 89.2738 8.67548 90.3509 8.67548C91.5551 8.67548 92.5016 8.81758 93.1906 9.10192C93.8796 9.38626 94.3663 9.83606 94.6506 10.4516C94.9349 11.067 95.077 11.8831 95.077 12.8998C95.077 13.5421 95.0754 14.0873 95.072 14.5355C95.0687 14.9836 95.0637 15.4821 95.057 16.0306C95.057 16.5457 95.1422 17.0826 95.3129 17.6411C95.4835 18.1997 95.5687 18.5592 95.5687 18.7198C95.5687 19.0008 95.4366 19.2567 95.1724 19.4874C94.9081 19.7182 94.6088 19.8336 94.2743 19.8336C93.9934 19.8336 93.7157 19.7015 93.4414 19.4373C93.1671 19.173 92.8762 18.79 92.5685 18.2883V18.2883ZM92.3879 14.3248C91.9865 14.472 91.4028 14.6275 90.6369 14.7914C89.871 14.9553 89.3408 15.0756 89.0464 15.1526C88.7521 15.2295 88.4712 15.3801 88.2035 15.6041C87.9359 15.8283 87.8022 16.141 87.8022 16.5424C87.8022 16.9572 87.9594 17.31 88.2738 17.601C88.5882 17.892 88.9995 18.0375 89.5081 18.0375C90.0499 18.0375 90.5499 17.9188 91.0082 17.6813C91.4663 17.4438 91.8025 17.1378 92.0166 16.7631C92.2641 16.3483 92.3879 15.666 92.3879 14.7161V14.3248V14.3248Z" fill="white"/>
<path d="M97.5283 8.93269H97.8293V7.28708C97.8293 6.84563 97.8409 6.49944 97.8644 6.24851C97.8878 5.9977 97.953 5.78188 98.06 5.60128C98.167 5.41402 98.321 5.26187 98.5216 5.14481C98.7223 5.02764 98.9464 4.96918 99.194 4.96918C99.5417 4.96918 99.8562 5.09954 100.137 5.36052C100.324 5.53446 100.443 5.74677 100.493 5.9977C100.544 6.24851 100.569 6.60474 100.569 7.06629V8.93269H101.572C101.96 8.93269 102.256 9.02469 102.46 9.20868C102.664 9.39267 102.766 9.62846 102.766 9.91607C102.766 10.284 102.621 10.5415 102.33 10.6887C102.039 10.8359 101.622 10.9095 101.08 10.9095H100.569V15.9467C100.569 16.3748 100.584 16.7043 100.614 16.9351C100.644 17.1659 100.724 17.3532 100.855 17.497C100.985 17.6408 101.197 17.7127 101.492 17.7127C101.652 17.7127 101.87 17.6843 102.144 17.6274C102.418 17.5706 102.632 17.5422 102.786 17.5422C103.007 17.5422 103.206 17.6308 103.383 17.8081C103.561 17.9853 103.649 18.2044 103.649 18.4653C103.649 18.9069 103.408 19.2447 102.927 19.4788C102.445 19.7129 101.753 19.8299 100.85 19.8299C99.9934 19.8299 99.3444 19.6861 98.903 19.3985C98.4614 19.1108 98.1721 18.7128 98.035 18.2044C97.8978 17.696 97.8293 17.0171 97.8293 16.1675V10.9095H97.468C97.0734 10.9095 96.7723 10.8158 96.565 10.6285C96.3575 10.4412 96.2539 10.2037 96.2539 9.91607C96.2539 9.62846 96.3626 9.39267 96.58 9.20868C96.7974 9.02469 97.1134 8.93269 97.5283 8.93269V8.93269Z" fill="white"/>
<path d="M112.263 14.9369H106.905C106.912 15.559 107.037 16.1076 107.281 16.5825C107.525 17.0575 107.85 17.4153 108.255 17.6562C108.659 17.897 109.106 18.0174 109.594 18.0174C109.922 18.0174 110.221 17.9789 110.492 17.9021C110.763 17.8251 111.026 17.7046 111.28 17.5407C111.534 17.3768 111.768 17.2013 111.982 17.0139C112.197 16.8267 112.474 16.5725 112.815 16.2514C112.956 16.1309 113.156 16.0708 113.417 16.0708C113.698 16.0708 113.926 16.1477 114.1 16.3016C114.274 16.4554 114.361 16.6728 114.361 16.9538C114.361 17.2013 114.263 17.4906 114.07 17.8218C113.876 18.1529 113.583 18.4706 113.192 18.775C112.8 19.0793 112.308 19.332 111.716 19.5325C111.124 19.7332 110.444 19.8336 109.675 19.8336C107.915 19.8336 106.547 19.332 105.57 18.3285C104.594 17.325 104.105 15.9638 104.105 14.2445C104.105 13.4351 104.226 12.6841 104.467 11.9918C104.708 11.2994 105.059 10.7058 105.52 10.2107C105.982 9.71562 106.55 9.33602 107.226 9.07178C107.902 8.80754 108.651 8.67548 109.474 8.67548C110.544 8.67548 111.462 8.90123 112.228 9.35273C112.994 9.80435 113.568 10.388 113.949 11.1038C114.33 11.8195 114.521 12.5487 114.521 13.2912C114.521 13.9803 114.324 14.4268 113.929 14.6308C113.534 14.8349 112.979 14.9369 112.263 14.9369V14.9369ZM106.905 13.3816H111.872C111.805 12.445 111.553 11.7443 111.114 11.2794C110.676 10.8145 110.099 10.5819 109.384 10.5819C108.701 10.5819 108.141 10.8177 107.703 11.2895C107.265 11.761 106.999 12.4584 106.905 13.3816V13.3816Z" fill="white"/>
<path d="M124.378 18.259V17.9881C124.01 18.4096 123.647 18.7524 123.289 19.0166C122.931 19.2809 122.543 19.4815 122.125 19.6187C121.707 19.7558 121.251 19.8243 120.756 19.8243C120.1 19.8243 119.493 19.6856 118.934 19.4079C118.376 19.1304 117.893 18.734 117.484 18.2189C117.076 17.7037 116.767 17.0984 116.556 16.4026C116.346 15.707 116.24 14.9544 116.24 14.145C116.24 12.4325 116.658 11.0979 117.495 10.1413C118.331 9.18468 119.431 8.70631 120.796 8.70631C121.585 8.70631 122.251 8.84188 122.793 9.11278C123.334 9.38368 123.863 9.80008 124.378 10.362V6.3182C124.378 5.75631 124.49 5.33144 124.714 5.04383C124.938 4.75623 125.258 4.6123 125.672 4.6123C126.087 4.6123 126.407 4.74449 126.631 5.00873C126.855 5.27297 126.967 5.66262 126.967 6.17767V18.259C126.967 18.7808 126.846 19.1722 126.606 19.433C126.365 19.694 126.054 19.8243 125.672 19.8243C125.298 19.8243 124.988 19.6889 124.744 19.418C124.5 19.1471 124.378 18.7607 124.378 18.259V18.259ZM118.99 14.2353C118.99 14.9778 119.105 15.61 119.336 16.1317C119.567 16.6536 119.883 17.0466 120.284 17.3108C120.685 17.5751 121.124 17.7071 121.599 17.7071C122.08 17.7071 122.52 17.5817 122.918 17.3308C123.316 17.08 123.634 16.6953 123.871 16.1769C124.109 15.6584 124.228 15.0112 124.228 14.2353C124.228 13.5061 124.109 12.879 123.871 12.3539C123.634 11.8287 123.313 11.4273 122.908 11.1497C122.503 10.8721 122.06 10.7333 121.578 10.7333C121.077 10.7333 120.628 10.8754 120.234 11.1598C119.839 11.4441 119.533 11.8522 119.316 12.3839C119.098 12.9158 118.99 13.5329 118.99 14.2353V14.2353Z" fill="white"/>
<path d="M134.94 9.23239H135.581V8.42465C135.581 7.58411 135.687 6.91594 135.901 6.42002C136.114 5.92422 136.475 5.56302 136.984 5.33654C137.493 5.10994 138.191 4.99664 139.078 4.99664C140.647 4.99664 141.432 5.38084 141.432 6.14912C141.432 6.39871 141.35 6.61212 141.186 6.78945C141.022 6.96678 140.828 7.05539 140.604 7.05539C140.499 7.05539 140.319 7.03578 140.063 6.99632C139.807 6.95698 139.59 6.93725 139.413 6.93725C138.927 6.93725 138.615 7.08008 138.477 7.36575C138.339 7.65141 138.27 8.06019 138.27 8.59218V9.23239H138.93C139.954 9.23239 140.467 9.54106 140.467 10.1584C140.467 10.5984 140.33 10.8775 140.058 10.9958C139.785 11.1139 139.409 11.173 138.93 11.173H138.27V18.2951C138.27 18.8271 138.143 19.2326 137.891 19.5117C137.638 19.7907 137.311 19.9303 136.91 19.9303C136.53 19.9303 136.213 19.7907 135.96 19.5117C135.707 19.2326 135.581 18.8271 135.581 18.2951V11.173H134.842C134.441 11.173 134.133 11.0827 133.916 10.9021C133.699 10.7215 133.591 10.4868 133.591 10.1979C133.591 9.55425 134.041 9.23239 134.94 9.23239V9.23239Z" fill="white"/>
<path d="M152.954 14.2718C152.954 15.088 152.827 15.8406 152.572 16.5296C152.318 17.2187 151.95 17.8107 151.469 18.3057C150.987 18.8007 150.412 19.1803 149.743 19.4446C149.074 19.7088 148.321 19.8409 147.485 19.8409C146.655 19.8409 145.91 19.7071 145.247 19.4395C144.585 19.172 144.011 18.789 143.526 18.2907C143.041 17.7923 142.674 17.2036 142.423 16.5246C142.172 15.8457 142.046 15.0947 142.046 14.2718C142.046 13.4424 142.173 12.6831 142.428 11.9941C142.682 11.3051 143.046 10.7164 143.521 10.2281C143.996 9.73976 144.572 9.36343 145.247 9.09918C145.923 8.83494 146.669 8.70288 147.485 8.70288C148.314 8.70288 149.067 8.83664 149.743 9.10427C150.418 9.37178 150.997 9.75307 151.479 10.2481C151.96 10.7431 152.327 11.3319 152.577 12.0142C152.828 12.6965 152.954 13.4491 152.954 14.2718ZM150.204 14.2718C150.204 13.1547 149.958 12.2851 149.467 11.6629C148.975 11.0409 148.314 10.7298 147.485 10.7298C146.95 10.7298 146.478 10.8686 146.07 11.1462C145.662 11.4239 145.348 11.8336 145.127 12.3754C144.906 12.9172 144.796 13.5494 144.796 14.2718C144.796 14.9877 144.905 15.6131 145.122 16.1483C145.339 16.6834 145.65 17.0932 146.055 17.3775C146.46 17.6618 146.936 17.8039 147.485 17.8039C148.314 17.8039 148.975 17.4913 149.467 16.8657C149.958 16.2403 150.204 15.3756 150.204 14.2718V14.2718Z" fill="white"/>
<path d="M157.799 15.8874V18.1752C157.799 18.7304 157.668 19.1469 157.408 19.4245C157.147 19.7022 156.816 19.8409 156.414 19.8409C156.019 19.8409 155.695 19.7005 155.441 19.4195C155.187 19.1386 155.06 18.7238 155.06 18.1752V10.5492C155.06 9.31828 155.504 8.70288 156.394 8.70288C156.849 8.70288 157.177 8.84668 157.377 9.13429C157.578 9.42201 157.689 9.84676 157.709 10.4087C158.036 9.84676 158.373 9.42201 158.717 9.13429C159.062 8.84668 159.522 8.70288 160.097 8.70288C160.672 8.70288 161.231 8.84668 161.773 9.13429C162.314 9.42201 162.585 9.80331 162.585 10.2782C162.585 10.6127 162.47 10.8886 162.239 11.106C162.008 11.3235 161.759 11.4322 161.492 11.4322C161.391 11.4322 161.149 11.3702 160.764 11.2465C160.379 11.1228 160.04 11.0608 159.746 11.0608C159.344 11.0608 159.016 11.1663 158.762 11.377C158.508 11.5878 158.311 11.9004 158.17 12.3152C158.03 12.7299 157.933 13.2233 157.879 13.7953C157.826 14.3672 157.799 15.0646 157.799 15.8874Z" fill="white"/>
<path d="M182.286 15.202C182.286 15.6704 182.171 16.1771 181.94 16.7223C181.709 17.2674 181.346 17.8026 180.851 18.3277C180.356 18.8529 179.724 19.2793 178.955 19.6071C178.186 19.9349 177.289 20.0988 176.266 20.0988C175.49 20.0988 174.784 20.0252 174.148 19.878C173.513 19.7308 172.936 19.5017 172.417 19.1907C171.899 18.8797 171.422 18.4699 170.988 17.9615C170.6 17.4999 170.268 16.9831 169.994 16.4112C169.72 15.8392 169.514 15.2288 169.377 14.5799C169.24 13.9311 169.171 13.242 169.171 12.5129C169.171 11.3288 169.344 10.2685 169.688 9.33194C170.033 8.39541 170.526 7.59433 171.168 6.9287C171.81 6.26319 172.563 5.75637 173.426 5.40849C174.289 5.06072 175.209 4.88678 176.185 4.88678C177.376 4.88678 178.436 5.12427 179.366 5.59925C180.296 6.07412 181.009 6.66119 181.504 7.36023C181.999 8.05926 182.246 8.71993 182.246 9.34198C182.246 9.68321 182.126 9.98425 181.885 10.2451C181.644 10.506 181.353 10.6364 181.012 10.6364C180.631 10.6364 180.344 10.5461 180.154 10.3655C179.963 10.1848 179.751 9.87386 179.517 9.43228C179.129 8.70311 178.672 8.15792 178.147 7.79672C177.622 7.43552 176.975 7.25492 176.205 7.25492C174.981 7.25492 174.006 7.71973 173.28 8.6496C172.555 9.57948 172.192 10.9007 172.192 12.6132C172.192 13.7571 172.352 14.7087 172.673 15.468C172.994 16.2272 173.449 16.7942 174.038 17.1688C174.627 17.5434 175.316 17.7307 176.105 17.7307C176.961 17.7307 177.685 17.5183 178.278 17.0935C178.87 16.6688 179.316 16.0449 179.617 15.2221C179.744 14.8341 179.901 14.518 180.089 14.2739C180.276 14.0297 180.577 13.9076 180.992 13.9076C181.346 13.9076 181.651 14.0314 181.905 14.2788C182.159 14.5264 182.286 14.8341 182.286 15.202V15.202Z" fill="white"/>
<path d="M187.505 16.1344V18.4223C187.505 18.9776 187.374 19.3939 187.113 19.6716C186.852 19.9492 186.521 20.088 186.12 20.088C185.725 20.088 185.401 19.9475 185.146 19.6665C184.892 19.3856 184.765 18.9709 184.765 18.4223V10.7962C184.765 9.56529 185.21 8.94989 186.1 8.94989C186.555 8.94989 186.882 9.09369 187.083 9.38142C187.284 9.66902 187.394 10.0938 187.414 10.6558C187.742 10.0938 188.078 9.66902 188.423 9.38142C188.767 9.09369 189.227 8.94989 189.802 8.94989C190.378 8.94989 190.936 9.09369 191.478 9.38142C192.02 9.66902 192.291 10.0503 192.291 10.5253C192.291 10.8597 192.175 11.1357 191.945 11.3531C191.714 11.5705 191.465 11.6792 191.197 11.6792C191.097 11.6792 190.854 11.6174 190.47 11.4935C190.085 11.3698 189.745 11.308 189.451 11.308C189.05 11.308 188.722 11.4133 188.468 11.624C188.214 11.8348 188.016 12.1476 187.876 12.5623C187.735 12.977 187.638 13.4703 187.585 14.0423C187.531 14.6142 187.505 15.3117 187.505 16.1344Z" fill="white"/>
<path d="M196.509 10.5054V18.4225C196.509 18.9711 196.379 19.3858 196.118 19.6667C195.857 19.9476 195.526 20.0882 195.125 20.0882C194.723 20.0882 194.397 19.9444 194.146 19.6567C193.895 19.3691 193.77 18.9576 193.77 18.4225V10.5856C193.77 10.0438 193.895 9.63577 194.146 9.36149C194.397 9.0872 194.723 8.95005 195.125 8.95005C195.526 8.95005 195.857 9.0872 196.118 9.36149C196.379 9.63577 196.509 10.0171 196.509 10.5054V10.5054ZM195.155 7.67568C194.773 7.67568 194.447 7.55863 194.176 7.32453C193.905 7.09031 193.77 6.75925 193.77 6.33111C193.77 5.94316 193.909 5.62372 194.186 5.37279C194.464 5.12198 194.787 4.99658 195.155 4.99658C195.509 4.99658 195.824 5.11024 196.098 5.33769C196.372 5.56513 196.509 5.89631 196.509 6.33111C196.509 6.75259 196.376 7.08196 196.108 7.31945C195.84 7.55694 195.523 7.67568 195.155 7.67568V7.67568Z" fill="white"/>
<path d="M208.159 16.5058C208.159 17.2616 207.975 17.9088 207.607 18.4474C207.239 18.9859 206.695 19.3939 205.976 19.6716C205.257 19.9492 204.383 20.088 203.352 20.088C202.369 20.088 201.526 19.9374 200.824 19.6364C200.121 19.3355 199.603 18.9592 199.268 18.5077C198.934 18.056 198.767 17.6028 198.767 17.1479C198.767 16.8469 198.874 16.5893 199.088 16.3753C199.302 16.1612 199.573 16.0542 199.9 16.0542C200.188 16.0542 200.409 16.1244 200.563 16.2649C200.717 16.4055 200.864 16.6028 201.004 16.857C201.285 17.3452 201.621 17.7098 202.013 17.9507C202.404 18.1915 202.938 18.3119 203.613 18.3119C204.162 18.3119 204.612 18.1898 204.963 17.9456C205.314 17.7015 205.49 17.4222 205.49 17.1078C205.49 16.6261 205.307 16.275 204.943 16.0542C204.578 15.8334 203.978 15.6228 203.142 15.4221C202.198 15.1879 201.431 14.942 200.839 14.6845C200.247 14.427 199.773 14.0874 199.419 13.6661C199.064 13.2446 198.887 12.7262 198.887 12.1108C198.887 11.5622 199.051 11.0437 199.379 10.5554C199.707 10.067 200.19 9.67737 200.829 9.38638C201.467 9.09539 202.238 8.94989 203.142 8.94989C203.851 8.94989 204.488 9.02349 205.053 9.17068C205.618 9.31787 206.09 9.51517 206.468 9.76271C206.846 10.0103 207.134 10.2844 207.331 10.5855C207.528 10.8865 207.627 11.1809 207.627 11.4685C207.627 11.783 207.522 12.0404 207.311 12.2411C207.1 12.4418 206.801 12.5422 206.413 12.5422C206.132 12.5422 205.893 12.4619 205.695 12.3014C205.498 12.1408 205.272 11.9 205.018 11.5789C204.811 11.3112 204.566 11.0972 204.285 10.9367C204.004 10.7761 203.623 10.6959 203.142 10.6959C202.646 10.6959 202.235 10.8013 201.907 11.0119C201.58 11.2226 201.416 11.4852 201.416 11.7997C201.416 12.0873 201.536 12.3231 201.777 12.5071C202.018 12.691 202.342 12.8432 202.75 12.9636C203.158 13.0841 203.72 13.2312 204.436 13.4051C205.286 13.6126 205.98 13.86 206.518 14.1477C207.057 14.4353 207.465 14.7748 207.742 15.1662C208.02 15.5575 208.159 16.0041 208.159 16.5058V16.5058Z" fill="white"/>
<path d="M213.201 10.5054V18.4225C213.201 18.9711 213.071 19.3858 212.81 19.6667C212.549 19.9476 212.218 20.0882 211.817 20.0882C211.415 20.0882 211.089 19.9444 210.838 19.6567C210.587 19.3691 210.462 18.9576 210.462 18.4225V10.5856C210.462 10.0438 210.587 9.63577 210.838 9.36149C211.089 9.0872 211.415 8.95005 211.817 8.95005C212.218 8.95005 212.549 9.0872 212.81 9.36149C213.071 9.63577 213.201 10.0171 213.201 10.5054V10.5054ZM211.847 7.67568C211.465 7.67568 211.139 7.55863 210.868 7.32453C210.597 7.09031 210.462 6.75925 210.462 6.33111C210.462 5.94316 210.601 5.62372 210.878 5.37279C211.156 5.12198 211.479 4.99658 211.847 4.99658C212.201 4.99658 212.516 5.11024 212.79 5.33769C213.064 5.56513 213.201 5.89631 213.201 6.33111C213.201 6.75259 213.067 7.08196 212.8 7.31945C212.532 7.55694 212.215 7.67568 211.847 7.67568V7.67568Z" fill="white"/>
<path d="M224.851 16.5058C224.851 17.2616 224.667 17.9088 224.299 18.4474C223.931 18.9859 223.387 19.3939 222.668 19.6716C221.949 19.9492 221.074 20.088 220.044 20.088C219.061 20.088 218.218 19.9374 217.515 19.6364C216.813 19.3355 216.295 18.9592 215.96 18.5077C215.626 18.056 215.458 17.6028 215.458 17.1479C215.458 16.8469 215.565 16.5893 215.78 16.3753C215.994 16.1612 216.265 16.0542 216.592 16.0542C216.88 16.0542 217.101 16.1244 217.255 16.2649C217.408 16.4055 217.556 16.6028 217.696 16.857C217.977 17.3452 218.313 17.7098 218.705 17.9507C219.096 18.1915 219.629 18.3119 220.305 18.3119C220.854 18.3119 221.303 18.1898 221.655 17.9456C222.006 17.7015 222.181 17.4222 222.181 17.1078C222.181 16.6261 221.999 16.275 221.635 16.0542C221.27 15.8334 220.67 15.6228 219.833 15.4221C218.89 15.1879 218.123 14.942 217.531 14.6845C216.939 14.427 216.465 14.0874 216.111 13.6661C215.756 13.2446 215.579 12.7262 215.579 12.1108C215.579 11.5622 215.743 11.0437 216.07 10.5554C216.398 10.067 216.882 9.67737 217.52 9.38638C218.159 9.09539 218.93 8.94989 219.833 8.94989C220.543 8.94989 221.18 9.02349 221.745 9.17068C222.31 9.31787 222.782 9.51517 223.16 9.76271C223.538 10.0103 223.825 10.2844 224.023 10.5855C224.22 10.8865 224.319 11.1809 224.319 11.4685C224.319 11.783 224.213 12.0404 224.003 12.2411C223.792 12.4418 223.493 12.5422 223.105 12.5422C222.824 12.5422 222.584 12.4619 222.387 12.3014C222.19 12.1408 221.964 11.9 221.71 11.5789C221.502 11.3112 221.258 11.0972 220.977 10.9367C220.696 10.7761 220.315 10.6959 219.833 10.6959C219.338 10.6959 218.927 10.8013 218.599 11.0119C218.271 11.2226 218.107 11.4852 218.107 11.7997C218.107 12.0873 218.228 12.3231 218.469 12.5071C218.71 12.691 219.034 12.8432 219.442 12.9636C219.85 13.0841 220.412 13.2312 221.128 13.4051C221.977 13.6126 222.671 13.86 223.21 14.1477C223.748 14.4353 224.157 14.7748 224.434 15.1662C224.712 15.5575 224.851 16.0041 224.851 16.5058V16.5058Z" fill="white"/>
</svg>
