<svg width="160" height="24" viewBox="0 0 160 24" fill="none" xmlns="http://www.w3.org/2000/svg">
<path fill-rule="evenodd" clip-rule="evenodd" d="M24.8189 19.7968C25.2537 20.2316 25.9597 20.2317 26.3949 19.7965L33.2233 12.9681C33.6581 12.5333 33.6581 11.8273 33.2232 11.3924C32.7884 10.9576 32.0824 10.9575 31.6476 11.3924L24.8192 18.2208C24.3839 18.656 24.384 19.362 24.8189 19.7968Z" fill="#7BBB78"/>
<path fill-rule="evenodd" clip-rule="evenodd" d="M24.8188 11.3944C24.384 11.8292 24.3839 12.5352 24.8192 12.9705L31.6476 19.7989C32.0824 20.2337 32.7884 20.2336 33.2232 19.7988C33.6581 19.3639 33.6581 18.658 33.2233 18.2232L26.3949 11.3947C25.9597 10.9595 25.2537 10.9596 24.8188 11.3944Z" fill="#7BBB78"/>
<path fill-rule="evenodd" clip-rule="evenodd" d="M14.51 12.6056C14.9448 13.0404 15.6508 13.0405 16.086 12.6053L22.9144 5.77686C23.3492 5.34204 23.3492 4.63603 22.9143 4.20121C22.4795 3.76634 21.7735 3.76631 21.3387 4.20113L14.5103 11.0295C14.075 11.4648 14.0751 12.1707 14.51 12.6056Z" fill="#66B6E1"/>
<path fill-rule="evenodd" clip-rule="evenodd" d="M14.5099 4.20319C14.0751 4.63802 14.075 5.34402 14.5103 5.77925L21.3387 12.6077C21.7735 13.0425 22.4795 13.0424 22.9143 12.6076C23.3492 12.1727 23.3492 11.4668 22.9144 11.0319L16.086 4.20352C15.6508 3.76828 14.9448 3.76833 14.5099 4.20319Z" fill="#66B6E1"/>
<path fill-rule="evenodd" clip-rule="evenodd" d="M4.20121 19.7968C4.63603 20.2316 5.34203 20.2317 5.77727 19.7965L12.6057 12.9681C13.0405 12.5333 13.0404 11.8273 12.6056 11.3924C12.1707 10.9576 11.4648 10.9575 11.0299 11.3924L4.20154 18.2208C3.7663 18.656 3.76635 19.362 4.20121 19.7968Z" fill="#DD4B50"/>
<path fill-rule="evenodd" clip-rule="evenodd" d="M4.2012 11.3944C3.76637 11.8292 3.76629 12.5352 4.20152 12.9705L11.0299 19.7989C11.4648 20.2337 12.1708 20.2336 12.6056 19.7988C13.0404 19.3639 13.0405 18.658 12.6057 18.2232L5.77725 11.3947C5.34202 10.9595 4.63606 10.9596 4.2012 11.3944Z" fill="#DD4B50"/>
<path d="M46.1886 13.9916C46.1886 14.3117 46.1051 14.6456 45.952 15.0213C45.799 15.3831 45.5485 15.7449 45.2145 16.1067C44.8806 16.4685 44.4492 16.7468 43.9344 16.9694C43.4056 17.192 42.8073 17.3033 42.1115 17.3033C41.5828 17.3033 41.1097 17.2616 40.6783 17.1503C40.247 17.0529 39.8573 16.8998 39.5095 16.6911C39.1616 16.4824 38.8277 16.2041 38.5354 15.8562C38.2711 15.5501 38.0484 15.2022 37.8675 14.8126C37.6727 14.423 37.5336 14.0055 37.4501 13.5742C37.3527 13.1289 37.3109 12.6697 37.3109 12.1688C37.3109 11.3617 37.4223 10.6521 37.6588 10.012C37.8954 9.38583 38.2293 8.84316 38.6607 8.38397C39.092 7.9387 39.6069 7.59083 40.1913 7.35428C40.7757 7.11773 41.4019 7.00641 42.0559 7.00641C42.8629 7.00641 43.5865 7.17339 44.2127 7.49343C44.8388 7.81347 45.3259 8.20308 45.6598 8.67618C45.9938 9.14928 46.1607 9.59456 46.1607 10.0259C46.1607 10.2486 46.0773 10.4573 45.9103 10.6382C45.7572 10.8051 45.5624 10.9025 45.3259 10.9025C45.0615 10.9025 44.8806 10.833 44.7414 10.7217C44.6162 10.5964 44.4771 10.3877 44.3101 10.0816C44.0457 9.59456 43.7396 9.21886 43.3917 8.98231C43.0299 8.73184 42.5986 8.60661 42.0698 8.60661C41.2488 8.60661 40.5809 8.92665 40.0939 9.55281C39.593 10.179 39.3564 11.0834 39.3564 12.2384C39.3564 13.0176 39.4677 13.6577 39.6765 14.1725C39.8991 14.6874 40.2052 15.0631 40.6087 15.3274C40.9984 15.5779 41.4715 15.7031 42.0002 15.7031C42.5846 15.7031 43.0717 15.564 43.4752 15.2718C43.8787 14.9796 44.1709 14.5621 44.3797 14.0055C44.4631 13.7412 44.5745 13.5324 44.6997 13.3655C44.8249 13.1985 45.0336 13.115 45.3119 13.115C45.5485 13.115 45.7572 13.1985 45.9242 13.3655C46.1051 13.5324 46.1886 13.7412 46.1886 13.9916Z" fill="#0A1B30"/>
<path d="M49.7136 14.632V16.1766C49.7136 16.5523 49.6302 16.8306 49.4493 17.0254C49.2684 17.2063 49.0457 17.3037 48.7814 17.3037C48.517 17.3037 48.2943 17.2063 48.1134 17.0254C47.9465 16.8306 47.863 16.5523 47.863 16.1766V11.0142C47.863 10.1793 48.1691 9.76187 48.7674 9.76187C49.0736 9.76187 49.2962 9.85927 49.4353 10.0541C49.5606 10.2489 49.6441 10.5411 49.658 10.9168C49.8806 10.5411 50.1033 10.2489 50.3398 10.0541C50.5764 9.85927 50.8825 9.76187 51.2721 9.76187C51.6617 9.76187 52.0374 9.85927 52.4131 10.0541C52.7749 10.2489 52.9558 10.5133 52.9558 10.8333C52.9558 11.0559 52.8723 11.2508 52.7192 11.3899C52.5662 11.543 52.3992 11.6125 52.2183 11.6125C52.1487 11.6125 51.9818 11.5708 51.7174 11.4873C51.4669 11.4038 51.2304 11.3621 51.0355 11.3621C50.7572 11.3621 50.5346 11.4316 50.3676 11.5708C50.2007 11.7239 50.0615 11.9326 49.9641 12.2109C49.8667 12.4892 49.811 12.8231 49.7693 13.2127C49.7276 13.6023 49.7136 14.0755 49.7136 14.632Z" fill="#0A1B30"/>
<path d="M58.8014 13.9917H55.1697C55.1836 14.4091 55.2671 14.7848 55.4202 15.1048C55.5871 15.4249 55.8098 15.6753 56.0881 15.8284C56.3664 15.9954 56.6586 16.0789 56.9925 16.0789C57.2152 16.0789 57.4239 16.051 57.6048 15.9954C57.7857 15.9397 57.9666 15.8702 58.1335 15.7588C58.3005 15.6475 58.4675 15.5223 58.6066 15.397C58.7597 15.2718 58.9406 15.1048 59.1771 14.8822C59.2746 14.7987 59.3998 14.757 59.5807 14.757C59.7755 14.757 59.9285 14.8126 60.0399 14.91C60.1651 15.0214 60.2208 15.1605 60.2208 15.3553C60.2208 15.5223 60.1512 15.7171 60.0259 15.9397C59.8868 16.1624 59.692 16.385 59.4276 16.5937C59.1632 16.8024 58.8293 16.9694 58.4258 17.1086C58.0222 17.2338 57.563 17.3034 57.0482 17.3034C55.8515 17.3034 54.9331 16.9694 54.2652 16.2876C53.6112 15.6058 53.2773 14.6874 53.2773 13.5186C53.2773 12.9759 53.3608 12.461 53.5277 12.0018C53.6808 11.5287 53.9174 11.1252 54.2374 10.7913C54.5435 10.4573 54.9331 10.1929 55.3923 10.0259C55.8515 9.84505 56.3524 9.74765 56.909 9.74765C57.6326 9.74765 58.2588 9.90071 58.7736 10.2068C59.2885 10.513 59.6781 10.9165 59.9425 11.3896C60.2068 11.8766 60.3321 12.3775 60.3321 12.8785C60.3321 13.3377 60.1929 13.6438 59.9285 13.7829C59.6642 13.9221 59.2885 13.9917 58.8014 13.9917ZM55.1697 12.9341H58.5371C58.4953 12.308 58.3144 11.8349 58.0222 11.5148C57.73 11.1948 57.3404 11.0417 56.8534 11.0417C56.3942 11.0417 56.0046 11.1948 55.7124 11.5148C55.4202 11.8349 55.2393 12.308 55.1697 12.9341Z" fill="#0A1B30"/>
<path d="M66.5823 16.2598C66.137 16.6076 65.6918 16.872 65.2743 17.039C64.8569 17.2199 64.3838 17.3034 63.8689 17.3034C63.3958 17.3034 62.9784 17.206 62.6166 17.0251C62.2548 16.8303 61.9765 16.5798 61.7817 16.2598C61.5869 15.9397 61.4895 15.5919 61.4895 15.2162C61.4895 14.7013 61.6565 14.27 61.9765 13.9221C62.2966 13.5603 62.7418 13.3237 63.2984 13.1985C63.4097 13.1707 63.702 13.1011 64.1751 13.0176C64.6342 12.9202 65.0378 12.8367 65.3717 12.7532C65.7057 12.6698 66.0675 12.5724 66.4571 12.461C66.4292 11.974 66.3318 11.6122 66.1649 11.3896C65.984 11.153 65.6222 11.0417 65.0795 11.0417C64.6064 11.0417 64.2585 11.1113 64.0081 11.2365C63.7715 11.3757 63.5767 11.5705 63.3958 11.8349C63.2288 12.0992 63.1175 12.2662 63.048 12.3497C62.9784 12.4332 62.8253 12.4749 62.5888 12.4749C62.38 12.4749 62.1992 12.4054 62.0461 12.2801C61.893 12.141 61.8235 11.974 61.8235 11.7653C61.8235 11.4313 61.9348 11.1252 62.1713 10.8052C62.394 10.499 62.7557 10.2486 63.2567 10.0538C63.7437 9.84505 64.342 9.74765 65.0795 9.74765C65.8866 9.74765 66.5406 9.84505 66.9998 10.0399C67.4729 10.2347 67.7929 10.5408 67.9877 10.9582C68.1825 11.3757 68.2799 11.9184 68.2799 12.6141C68.2799 13.0455 68.2799 13.4212 68.2799 13.7134C68.266 14.0195 68.266 14.3534 68.266 14.7291C68.266 15.077 68.3217 15.4388 68.433 15.8284C68.5582 16.2041 68.6139 16.4407 68.6139 16.552C68.6139 16.7468 68.5165 16.9138 68.3356 17.0668C68.1686 17.2338 67.9599 17.3034 67.7372 17.3034C67.5424 17.3034 67.3615 17.2199 67.1667 17.039C66.9858 16.8581 66.791 16.5937 66.5823 16.2598ZM66.4571 13.5742C66.1788 13.6716 65.7892 13.7829 65.2743 13.8943C64.7456 14.0056 64.3977 14.0891 64.189 14.1308C63.9942 14.1865 63.7994 14.2839 63.6185 14.4369C63.4376 14.59 63.3541 14.8126 63.3541 15.077C63.3541 15.3553 63.4515 15.5919 63.6741 15.8006C63.8828 15.9954 64.1611 16.0928 64.509 16.0928C64.8708 16.0928 65.2187 16.0093 65.5248 15.8423C65.8309 15.6893 66.0535 15.4805 66.2066 15.2301C66.3736 14.9518 66.4571 14.4787 66.4571 13.8386V13.5742Z" fill="#0A1B30"/>
<path d="M69.9126 9.9293H70.1214V8.81611C70.1214 8.50999 70.1214 8.28735 70.1492 8.10646C70.1631 7.93948 70.2049 7.80034 70.2744 7.6751C70.344 7.54987 70.4553 7.43855 70.5945 7.36898C70.7197 7.28549 70.8728 7.24374 71.0397 7.24374C71.2763 7.24374 71.485 7.32723 71.6798 7.50813C71.8051 7.63336 71.8885 7.77251 71.9164 7.93948C71.9581 8.10646 71.972 8.35693 71.972 8.66305V9.9293H72.6539C72.9182 9.9293 73.113 9.98496 73.2522 10.1102C73.3913 10.2354 73.4609 10.4024 73.4609 10.5972C73.4609 10.8477 73.3635 11.0146 73.1687 11.1121C72.9739 11.2234 72.6817 11.2651 72.3199 11.2651H71.972V14.6742C71.972 14.9664 71.9859 15.1891 71.9999 15.3421C72.0277 15.5091 72.0833 15.6344 72.1668 15.7318C72.2503 15.8292 72.4034 15.8709 72.5982 15.8709C72.7095 15.8709 72.8487 15.857 73.0435 15.8152C73.2244 15.7735 73.3774 15.7596 73.4748 15.7596C73.6279 15.7596 73.7531 15.8152 73.8784 15.9405C74.0036 16.0518 74.0592 16.2049 74.0592 16.3858C74.0592 16.678 73.8923 16.9145 73.5722 17.0676C73.2383 17.2346 72.7791 17.3041 72.1668 17.3041C71.5824 17.3041 71.1511 17.2067 70.8449 17.0119C70.5527 16.8171 70.3579 16.5527 70.2605 16.2049C70.1631 15.857 70.1214 15.3978 70.1214 14.8273V11.2651H69.8709C69.6065 11.2651 69.3978 11.2095 69.2586 11.0703C69.1195 10.9451 69.0499 10.792 69.0499 10.5972C69.0499 10.4024 69.1195 10.2354 69.2726 10.1102C69.4256 9.98496 69.6343 9.9293 69.9126 9.9293Z" fill="#0A1B30"/>
<path d="M79.9181 13.9917H76.2864C76.3003 14.4091 76.3838 14.7848 76.5368 15.1048C76.7038 15.4249 76.9264 15.6753 77.2047 15.8284C77.483 15.9954 77.7752 16.0789 78.1092 16.0789C78.3318 16.0789 78.5406 16.051 78.7214 15.9954C78.9023 15.9397 79.0832 15.8702 79.2502 15.7588C79.4172 15.6475 79.5842 15.5223 79.7233 15.397C79.8764 15.2718 80.0573 15.1048 80.2938 14.8822C80.3912 14.7987 80.5165 14.757 80.6973 14.757C80.8922 14.757 81.0452 14.8126 81.1565 14.91C81.2818 15.0214 81.3374 15.1605 81.3374 15.3553C81.3374 15.5223 81.2679 15.7171 81.1426 15.9397C81.0035 16.1624 80.8087 16.385 80.5443 16.5937C80.2799 16.8024 79.9459 16.9694 79.5424 17.1086C79.1389 17.2338 78.6797 17.3034 78.1649 17.3034C76.9682 17.3034 76.0498 16.9694 75.3819 16.2876C74.7279 15.6058 74.394 14.6874 74.394 13.5186C74.394 12.9759 74.4774 12.461 74.6444 12.0018C74.7975 11.5287 75.034 11.1252 75.3541 10.7913C75.6602 10.4573 76.0498 10.1929 76.509 10.0259C76.9682 9.84505 77.4691 9.74765 78.0257 9.74765C78.7493 9.74765 79.3754 9.90071 79.8903 10.2068C80.4051 10.513 80.7947 10.9165 81.0591 11.3896C81.3235 11.8766 81.4487 12.3775 81.4487 12.8785C81.4487 13.3377 81.3096 13.6438 81.0452 13.7829C80.7808 13.9221 80.4051 13.9917 79.9181 13.9917ZM76.2864 12.9341H79.6537C79.612 12.308 79.4311 11.8349 79.1389 11.5148C78.8467 11.1948 78.4571 11.0417 77.97 11.0417C77.5109 11.0417 77.1212 11.1948 76.829 11.5148C76.5368 11.8349 76.3559 12.308 76.2864 12.9341Z" fill="#0A1B30"/>
<path d="M88.0887 16.2458V16.0649C87.8382 16.3432 87.6017 16.5798 87.3512 16.7607C87.1146 16.9416 86.8503 17.0807 86.5581 17.1642C86.2798 17.2616 85.9736 17.3033 85.6397 17.3033C85.1944 17.3033 84.777 17.2059 84.4013 17.025C84.0256 16.8302 83.6916 16.5659 83.4272 16.218C83.1489 15.8701 82.9402 15.4666 82.7872 14.9935C82.648 14.5204 82.5784 14.0055 82.5784 13.4629C82.5784 12.3079 82.8567 11.4035 83.4272 10.7495C83.9977 10.0955 84.7352 9.77545 85.6675 9.77545C86.1963 9.77545 86.6555 9.87285 87.0172 10.0537C87.379 10.2346 87.7408 10.5129 88.0887 10.9025V8.16134C88.0887 7.78564 88.1722 7.49343 88.3113 7.29862C88.4644 7.10381 88.687 7.00641 88.9653 7.00641C89.2436 7.00641 89.4662 7.0899 89.6193 7.27079C89.7724 7.45168 89.8419 7.71606 89.8419 8.06393V16.2458C89.8419 16.5937 89.7585 16.8581 89.5915 17.039C89.4384 17.2199 89.2297 17.3033 88.9653 17.3033C88.7148 17.3033 88.5061 17.2199 88.3391 17.025C88.1722 16.8442 88.0887 16.5798 88.0887 16.2458ZM84.443 13.5185C84.443 14.0195 84.5126 14.4508 84.6796 14.8126C84.8326 15.1605 85.0413 15.4248 85.3196 15.6057C85.584 15.7866 85.8901 15.8701 86.2102 15.8701C86.5302 15.8701 86.8364 15.7866 87.1007 15.6197C87.3651 15.4527 87.5877 15.1883 87.7408 14.8404C87.9078 14.4786 87.9913 14.0473 87.9913 13.5185C87.9913 13.0315 87.9078 12.6001 87.7408 12.2523C87.5877 11.8905 87.3651 11.6261 87.1007 11.4313C86.8224 11.2504 86.5163 11.153 86.1963 11.153C85.8484 11.153 85.5562 11.2504 85.2779 11.4452C85.0135 11.6261 84.8048 11.9044 84.6656 12.2662C84.5126 12.628 84.443 13.0454 84.443 13.5185Z" fill="#0A1B30"/>
<path d="M101.757 8.73338H97.777V11.2798H101.103C101.409 11.2798 101.645 11.3494 101.798 11.4885C101.937 11.6277 102.021 11.8085 102.021 12.0451C102.021 12.2677 101.937 12.4625 101.784 12.5878C101.631 12.7269 101.409 12.7965 101.103 12.7965H97.777V16.0804C97.777 16.4978 97.6796 16.804 97.4987 16.9988C97.3039 17.2075 97.0673 17.3049 96.7751 17.3049C96.469 17.3049 96.2324 17.2075 96.0376 16.9988C95.8567 16.804 95.7593 16.4839 95.7593 16.0804V8.41334C95.7593 8.12113 95.8011 7.88458 95.8846 7.70369C95.982 7.5228 96.1072 7.38365 96.302 7.30016C96.4829 7.21667 96.7195 7.17493 96.9978 7.17493H101.757C102.077 7.17493 102.313 7.2445 102.466 7.39756C102.633 7.53671 102.703 7.7176 102.703 7.95415C102.703 8.19071 102.633 8.3716 102.466 8.52466C102.313 8.66381 102.077 8.73338 101.757 8.73338Z" fill="#0A1B30"/>
<path d="M110.494 13.5352C110.494 14.0917 110.41 14.6066 110.229 15.0658C110.063 15.5389 109.812 15.9285 109.492 16.2625C109.158 16.6103 108.768 16.8608 108.323 17.0417C107.864 17.2226 107.349 17.3061 106.793 17.3061C106.222 17.3061 105.721 17.2226 105.276 17.0417C104.831 16.8608 104.441 16.5964 104.107 16.2625C103.787 15.9285 103.536 15.525 103.356 15.0658C103.189 14.6066 103.105 14.0917 103.105 13.5352C103.105 12.9786 103.189 12.4637 103.37 11.9906C103.536 11.5314 103.787 11.1279 104.107 10.7939C104.427 10.4739 104.817 10.2095 105.276 10.0425C105.735 9.86165 106.236 9.76425 106.793 9.76425C107.349 9.76425 107.864 9.86165 108.323 10.0425C108.768 10.2234 109.172 10.4739 109.492 10.8079C109.826 11.1418 110.063 11.5453 110.243 12.0045C110.41 12.4776 110.494 12.9786 110.494 13.5352ZM108.629 13.5352C108.629 12.7838 108.462 12.1993 108.128 11.768C107.794 11.3505 107.349 11.1418 106.793 11.1418C106.431 11.1418 106.111 11.2392 105.832 11.4201C105.554 11.6149 105.345 11.8932 105.192 12.255C105.039 12.6168 104.97 13.0481 104.97 13.5352C104.97 14.0222 105.039 14.4396 105.192 14.8153C105.331 15.1771 105.54 15.4415 105.819 15.6363C106.097 15.8311 106.417 15.9285 106.793 15.9285C107.349 15.9285 107.794 15.7198 108.128 15.2884C108.462 14.871 108.629 14.2866 108.629 13.5352Z" fill="#0A1B30"/>
<path d="M113.793 14.6344V16.179C113.793 16.5547 113.709 16.833 113.529 17.0278C113.348 17.2087 113.125 17.3061 112.861 17.3061C112.596 17.3061 112.374 17.2087 112.193 17.0278C112.026 16.833 111.942 16.5547 111.942 16.179V11.0166C111.942 10.1817 112.248 9.76425 112.847 9.76425C113.153 9.76425 113.375 9.86165 113.515 10.0565C113.64 10.2513 113.723 10.5435 113.737 10.9192C113.96 10.5435 114.183 10.2513 114.419 10.0565C114.656 9.86165 114.962 9.76425 115.351 9.76425C115.741 9.76425 116.117 9.86165 116.492 10.0565C116.854 10.2513 117.035 10.5156 117.035 10.8357C117.035 11.0583 116.952 11.2531 116.799 11.3923C116.645 11.5453 116.478 11.6149 116.298 11.6149C116.228 11.6149 116.061 11.5732 115.797 11.4897C115.546 11.4062 115.31 11.3645 115.115 11.3645C114.837 11.3645 114.614 11.434 114.447 11.5732C114.28 11.7262 114.141 11.935 114.043 12.2133C113.946 12.4915 113.89 12.8255 113.849 13.2151C113.807 13.6047 113.793 14.0778 113.793 14.6344Z" fill="#0A1B30"/>
<path d="M130.377 14.1625C130.377 14.4826 130.293 14.8165 130.14 15.1922C129.987 15.554 129.737 15.9158 129.403 16.2776C129.069 16.6394 128.638 16.9177 128.123 17.1403C127.594 17.3629 126.996 17.4742 126.3 17.4742C125.771 17.4742 125.298 17.4325 124.867 17.3212C124.435 17.2238 124.046 17.0707 123.698 16.862C123.35 16.6533 123.016 16.375 122.724 16.0271C122.459 15.721 122.237 15.3731 122.056 14.9835C121.861 14.5939 121.722 14.1764 121.638 13.7451C121.541 13.2998 121.499 12.8406 121.499 12.3397C121.499 11.5326 121.611 10.823 121.847 10.1829C122.084 9.55673 122.418 9.01406 122.849 8.55487C123.28 8.1096 123.795 7.76173 124.38 7.52518C124.964 7.28862 125.59 7.17731 126.244 7.17731C127.051 7.17731 127.775 7.34428 128.401 7.66432C129.027 7.98436 129.514 8.37398 129.848 8.84708C130.182 9.32018 130.349 9.76546 130.349 10.1968C130.349 10.4195 130.266 10.6282 130.099 10.8091C129.946 10.976 129.751 11.0734 129.514 11.0734C129.25 11.0734 129.069 11.0039 128.93 10.8926C128.805 10.7673 128.665 10.5586 128.498 10.2525C128.234 9.76546 127.928 9.38976 127.58 9.1532C127.218 8.90274 126.787 8.77751 126.258 8.77751C125.437 8.77751 124.769 9.09755 124.282 9.72371C123.781 10.3499 123.545 11.2543 123.545 12.4093C123.545 13.1885 123.656 13.8286 123.865 14.3434C124.087 14.8583 124.394 15.234 124.797 15.4983C125.187 15.7488 125.66 15.874 126.189 15.874C126.773 15.874 127.26 15.7349 127.664 15.4427C128.067 15.1505 128.359 14.733 128.568 14.1764C128.651 13.9121 128.763 13.7033 128.888 13.5364C129.013 13.3694 129.222 13.2859 129.5 13.2859C129.737 13.2859 129.946 13.3694 130.113 13.5364C130.293 13.7033 130.377 13.9121 130.377 14.1625Z" fill="#0A1B30"/>
<path d="M133.9 14.8029V16.3474C133.9 16.7231 133.816 17.0014 133.635 17.1963C133.454 17.3771 133.232 17.4745 132.967 17.4745C132.703 17.4745 132.48 17.3771 132.299 17.1963C132.132 17.0014 132.049 16.7231 132.049 16.3474V11.1851C132.049 10.3502 132.355 9.93274 132.953 9.93274C133.259 9.93274 133.482 10.0301 133.621 10.2249C133.746 10.4198 133.83 10.712 133.844 11.0877C134.067 10.712 134.289 10.4198 134.526 10.2249C134.762 10.0301 135.068 9.93274 135.458 9.93274C135.848 9.93274 136.223 10.0301 136.599 10.2249C136.961 10.4198 137.142 10.6841 137.142 11.0042C137.142 11.2268 137.058 11.4216 136.905 11.5608C136.752 11.7138 136.585 11.7834 136.404 11.7834C136.335 11.7834 136.168 11.7417 135.903 11.6582C135.653 11.5747 135.416 11.5329 135.221 11.5329C134.943 11.5329 134.721 11.6025 134.554 11.7417C134.387 11.8947 134.247 12.1034 134.15 12.3817C134.053 12.66 133.997 12.994 133.955 13.3836C133.913 13.7732 133.9 14.2463 133.9 14.8029Z" fill="#0A1B30"/>
<path d="M140.007 10.9895V16.3467C140.007 16.7224 139.924 17.0007 139.743 17.1955C139.562 17.3764 139.339 17.4738 139.075 17.4738C138.797 17.4738 138.574 17.3764 138.407 17.1816C138.24 16.9868 138.157 16.7085 138.157 16.3467V11.0452C138.157 10.6695 138.24 10.4051 138.407 10.2103C138.574 10.0294 138.797 9.93198 139.075 9.93198C139.339 9.93198 139.562 10.0294 139.743 10.2103C139.924 10.4051 140.007 10.6556 140.007 10.9895ZM139.089 9.06927C138.839 9.06927 138.616 8.99969 138.435 8.83271C138.24 8.67965 138.157 8.45702 138.157 8.16481C138.157 7.90043 138.254 7.67779 138.435 7.51081C138.63 7.34383 138.839 7.26035 139.089 7.26035C139.326 7.26035 139.548 7.32992 139.729 7.48298C139.91 7.64996 140.007 7.8726 140.007 8.16481C140.007 8.4431 139.924 8.66574 139.743 8.83271C139.562 8.98578 139.339 9.06927 139.089 9.06927Z" fill="#0A1B30"/>
<path d="M147.898 15.0534C147.898 15.5682 147.773 15.9996 147.522 16.3614C147.272 16.7371 146.91 17.0014 146.423 17.1963C145.936 17.3771 145.338 17.4745 144.642 17.4745C143.974 17.4745 143.404 17.3771 142.93 17.1684C142.457 16.9736 142.11 16.7092 141.873 16.4031C141.65 16.097 141.539 15.7909 141.539 15.4847C141.539 15.276 141.609 15.109 141.762 14.9699C141.901 14.8168 142.082 14.7473 142.304 14.7473C142.499 14.7473 142.652 14.789 142.75 14.8864C142.861 14.9838 142.958 15.123 143.056 15.2899C143.251 15.6239 143.473 15.8604 143.738 16.0274C144.002 16.1944 144.364 16.2779 144.823 16.2779C145.199 16.2779 145.491 16.1944 145.741 16.0274C145.978 15.8604 146.089 15.6656 146.089 15.4569C146.089 15.1369 145.964 14.9003 145.727 14.7473C145.477 14.5942 145.073 14.455 144.503 14.3159C143.863 14.1628 143.348 13.9959 142.944 13.815C142.541 13.648 142.221 13.4114 141.984 13.1331C141.748 12.8409 141.622 12.4931 141.622 12.0756C141.622 11.6999 141.734 11.352 141.956 11.0181C142.179 10.6981 142.499 10.4337 142.93 10.2249C143.362 10.0301 143.891 9.93274 144.503 9.93274C144.976 9.93274 145.407 9.9884 145.797 10.0858C146.173 10.1832 146.493 10.3224 146.757 10.4893C147.008 10.6563 147.202 10.8372 147.341 11.0459C147.467 11.2407 147.536 11.4494 147.536 11.6443C147.536 11.853 147.467 12.0339 147.328 12.1591C147.188 12.2983 146.98 12.3678 146.715 12.3678C146.52 12.3678 146.367 12.3122 146.228 12.2008C146.103 12.0895 145.95 11.9365 145.769 11.7138C145.63 11.5329 145.463 11.3938 145.282 11.2825C145.087 11.1712 144.823 11.1155 144.503 11.1155C144.169 11.1155 143.891 11.1851 143.668 11.3381C143.445 11.4773 143.334 11.6582 143.334 11.8669C143.334 12.0617 143.417 12.2148 143.584 12.34C143.738 12.4652 143.96 12.5765 144.238 12.66C144.517 12.7296 144.892 12.8409 145.379 12.9522C145.95 13.0914 146.423 13.2584 146.785 13.4532C147.147 13.648 147.425 13.8845 147.62 14.1489C147.801 14.4133 147.898 14.7055 147.898 15.0534Z" fill="#0A1B30"/>
<path d="M151.321 10.9895V16.3467C151.321 16.7224 151.237 17.0007 151.056 17.1955C150.876 17.3764 150.653 17.4738 150.388 17.4738C150.11 17.4738 149.888 17.3764 149.721 17.1816C149.554 16.9868 149.47 16.7085 149.47 16.3467V11.0452C149.47 10.6695 149.554 10.4051 149.721 10.2103C149.888 10.0294 150.11 9.93198 150.388 9.93198C150.653 9.93198 150.876 10.0294 151.056 10.2103C151.237 10.4051 151.321 10.6556 151.321 10.9895ZM150.402 9.06927C150.152 9.06927 149.929 8.99969 149.748 8.83271C149.554 8.67965 149.47 8.45702 149.47 8.16481C149.47 7.90043 149.568 7.67779 149.748 7.51081C149.943 7.34383 150.152 7.26035 150.402 7.26035C150.639 7.26035 150.862 7.32992 151.042 7.48298C151.223 7.64996 151.321 7.8726 151.321 8.16481C151.321 8.4431 151.237 8.66574 151.056 8.83271C150.876 8.98578 150.653 9.06927 150.402 9.06927Z" fill="#0A1B30"/>
<path d="M159.212 15.0534C159.212 15.5682 159.086 15.9996 158.836 16.3614C158.585 16.7371 158.224 17.0014 157.737 17.1963C157.25 17.3771 156.651 17.4745 155.956 17.4745C155.288 17.4745 154.717 17.3771 154.244 17.1684C153.771 16.9736 153.423 16.7092 153.187 16.4031C152.964 16.097 152.853 15.7909 152.853 15.4847C152.853 15.276 152.922 15.109 153.075 14.9699C153.214 14.8168 153.395 14.7473 153.618 14.7473C153.813 14.7473 153.966 14.789 154.063 14.8864C154.174 14.9838 154.272 15.123 154.369 15.2899C154.564 15.6239 154.787 15.8604 155.051 16.0274C155.315 16.1944 155.677 16.2779 156.136 16.2779C156.512 16.2779 156.804 16.1944 157.055 16.0274C157.291 15.8604 157.403 15.6656 157.403 15.4569C157.403 15.1369 157.277 14.9003 157.041 14.7473C156.79 14.5942 156.387 14.455 155.816 14.3159C155.176 14.1628 154.661 13.9959 154.258 13.815C153.854 13.648 153.534 13.4114 153.298 13.1331C153.061 12.8409 152.936 12.4931 152.936 12.0756C152.936 11.6999 153.047 11.352 153.27 11.0181C153.493 10.6981 153.813 10.4337 154.244 10.2249C154.675 10.0301 155.204 9.93274 155.816 9.93274C156.29 9.93274 156.721 9.9884 157.11 10.0858C157.486 10.1832 157.806 10.3224 158.071 10.4893C158.321 10.6563 158.516 10.8372 158.655 11.0459C158.78 11.2407 158.85 11.4494 158.85 11.6443C158.85 11.853 158.78 12.0339 158.641 12.1591C158.502 12.2983 158.293 12.3678 158.029 12.3678C157.834 12.3678 157.681 12.3122 157.542 12.2008C157.417 12.0895 157.264 11.9365 157.083 11.7138C156.944 11.5329 156.777 11.3938 156.596 11.2825C156.401 11.1712 156.136 11.1155 155.816 11.1155C155.482 11.1155 155.204 11.1851 154.982 11.3381C154.759 11.4773 154.648 11.6582 154.648 11.8669C154.648 12.0617 154.731 12.2148 154.898 12.34C155.051 12.4652 155.274 12.5765 155.552 12.66C155.83 12.7296 156.206 12.8409 156.693 12.9522C157.264 13.0914 157.737 13.2584 158.098 13.4532C158.46 13.648 158.739 13.8845 158.933 14.1489C159.114 14.4133 159.212 14.7055 159.212 15.0534Z" fill="#0A1B30"/>
</svg>
